<svg width="25" height="25" viewBox="0 0 25 25" fill="none" xmlns="http://www.w3.org/2000/svg">
<circle cx="12.5" cy="12.5" r="12.5" fill="#3980D4"/>
<g clip-path="url(#clip0)">
<path d="M10.5252 14.4729C9.291 13.2387 9.01231 12.0044 8.94944 11.5099C8.93187 11.3732 8.97892 11.2361 9.07674 11.1389L10.0756 10.1406C10.2225 9.99372 10.2486 9.76488 10.1384 9.58875L8.54813 7.11937C8.42629 6.92435 8.17613 6.85396 7.97047 6.95684L5.41748 8.15921C5.25118 8.2411 5.15336 8.41779 5.17224 8.60221C5.30601 9.87301 5.86004 12.997 8.93004 16.0672C12 19.1374 15.1236 19.6912 16.395 19.825C16.5795 19.8439 16.7561 19.7461 16.838 19.5798L18.0404 17.0268C18.1429 16.8216 18.073 16.5721 17.8788 16.45L15.4094 14.8602C15.2334 14.7499 15.0045 14.7758 14.8576 14.9226L13.8592 15.9214C13.7621 16.0192 13.625 16.0663 13.4882 16.0487C12.9937 15.9858 11.7595 15.7071 10.5252 14.4729Z" fill="white"/>
<path d="M15.4255 13.8079C15.1792 13.8079 14.9796 13.6083 14.9796 13.362C14.9775 11.5159 13.4815 10.0199 11.6354 10.0178C11.3891 10.0178 11.1895 9.81814 11.1895 9.57187C11.1895 9.32561 11.3891 9.12598 11.6354 9.12598C13.9738 9.12856 15.8688 11.0236 15.8714 13.362C15.8714 13.6083 15.6717 13.8079 15.4255 13.8079Z" fill="white"/>
<path d="M17.655 13.8079C17.4087 13.8079 17.2091 13.6083 17.2091 13.362C17.2056 10.2851 14.7122 7.79172 11.6354 7.78828C11.3891 7.78828 11.1895 7.58864 11.1895 7.34238C11.1895 7.09612 11.3891 6.89648 11.6354 6.89648C15.2045 6.90042 18.0969 9.79282 18.1009 13.362C18.1009 13.4803 18.0539 13.5937 17.9703 13.6773C17.8866 13.7609 17.7732 13.8079 17.655 13.8079Z" fill="white"/>
</g>
<defs>
<clipPath id="clip0">
<rect width="12.931" height="12.931" fill="white" transform="translate(5.17188 6.89648)"/>
</clipPath>
</defs>
</svg>
