<svg width="20" height="20" viewBox="0 0 20 20" fill="none" xmlns="http://www.w3.org/2000/svg">
<path d="M15 2.5C14.9999 2.41715 14.967 2.33772 14.9084 2.27913C14.8498 2.22055 14.7704 2.18759 14.6875 2.1875H5.3125C5.22965 2.18759 5.15022 2.22055 5.09163 2.27913C5.03305 2.33772 5.00009 2.41715 5 2.5V4.0625H15V2.5ZM5.9375 3.4375C5.87569 3.4375 5.81527 3.41917 5.76388 3.38483C5.71249 3.3505 5.67244 3.30169 5.64879 3.24459C5.62514 3.18749 5.61895 3.12465 5.631 3.06403C5.64306 3.00342 5.67282 2.94773 5.71653 2.90403C5.76023 2.86033 5.81591 2.83056 5.87653 2.8185C5.93715 2.80645 5.99999 2.81264 6.05709 2.83629C6.11419 2.85994 6.163 2.89999 6.19733 2.95138C6.23167 3.00277 6.25 3.06319 6.25 3.125C6.25 3.20788 6.21708 3.28737 6.15847 3.34597C6.09987 3.40458 6.02038 3.4375 5.9375 3.4375ZM7.1875 3.4375C7.12569 3.4375 7.06527 3.41917 7.01388 3.38483C6.96249 3.3505 6.92244 3.30169 6.89879 3.24459C6.87514 3.18749 6.86895 3.12465 6.881 3.06403C6.89306 3.00342 6.92282 2.94773 6.96653 2.90403C7.01023 2.86033 7.06591 2.83056 7.12653 2.8185C7.18715 2.80645 7.24999 2.81264 7.30709 2.83629C7.36419 2.85994 7.413 2.89999 7.44733 2.95138C7.48167 3.00277 7.5 3.06319 7.5 3.125C7.5 3.20788 7.46708 3.28737 7.40847 3.34597C7.34987 3.40458 7.27038 3.4375 7.1875 3.4375ZM8.4375 3.4375C8.37569 3.4375 8.31527 3.41917 8.26388 3.38483C8.21249 3.3505 8.17244 3.30169 8.14879 3.24459C8.12514 3.18749 8.11895 3.12465 8.131 3.06403C8.14306 3.00342 8.17282 2.94773 8.21653 2.90403C8.26023 2.86033 8.31591 2.83056 8.37653 2.8185C8.43715 2.80645 8.49999 2.81264 8.55709 2.83629C8.61419 2.85994 8.663 2.89999 8.69733 2.95138C8.73167 3.00277 8.75 3.06319 8.75 3.125C8.75 3.20788 8.71708 3.28737 8.65847 3.34597C8.59987 3.40458 8.52038 3.4375 8.4375 3.4375Z" fill="#575E66"/>
<path d="M4.375 7.1875H4.0625C3.97965 7.18759 3.90022 7.22055 3.84163 7.27913C3.78305 7.33772 3.75009 7.41715 3.75 7.5V15.3125H12.2975C12.0765 15.134 11.8836 14.9233 11.7253 14.6875H4.6875C4.60462 14.6875 4.52513 14.6546 4.46653 14.596C4.40792 14.5374 4.375 14.4579 4.375 14.375V7.1875Z" fill="#575E66"/>
<path d="M11.2678 13.4375H5.9375C5.85462 13.4375 5.77513 13.4046 5.71653 13.346C5.65792 13.2874 5.625 13.2079 5.625 13.125V6.875C5.625 6.79212 5.65792 6.71263 5.71653 6.65403C5.77513 6.59542 5.85462 6.5625 5.9375 6.5625H6.875V5.625C6.875 5.54212 6.90792 5.46263 6.96653 5.40403C7.02513 5.34542 7.10462 5.3125 7.1875 5.3125H14.0625C14.1454 5.3125 14.2249 5.34542 14.2835 5.40403C14.3421 5.46263 14.375 5.54212 14.375 5.625V10.3303C14.5882 10.3539 14.7979 10.4021 15 10.4737V4.6875H5V14.0625H11.4112C11.3396 13.8604 11.2914 13.6507 11.2678 13.4375V13.4375Z" fill="#575E66"/>
<path d="M8.51152 16.5625H11.4889C11.547 16.5627 11.604 16.5466 11.6534 16.5161C11.7028 16.4856 11.7427 16.4418 11.7685 16.3898L11.9946 15.9375H8.00586L8.23199 16.3897C8.25779 16.4418 8.29765 16.4855 8.34705 16.5161C8.39646 16.5466 8.45344 16.5627 8.51152 16.5625V16.5625Z" fill="#575E66"/>
<path d="M16.2506 15.3125V14.89C16.125 15.0453 15.9834 15.1869 15.8281 15.3125H16.2506Z" fill="#575E66"/>
<path d="M7.1875 11.5625H11.5625C11.6115 11.5625 11.6598 11.5741 11.7035 11.5964C11.9118 11.2759 12.1827 11.0009 12.5 10.7878V9.6875H7.1875C7.10462 9.6875 7.02513 9.65458 6.96653 9.59597C6.90792 9.53737 6.875 9.45788 6.875 9.375C6.875 9.29212 6.90792 9.21263 6.96653 9.15403C7.02513 9.09542 7.10462 9.0625 7.1875 9.0625H10V8.4375H7.8125C7.72962 8.4375 7.65013 8.40458 7.59153 8.34597C7.53292 8.28737 7.5 8.20788 7.5 8.125C7.5 8.04212 7.53292 7.96263 7.59153 7.90403C7.65013 7.84542 7.72962 7.8125 7.8125 7.8125H10V7.1875H6.25V12.8125H11.2678C11.2914 12.5993 11.3396 12.3896 11.4112 12.1875H7.1875C7.10462 12.1875 7.02513 12.1546 6.96653 12.096C6.90792 12.0374 6.875 11.9579 6.875 11.875C6.875 11.7921 6.90792 11.7126 6.96653 11.654C7.02513 11.5954 7.10462 11.5625 7.1875 11.5625ZM10.9375 10.3125H11.5625C11.6454 10.3125 11.7249 10.3454 11.7835 10.404C11.8421 10.4626 11.875 10.5421 11.875 10.625C11.875 10.7079 11.8421 10.7874 11.7835 10.846C11.7249 10.9046 11.6454 10.9375 11.5625 10.9375H10.9375C10.8546 10.9375 10.7751 10.9046 10.7165 10.846C10.6579 10.7874 10.625 10.7079 10.625 10.625C10.625 10.5421 10.6579 10.4626 10.7165 10.404C10.7751 10.3454 10.8546 10.3125 10.9375 10.3125ZM7.1875 10.3125H9.6875C9.77038 10.3125 9.84987 10.3454 9.90847 10.404C9.96708 10.4626 10 10.5421 10 10.625C10 10.7079 9.96708 10.7874 9.90847 10.846C9.84987 10.9046 9.77038 10.9375 9.6875 10.9375H7.1875C7.10462 10.9375 7.02513 10.9046 6.96653 10.846C6.90792 10.7874 6.875 10.7079 6.875 10.625C6.875 10.5421 6.90792 10.4626 6.96653 10.404C7.02513 10.3454 7.10462 10.3125 7.1875 10.3125Z" fill="#575E66"/>
<path d="M11.875 13.125C11.875 13.5576 12.0033 13.9806 12.2437 14.3403C12.484 14.7 12.8257 14.9804 13.2254 15.146C13.6251 15.3116 14.0649 15.3549 14.4893 15.2705C14.9136 15.1861 15.3034 14.9777 15.6093 14.6718C15.9152 14.3659 16.1236 13.9761 16.208 13.5518C16.2924 13.1274 16.2491 12.6876 16.0835 12.2879C15.9179 11.8882 15.6375 11.5465 15.2778 11.3062C14.9181 11.0658 14.4951 10.9375 14.0625 10.9375C13.4825 10.9382 12.9265 11.1688 12.5164 11.5789C12.1063 11.989 11.8757 12.545 11.875 13.125V13.125ZM15.5335 12.904C15.5772 12.9477 15.6069 13.0034 15.619 13.064C15.6311 13.1247 15.6249 13.1875 15.6012 13.2446C15.5776 13.3017 15.5375 13.3505 15.4861 13.3848C15.4347 13.4192 15.3743 13.4375 15.3125 13.4375H15V14.375C15 14.4579 14.9671 14.5374 14.9085 14.596C14.8499 14.6546 14.7704 14.6875 14.6875 14.6875H13.4375C13.3546 14.6875 13.2751 14.6546 13.2165 14.596C13.1579 14.5374 13.125 14.4579 13.125 14.375V13.4375H12.8125C12.7507 13.4375 12.6903 13.4192 12.6389 13.3848C12.5875 13.3505 12.5474 13.3017 12.5238 13.2446C12.5001 13.1875 12.4939 13.1247 12.506 13.064C12.5181 13.0034 12.5478 12.9477 12.5915 12.904L13.8415 11.654C13.8705 11.625 13.905 11.602 13.9429 11.5863C13.9808 11.5706 14.0215 11.5625 14.0625 11.5625C14.1035 11.5625 14.1442 11.5706 14.1821 11.5863C14.22 11.602 14.2545 11.625 14.2835 11.654L15.5335 12.904Z" fill="#575E66"/>
<path d="M3.125 7.5C3.12528 7.25145 3.22414 7.01315 3.3999 6.8374C3.57565 6.66164 3.81395 6.56278 4.0625 6.5625H4.375V5.9375H3.4375C3.18895 5.93779 2.95066 6.03665 2.77491 6.21241C2.59915 6.38816 2.50029 6.62645 2.5 6.875V15.3125H3.125V7.5Z" fill="#575E66"/>
<path d="M13.5469 12.8323C13.6065 12.8546 13.6578 12.8946 13.694 12.9469C13.7303 12.9992 13.7497 13.0614 13.7497 13.125V14.0625H14.3747V13.125C14.3747 13.0614 14.3941 12.9992 14.4303 12.9469C14.4666 12.8946 14.5179 12.8546 14.5775 12.8323L14.0622 12.3169L13.5469 12.8323Z" fill="#575E66"/>
<path d="M13.75 10.3303V5.9375H7.5V6.5625H10.3125C10.3535 6.5625 10.3942 6.57058 10.4321 6.58628C10.47 6.60199 10.5045 6.62501 10.5335 6.65402L13.0335 9.15402C13.0625 9.18304 13.0855 9.21749 13.1012 9.25541C13.1169 9.29332 13.125 9.33396 13.125 9.375V10.4737C13.3271 10.4021 13.5368 10.3539 13.75 10.3303V10.3303Z" fill="#575E66"/>
<path d="M12.058 9.0625L10.625 7.62946V9.0625H12.058Z" fill="#575E66"/>
<path d="M16.25 11.36V7.5C16.2499 7.41715 16.217 7.33772 16.1584 7.27913C16.0998 7.22055 16.0204 7.18759 15.9375 7.1875H15.625V10.7878C15.8608 10.9461 16.0715 11.139 16.25 11.36V11.36Z" fill="#575E66"/>
<path d="M12.3264 16.6693C12.2491 16.8254 12.1295 16.9567 11.9813 17.0483C11.8331 17.1399 11.6622 17.1881 11.4879 17.1875H8.51051C8.33627 17.1881 8.16536 17.1399 8.01714 17.0483C7.86893 16.9567 7.74935 16.8254 7.67195 16.6693L7.30609 15.9375H1.27148C1.3473 16.4579 1.60774 16.9336 2.00527 17.2778C2.40279 17.6221 2.91086 17.8118 3.43672 17.8125H16.5617C17.0876 17.8118 17.5956 17.6221 17.9932 17.2778C18.3907 16.9336 18.6512 16.4579 18.727 15.9375H12.6923L12.3264 16.6693Z" fill="#575E66"/>
<path d="M16.875 7.5V15.3125H17.5V6.875C17.4997 6.62645 17.4008 6.38816 17.2251 6.21241C17.0493 6.03665 16.8111 5.93779 16.5625 5.9375H15.625V6.5625H15.9375C16.1861 6.56279 16.4243 6.66165 16.6001 6.83741C16.7758 7.01316 16.8747 7.25145 16.875 7.5V7.5Z" fill="#575E66"/>
</svg>
