<svg width="11" height="11" viewBox="0 0 11 11" fill="none" xmlns="http://www.w3.org/2000/svg">
<path d="M10.798 5.65039C10.798 5.57003 10.7578 5.47963 10.6975 5.41936L10.1953 4.91713C10.135 4.85686 10.0446 4.81668 9.96429 4.81668C9.88393 4.81668 9.79353 4.85686 9.73326 4.91713L5.78571 8.86468L1.83817 4.91713C1.7779 4.85686 1.6875 4.81668 1.60714 4.81668C1.51674 4.81668 1.43638 4.85686 1.37612 4.91713L0.873884 5.41936C0.813616 5.47963 0.773438 5.57003 0.773438 5.65039C0.773438 5.73075 0.813616 5.82115 0.873884 5.88142L5.55469 10.5622C5.61496 10.6225 5.70536 10.6627 5.78571 10.6627C5.86607 10.6627 5.95647 10.6225 6.01674 10.5622L10.6975 5.88142C10.7578 5.82115 10.798 5.73075 10.798 5.65039ZM10.798 1.79325C10.798 1.71289 10.7578 1.62249 10.6975 1.56222L10.1953 1.05999C10.135 0.99972 10.0446 0.959542 9.96429 0.959542C9.88393 0.959542 9.79353 0.99972 9.73326 1.05999L5.78571 5.00753L1.83817 1.05999C1.7779 0.99972 1.6875 0.959542 1.60714 0.959542C1.51674 0.959542 1.43638 0.99972 1.37612 1.05999L0.873884 1.56222C0.813616 1.62249 0.773438 1.71289 0.773438 1.79325C0.773438 1.8736 0.813616 1.96401 0.873884 2.02427L5.55469 6.70508C5.61496 6.76535 5.70536 6.80552 5.78571 6.80552C5.86607 6.80552 5.95647 6.76535 6.01674 6.70508L10.6975 2.02427C10.7578 1.96401 10.798 1.8736 10.798 1.79325Z" fill="#F8971C"/>
</svg>
