<svg width="66" height="66" viewBox="0 0 66 66" fill="none" xmlns="http://www.w3.org/2000/svg">
<path d="M66 33C66 48.3752 55.4851 61.2945 41.2541 64.9593C38.6161 65.6387 35.8502 61.6346 33 61.6346C30.1498 61.6346 27.3839 65.6387 24.7459 64.9593C10.5149 61.2945 0 48.3752 0 33C0 14.7746 14.7746 0 33 0C51.2254 0 66 14.7746 66 33Z" fill="#3980D4"/>
<path d="M36.1125 5.12572L36.1273 15.2474L36.1276 15.9345C36.1292 17.3083 34.6424 18.1703 33.4511 17.4843L31.5438 16.3858L19.3972 37.2941L15.625 32.4555L26.6172 13.5491L24.0823 12.0914C22.8909 11.4055 22.8881 9.68707 24.0787 8.99755L27.1304 7.23101L33.4324 3.58168C34.6223 2.89499 36.1108 3.75183 36.1125 5.12572Z" fill="#EEBD56"/>
<path d="M61.3043 21.1184L58.9555 29.9923L58.7954 30.5956C58.4762 31.7999 56.9715 32.2079 56.0876 31.3287L54.6718 29.9211L46.7962 37.7533C45.8703 38.6851 44.3925 38.7705 43.3659 37.9544L36.1545 32.2196L19.9872 45.7563L15.8613 42.4849L34.451 26.9199C35.3887 26.1307 36.7532 26.112 37.713 26.8742L44.7678 32.485L51.0157 26.2849L49.1358 24.4153C48.2519 23.5361 48.6506 22.029 49.8548 21.7029L52.9413 20.8669L59.3156 19.1401C60.5197 18.8153 61.6234 19.9143 61.3043 21.1184Z" fill="#EEBD56"/>
<path d="M61.279 9.6348L58.9302 18.5087L58.7701 19.112C58.4509 20.3162 56.9462 20.7242 56.0623 19.8451L54.6465 18.4374L46.771 26.2696C45.8451 27.2015 44.3673 27.2868 43.3407 26.4707L36.1293 20.736L19.9618 34.2725L15.8359 31.0013L34.4256 15.4362C35.3633 14.6471 36.7278 14.6284 37.6876 15.3906L44.7424 21.0014L50.9903 14.8012L49.1104 12.9317C48.2265 12.0524 48.6252 10.5454 49.8294 10.2193L52.916 9.38331L59.2902 7.65648C60.4945 7.33151 61.5982 8.43056 61.279 9.6348Z" fill="#DD636E"/>
<path d="M37.1835 15.0797C36.2891 14.6575 35.2089 14.777 34.4256 15.4362L15.8359 31.0013L19.9618 34.2725L21.0331 33.3756L18.0383 31.0013L37.1835 15.0797Z" fill="#DA4A54"/>
<path d="M50.9901 14.8014L44.7422 21.0015L45.9647 21.9739L53.1925 14.8015L51.3125 12.932C50.4286 12.0527 50.8273 10.5457 52.0316 10.2196L55.1182 9.3836L60.6354 7.88893C60.2659 7.63125 59.7867 7.52271 59.2902 7.65677L52.9159 9.3836L49.8293 10.2196C48.6251 10.5458 48.2264 12.0529 49.1103 12.932L50.9901 14.8014Z" fill="#DA4A54"/>
<path d="M55.7475 17.3425L54.6465 18.4375L56.0623 19.8451C56.7147 20.4942 57.7049 20.4411 58.3074 19.8848L55.7475 17.3425Z" fill="#DA4A54"/>
<path d="M37.2018 19.8377L36.1289 20.736L43.3403 26.4707C44.1275 27.0966 45.1794 27.1903 46.045 26.7806L37.2018 19.8377Z" fill="#DA4A54"/>
<path d="M41.2538 57.2693V64.9585C38.6164 65.6391 35.8501 66.0001 33 66.0001C31.68 66.0001 30.3767 65.9227 29.0967 65.7719C27.6143 65.5979 26.1615 65.3233 24.7461 64.9585V57.2693H41.2538Z" fill="#FFDDCE"/>
<path d="M29.0967 57.2693V65.7719C27.6143 65.5979 26.1615 65.3233 24.7461 64.9585V57.2693H29.0967Z" fill="#FFCBBE"/>
<path d="M12.8122 48.1298C15.4984 47.165 16.427 42.9057 14.8864 38.6164C13.3457 34.3271 9.91914 31.6322 7.23294 32.597C4.54674 33.5619 3.6181 37.8212 5.15877 42.1105C6.69945 46.3997 10.126 49.0947 12.8122 48.1298Z" fill="#FFCBBE"/>
<path d="M60.8532 42.1667C62.3938 37.8774 61.4652 33.6181 58.779 32.6532C56.0928 31.6884 52.6662 34.3833 51.1256 38.6726C49.5849 42.9619 50.5135 47.2212 53.1997 48.186C55.8859 49.1509 59.3125 46.4559 60.8532 42.1667Z" fill="#FFDDCE"/>
<path d="M49.293 29.6423L51.4179 47.9951C51.4179 51.0492 49.9987 53.9305 47.577 55.7924L39.8186 61.7542C35.7968 64.8444 30.2012 64.8444 26.1793 61.7542L18.421 55.7924C15.9992 53.9305 14.5801 51.0492 14.5801 47.9951L16.705 29.6423H49.293Z" fill="#FFDDCE"/>
<path d="M32.999 64.0715C30.5953 64.0715 28.1903 63.2986 26.1793 61.7542L18.421 55.7924C15.9992 53.9305 14.5801 51.0492 14.5801 47.9951L16.705 29.6423H21.5892V47.9951C21.5892 51.0492 22.4694 53.9305 23.9692 55.7924L28.7751 61.7542C30.0215 63.2986 31.5102 64.0715 32.999 64.0715Z" fill="#FFCBBE"/>
<path d="M53.8195 42.6734C53.7659 42.6734 53.7116 42.6692 53.6569 42.6603C53.1077 42.5712 52.7346 42.0538 52.8237 41.5044C53.1646 39.4011 54.4171 37.5812 56.2597 36.5113C57.1553 35.9913 58.2341 35.8763 59.2194 36.1955C59.7488 36.3669 60.0388 36.9352 59.8674 37.4646C59.6959 37.994 59.1277 38.2842 58.5983 38.1127C58.1563 37.9695 57.6728 38.0212 57.2715 38.2541C55.953 39.0197 55.0567 40.322 54.8127 41.827C54.7325 42.3216 54.305 42.6734 53.8195 42.6734Z" fill="#FFCBBE"/>
<path d="M12.1812 42.6737C11.6957 42.6737 11.268 42.3219 11.1878 41.8273C10.9438 40.3223 10.0477 39.0199 8.72907 38.2544C8.32778 38.0214 7.84413 37.9697 7.40237 38.113C6.87308 38.2843 6.30473 37.9944 6.13328 37.4648C5.96184 36.9354 6.25188 36.3673 6.78129 36.1957C7.76691 35.8766 8.84547 35.9917 9.74085 36.5116C11.5836 37.5816 12.8359 39.4014 13.177 41.5046C13.2661 42.0539 12.893 42.5714 12.3437 42.6605C12.2892 42.6693 12.2348 42.6737 12.1812 42.6737Z" fill="#EAAC9D"/>
<path d="M52.0379 29.6423V48.6115C52.0379 51.7682 50.5712 54.7463 48.068 56.6708L40.0491 62.8329C35.8922 66.0269 30.1087 66.0269 25.9517 62.8329L17.9328 56.6708C15.4297 54.7463 13.9629 51.7682 13.9629 48.6115V29.6423H16.7064V45.9268C16.7064 47.4703 17.5154 48.9008 18.8381 49.6961L19.2598 49.9497C21.3327 51.1962 24.0232 50.5349 25.2821 48.4695C26.0806 47.1595 27.5038 46.3603 29.0378 46.3603H36.9629C38.497 46.3603 39.9202 47.1597 40.7185 48.4695C41.9774 50.5349 44.668 51.1962 46.7409 49.9497L47.1626 49.6961C48.4853 48.9008 49.2943 47.4702 49.2943 45.9268V29.6423H52.0379Z" fill="#59575E"/>
<path d="M35.4012 43.5555H30.5985C29.8042 43.5555 29.1602 44.1995 29.1602 44.9938C29.1602 45.7881 29.8042 46.4322 30.5985 46.4322H35.4012C36.1955 46.4322 36.8395 45.7881 36.8395 44.9938C36.8395 44.1995 36.1956 43.5555 35.4012 43.5555Z" fill="#FFCBBE"/>
<path d="M26.532 31.0881H21.7294C20.935 31.0881 20.291 31.7321 20.291 32.5264C20.291 33.3207 20.935 33.9647 21.7294 33.9647H26.532C27.3263 33.9647 27.9703 33.3207 27.9703 32.5264C27.9703 31.7321 27.3263 31.0881 26.532 31.0881Z" fill="#EAAC9D"/>
<path d="M44.2703 31.0881H39.4676C38.6733 31.0881 38.0293 31.7321 38.0293 32.5264C38.0293 33.3207 38.6733 33.9647 39.4676 33.9647H44.2703C45.0646 33.9647 45.7086 33.3207 45.7086 32.5264C45.7086 31.7321 45.0646 31.0881 44.2703 31.0881Z" fill="#EAAC9D"/>
<path d="M36.7168 40.946C36.7168 38.4979 38.7013 36.5133 41.1495 36.5133C43.5976 36.5133 45.5822 38.4978 45.5822 40.946" fill="#EAAC9D"/>
<path d="M20.418 40.946C20.418 38.4979 22.4025 36.5133 24.8507 36.5133C27.2989 36.5133 29.2834 38.4978 29.2834 40.946" fill="#EAAC9D"/>
<path d="M31.5986 65.1441C29.5928 64.8992 27.6373 64.1296 25.9512 62.8328L17.9319 56.6711C15.4286 54.7465 13.9629 51.7675 13.9629 48.6119V29.642H16.706V45.9268C16.706 47.4698 17.5143 48.9006 18.8381 49.696L19.2596 49.9499C19.9931 50.3908 20.8039 50.5932 21.6006 50.5777C21.8777 53.0617 22.7169 55.3176 23.9776 56.8825L28.9843 63.0932C29.7797 64.0793 30.6704 64.7638 31.5986 65.1441Z" fill="#423F46"/>
<path d="M35.4381 51.6277H30.5639C28.8674 51.6277 27.4922 53.003 27.4922 54.6995C27.4922 56.396 28.8675 57.7712 30.5639 57.7712H35.4381C37.1346 57.7712 38.5098 56.3959 38.5098 54.6995C38.5099 53.003 37.1346 51.6277 35.4381 51.6277Z" fill="#FFDDCE"/>
<path d="M36.1971 52.8182C34.1012 53.371 31.8969 53.371 29.8009 52.8182C29.0891 52.6303 28.3493 52.9981 28.089 53.6867C28.0857 53.6958 28.0822 53.7047 28.0788 53.7137C27.7806 54.503 28.2302 55.3776 29.0458 55.594C31.6361 56.2814 34.3618 56.2814 36.9522 55.594C37.7677 55.3777 38.2173 54.503 37.9191 53.7138C37.9158 53.7048 37.9123 53.6959 37.909 53.6869C37.6488 52.9981 36.9089 52.6305 36.1971 52.8182Z" fill="#EAAC9D"/>
</svg>
