<svg width="76" height="109" viewBox="0 0 76 109" fill="none" xmlns="http://www.w3.org/2000/svg">
<path d="M75.8594 109H1.00586V93.2529L27.8857 66.0801C35.8447 57.9258 41.0449 52.2861 43.4863 49.1611C45.9277 45.9873 47.6855 43.0576 48.7598 40.3721C49.834 37.6865 50.3711 34.9033 50.3711 32.0225C50.3711 27.7256 49.1748 24.5273 46.7822 22.4277C44.4385 20.3281 41.2891 19.2783 37.334 19.2783C33.1836 19.2783 29.1553 20.2305 25.249 22.1348C21.3428 24.0391 17.2656 26.749 13.0176 30.2646L0.712891 15.6895C5.98633 11.1973 10.3564 8.02344 13.8232 6.16797C17.29 4.3125 21.0742 2.89648 25.1758 1.91992C29.2773 0.894531 33.8672 0.381836 38.9453 0.381836C45.6348 0.381836 51.543 1.60254 56.6699 4.04395C61.7969 6.48535 65.7764 9.90332 68.6084 14.2979C71.4404 18.6924 72.8564 23.7217 72.8564 29.3857C72.8564 34.3174 71.9775 38.9561 70.2197 43.3018C68.5107 47.5986 65.8252 52.0176 62.1631 56.5586C58.5498 61.0996 52.1533 67.5693 42.9736 75.9678L29.2041 88.9316V89.957H75.8594V109Z" fill="#ECF0F4"/>
</svg>
