<svg width="75" height="111" viewBox="0 0 75 111" fill="none" xmlns="http://www.w3.org/2000/svg">
<path d="M71.6846 25.8701C71.6846 32.5596 69.6582 38.248 65.6055 42.9355C61.5527 47.623 55.8643 50.8457 48.54 52.6035V53.043C57.1826 54.1172 63.7256 56.7539 68.1689 60.9531C72.6123 65.1035 74.834 70.7188 74.834 77.7988C74.834 88.1016 71.0986 96.1338 63.6279 101.896C56.1572 107.608 45.4883 110.465 31.6211 110.465C20 110.465 9.69727 108.536 0.712891 104.679V85.416C4.86328 87.5156 9.42871 89.2246 14.4092 90.543C19.3896 91.8613 24.3213 92.5205 29.2041 92.5205C36.6748 92.5205 42.1924 91.251 45.7568 88.7119C49.3213 86.1729 51.1035 82.0957 51.1035 76.4805C51.1035 71.4512 49.0527 67.8867 44.9512 65.7871C40.8496 63.6875 34.3066 62.6377 25.3223 62.6377H17.1924V45.2793H25.4688C33.7695 45.2793 39.8242 44.2051 43.6328 42.0566C47.4902 39.8594 49.4189 36.124 49.4189 30.8506C49.4189 22.7451 44.3408 18.6924 34.1846 18.6924C30.6689 18.6924 27.0801 19.2783 23.418 20.4502C19.8047 21.6221 15.7764 23.6484 11.333 26.5293L0.859375 10.9287C10.625 3.89746 22.2705 0.381836 35.7959 0.381836C46.8799 0.381836 55.6201 2.62793 62.0166 7.12012C68.4619 11.6123 71.6846 17.8623 71.6846 25.8701Z" fill="#ECF0F4"/>
</svg>
