<svg width="30" height="30" viewBox="0 0 30 30" fill="none" xmlns="http://www.w3.org/2000/svg">
<path d="M1.78613 9.28571L14.4698 2.23926L28.5718 9.64285L15.0004 15.7143L1.78613 10.3571V9.28571Z" fill="#F89820"/>
<path d="M14.9998 27.192L2.2588 21.348C2.3008 21.375 1.1308 20.847 0.299805 20.373C0.299805 21.081 0.479805 22.374 1.1428 22.725L13.6168 28.305C14.7178 28.821 15.1948 28.821 16.3888 28.305L28.8628 22.725C29.4778 22.44 29.7028 21.096 29.7028 20.373C28.9018 20.772 27.7648 21.342 27.7438 21.348L14.9998 27.192Z" fill="white"/>
<path d="M1.14251 11.037L13.6165 16.617C14.7175 17.133 15.1945 17.133 16.3885 16.617L28.8625 11.037C29.7805 10.611 29.8105 8.799 28.8625 8.283L16.3855 1.728C15.4045 1.149 14.7145 1.179 13.6135 1.728L1.14251 8.283C0.191512 8.892 0.161512 10.521 1.14251 11.037ZM14.9995 2.841C15.0115 2.844 15.0235 2.853 15.0355 2.859L27.7405 9.66L14.9995 15.003L2.25851 9.66L14.9995 2.841Z" fill="white"/>
<path d="M15.036 2.862L15 2.844C15.075 2.928 15.072 2.892 15.036 2.862Z" fill="white"/>
<path d="M1.1428 16.881L13.6168 22.461C14.7178 22.977 15.1948 22.977 16.3888 22.461L28.8628 16.881C29.4778 16.596 29.7028 15.252 29.7028 14.529C28.9018 14.928 27.7648 15.498 27.7438 15.501L14.9998 21.348L2.2588 15.504C2.3008 15.531 1.1308 15.003 0.299805 14.532C0.299805 15.237 0.479805 16.533 1.1428 16.881Z" fill="white"/>
</svg>
