<svg width="30" height="30" viewBox="0 0 30 30" fill="none" xmlns="http://www.w3.org/2000/svg">
<path d="M11.5 18C8.73853 18 6.5 20.2385 6.5 23C6.5 25.7615 8.73853 28 11.5 28C14.2615 28 16.5 25.7615 16.5 23C16.4971 20.2397 14.2603 18.0029 11.5 18ZM11.5 27C9.29077 27 7.5 25.2092 7.5 23C7.5 20.7908 9.29077 19 11.5 19C13.7092 19 15.5 20.7908 15.5 23C15.4976 25.208 13.708 26.9976 11.5 27Z" fill="#F89820"/>
<path d="M11.5 21.5C12.1106 21.5 12.5 21.7959 12.5 22H13.5C13.5 21.2896 12.8706 20.7141 12 20.55V20H11V20.55C10.1294 20.7129 9.5 21.2886 9.5 22C9.5 22.8416 10.3784 23.5 11.5 23.5C12.1106 23.5 12.5 23.7959 12.5 24C12.5 24.2041 12.1106 24.5 11.5 24.5C10.8894 24.5 10.5 24.2041 10.5 24H9.5C9.5 24.7104 10.1294 25.2859 11 25.45V26H12V25.45C12.8706 25.2871 13.5 24.7114 13.5 24C13.5 23.1584 12.6216 22.5 11.5 22.5C10.8894 22.5 10.5 22.2041 10.5 22C10.5 21.7959 10.8894 21.5 11.5 21.5Z" fill="#F89820"/>
<path d="M25.5 29H4.5V17H12.5C13.3284 17 14 16.3284 14 15.5V3H19.5V9H25.5V16H26.5V8.29297L20.207 2H14V1.5C14 0.671631 13.3284 0 12.5 0H1.5C0.671631 0 0 0.671631 0 1.5V15.5C0 16.3284 0.671631 17 1.5 17H3.5V30H26.5V23H25.5V29ZM20.5 3.70703L24.793 8H20.5V3.70703ZM1 15.5V1.5C1 1.22388 1.22388 1 1.5 1H12.5C12.7761 1 13 1.22388 13 1.5V15.5C13 15.7761 12.7761 16 12.5 16H1.5C1.22388 16 1 15.7761 1 15.5Z" fill="white"/>
<path d="M16 12.5H17V13.5H16V12.5Z" fill="white"/>
<path d="M18 12.5H24V13.5H18V12.5Z" fill="white"/>
<path d="M16 10.5H17V11.5H16V10.5Z" fill="white"/>
<path d="M18 10.5H24V11.5H18V10.5Z" fill="white"/>
<path d="M16 14.5H17V15.5H16V14.5Z" fill="white"/>
<path d="M18 14.5H24V15.5H18V14.5Z" fill="white"/>
<path d="M16 16.5H17V17.5H16V16.5Z" fill="white"/>
<path d="M18 16.5H24V17.5H18V16.5Z" fill="white"/>
<path d="M12.5 1.5H1.5V5H12.5V1.5ZM11.5 4H2.5V2.5H11.5V4Z" fill="white"/>
<path d="M4 5.5H3C2.44775 5.5 2 5.94775 2 6.5V7.5C2 8.05225 2.44775 8.5 3 8.5H4C4.55225 8.5 5 8.05225 5 7.5V6.5C5 5.94775 4.55225 5.5 4 5.5ZM3 7.5V6.5H4V7.5H3Z" fill="#F89820"/>
<path d="M7.5 5.5H6.5C5.94775 5.5 5.5 5.94775 5.5 6.5V7.5C5.5 8.05225 5.94775 8.5 6.5 8.5H7.5C8.05225 8.5 8.5 8.05225 8.5 7.5V6.5C8.5 5.94775 8.05225 5.5 7.5 5.5ZM6.5 7.5V6.5H7.5V7.5H6.5Z" fill="#F89820"/>
<path d="M11 5.5H10C9.44775 5.5 9 5.94775 9 6.5V7.5C9 8.05225 9.44775 8.5 10 8.5H11C11.5522 8.5 12 8.05225 12 7.5V6.5C12 5.94775 11.5522 5.5 11 5.5ZM10 7.5V6.5H11V7.5H10Z" fill="#F89820"/>
<path d="M4 9H3C2.44775 9 2 9.44775 2 10V11C2 11.5522 2.44775 12 3 12H4C4.55225 12 5 11.5522 5 11V10C5 9.44775 4.55225 9 4 9ZM3 11V10H4V11H3Z" fill="#F89820"/>
<path d="M7.5 9H6.5C5.94775 9 5.5 9.44775 5.5 10V11C5.5 11.5522 5.94775 12 6.5 12H7.5C8.05225 12 8.5 11.5522 8.5 11V10C8.5 9.44775 8.05225 9 7.5 9ZM6.5 11V10H7.5V11H6.5Z" fill="#F89820"/>
<path d="M11 9H10C9.44775 9 9 9.44775 9 10V11C9 11.5522 9.44775 12 10 12H11C11.5522 12 12 11.5522 12 11V10C12 9.44775 11.5522 9 11 9ZM10 11V10H11V11H10Z" fill="#F89820"/>
<path d="M4 12.5H3C2.44775 12.5 2 12.9478 2 13.5V14.5C2 15.0522 2.44775 15.5 3 15.5H4C4.55225 15.5 5 15.0522 5 14.5V13.5C5 12.9478 4.55225 12.5 4 12.5ZM3 14.5V13.5H4V14.5H3Z" fill="#F89820"/>
<path d="M7.5 12.5H6.5C5.94775 12.5 5.5 12.9478 5.5 13.5V14.5C5.5 15.0522 5.94775 15.5 6.5 15.5H7.5C8.05225 15.5 8.5 15.0522 8.5 14.5V13.5C8.5 12.9478 8.05225 12.5 7.5 12.5ZM6.5 14.5V13.5H7.5V14.5H6.5Z" fill="#F89820"/>
<path d="M11 12.5H10C9.44775 12.5 9 12.9478 9 13.5V14.5C9 15.0522 9.44775 15.5 10 15.5H11C11.5522 15.5 12 15.0522 12 14.5V13.5C12 12.9478 11.5522 12.5 11 12.5ZM10 14.5V13.5H11V14.5H10Z" fill="#F89820"/>
<path d="M29.546 15.9541C28.9525 15.3875 28.0187 15.3875 27.4252 15.9541L18.8536 24.5254C18.8121 24.5674 18.7782 24.6162 18.7535 24.6699L17.5465 27.291C17.4593 27.481 17.4996 27.7053 17.6476 27.853C17.7953 28.001 18.0197 28.0413 18.2096 27.9541L20.8307 26.7471C20.8844 26.7224 20.9332 26.6887 20.9752 26.647L29.546 18.0754C30.132 17.4897 30.132 16.5398 29.546 15.9541ZM20.3307 25.876L19.0206 26.4795L19.6241 25.1694L26.015 18.7781L26.722 19.4851L20.3307 25.876ZM27.4305 18.7759L26.7235 18.0691L27.0736 17.719L27.7806 18.426L27.4305 18.7759ZM28.8407 17.366L28.4872 17.7195L27.7801 17.0125L28.1342 16.6589C28.3317 16.47 28.6429 16.47 28.8407 16.6589C29.0358 16.8542 29.0358 17.1707 28.8407 17.366Z" fill="white"/>
</svg>
