<svg width="30" height="30" viewBox="0 0 30 30" fill="none" xmlns="http://www.w3.org/2000/svg">
<path d="M1.78613 9.28568L14.4698 2.23922L28.5718 9.64282L15.0004 15.7142L1.78613 10.3571V9.28568Z" fill="#F89820"/>
<path d="M14.9998 27.1921L2.2588 21.348C2.3008 21.375 1.1308 20.847 0.299805 20.373C0.299805 21.081 0.479805 22.3741 1.1428 22.7251L13.6168 28.3051C14.7178 28.8211 15.1948 28.8211 16.3888 28.3051L28.8628 22.7251C29.4778 22.4401 29.7028 21.096 29.7028 20.373C28.9018 20.772 27.7648 21.342 27.7438 21.348L14.9998 27.1921Z" fill="#363636"/>
<path d="M1.14251 11.037L13.6165 16.617C14.7175 17.133 15.1945 17.133 16.3885 16.617L28.8625 11.037C29.7805 10.611 29.8105 8.79901 28.8625 8.28301L16.3855 1.72801C15.4045 1.14901 14.7145 1.17901 13.6135 1.72801L1.14251 8.28301C0.191512 8.89201 0.161512 10.521 1.14251 11.037ZM14.9995 2.84101C15.0115 2.84401 15.0235 2.85301 15.0355 2.85901L27.7405 9.66001L14.9995 15.003L2.25851 9.66001L14.9995 2.84101Z" fill="#363636"/>
<path d="M15.036 2.86199L15 2.84399C15.075 2.92799 15.072 2.89199 15.036 2.86199Z" fill="#363636"/>
<path d="M1.1428 16.8811L13.6168 22.461C14.7178 22.977 15.1948 22.977 16.3888 22.461L28.8628 16.8811C29.4778 16.5961 29.7028 15.2521 29.7028 14.5291C28.9018 14.9281 27.7648 15.4981 27.7438 15.5011L14.9998 21.348L2.2588 15.5041C2.3008 15.5311 1.1308 15.0031 0.299805 14.5321C0.299805 15.2371 0.479805 16.5331 1.1428 16.8811Z" fill="#363636"/>
</svg>
