<svg width="30" height="30" viewBox="0 0 30 30" fill="none" xmlns="http://www.w3.org/2000/svg">
<path d="M14.7291 16.3512L24.1486 13.7637C24.7966 13.5861 25.014 12.7717 24.5371 12.2947L21.7427 9.50039L19.1816 12.0609C18.8402 12.4035 18.2819 12.4046 17.9388 12.0604C17.5955 11.7176 17.5961 11.1609 17.9394 10.8176L20.4994 8.25703L17.705 5.4627C17.2281 4.98574 16.4136 5.20313 16.2361 5.85117L13.6486 15.2707C13.4676 15.9299 14.0752 16.5311 14.7291 16.3512Z" fill="#F8971C"/>
<path d="M24.1076 7.13625L24.5148 7.54354C24.7689 7.7976 25.1808 7.7976 25.4349 7.54354L29.8099 3.16852C30.0639 2.91445 30.0639 2.50254 29.8099 2.24848L27.752 0.190547C27.4979 -0.0635156 27.086 -0.0635156 26.8319 0.190547L22.4569 4.56557C22.2028 4.81963 22.2028 5.23154 22.4569 5.48561L22.8642 5.89283L20.5 8.25703L21.7434 9.50039L24.1076 7.13625Z" fill="#F8971C"/>
<path d="M0.614999 17.4838H10.3086C10.6483 17.4838 10.9236 17.2085 10.9236 16.8688V13.5982C10.9236 13.2585 10.6483 12.9832 10.3086 12.9832H0.614999C0.275332 12.9832 0 13.2585 0 13.5982V16.8688C0 17.2085 0.275332 17.4838 0.614999 17.4838Z" fill="white"/>
<path d="M10.3086 25.4994H0.614999C0.275332 25.4994 0 25.7747 0 26.1144V29.385C0 29.7247 0.275332 30 0.614999 30H10.3086C10.6483 30 10.9236 29.7247 10.9236 29.385V26.1144C10.9236 25.7747 10.6483 25.4994 10.3086 25.4994Z" fill="white"/>
<path d="M6.95582 19.2416C6.61615 19.2416 6.34082 19.5169 6.34082 19.8566V23.1266C6.34082 23.4663 6.61615 23.7416 6.95582 23.7416H16.6495C16.9892 23.7416 17.2645 23.4663 17.2645 23.1266V19.8566C17.2645 19.5169 16.9892 19.2416 16.6495 19.2416H6.95582Z" fill="white"/>
<path d="M22.9903 25.4994H13.2966C12.957 25.4994 12.6816 25.7747 12.6816 26.1144V29.385C12.6816 29.7247 12.957 30 13.2966 30H22.9903C23.3299 30 23.6053 29.7247 23.6053 29.385V26.1144C23.6053 25.7747 23.3299 25.4994 22.9903 25.4994Z" fill="white"/>
<path d="M29.3305 19.2416H19.6375C19.2978 19.2416 19.0225 19.5169 19.0225 19.8566V23.1266C19.0225 23.4663 19.2978 23.7416 19.6375 23.7416H29.3305C29.6702 23.7416 29.9455 23.4663 29.9455 23.1266V19.8566C29.9455 19.5169 29.6702 19.2416 29.3305 19.2416Z" fill="white"/>
</svg>
