<svg width="20" height="10" viewBox="0 0 20 10" fill="none" xmlns="http://www.w3.org/2000/svg">
<path d="M20 3.78571C20 3.58482 19.8438 3.42857 19.6429 3.42857H5.71429V0.928571C5.71429 0.783481 5.625 0.660713 5.50223 0.60491C5.3683 0.549106 5.22321 0.571428 5.11161 0.671875L0.825893 4.62277C0.758929 4.68973 0.714286 4.79018 0.714286 4.89062C0.714286 4.99107 0.758929 5.08036 0.825893 5.14732L5.11161 9.05357C5.22321 9.14286 5.3683 9.16518 5.50223 9.10938C5.63616 9.05357 5.71429 8.9308 5.71429 8.78571V6.28571H19.6429C19.8438 6.28571 20 6.12946 20 5.92857V3.78571Z" fill="#F89820"/>
</svg>
