<svg width="46" height="46" viewBox="0 0 46 46" fill="none" xmlns="http://www.w3.org/2000/svg">
<path d="M2.73828 14.2381L22.1865 3.43358L43.8097 14.7858L23.0002 24.0953L2.73828 15.881V14.2381Z" fill="#3980D4"/>
<path d="M23.0009 41.6943L3.46474 32.7335C3.52914 32.7749 1.73514 31.9653 0.460938 31.2385C0.460938 32.3241 0.736937 34.3067 1.75354 34.8449L20.8803 43.4009C22.5685 44.1921 23.2999 44.1921 25.1307 43.4009L44.2575 34.8449C45.2005 34.4079 45.5455 32.3471 45.5455 31.2385C44.3173 31.8503 42.5739 32.7243 42.5417 32.7335L23.0009 41.6943Z" fill="#252E3B"/>
<path d="M1.75355 16.9234L20.8804 25.4794C22.5686 26.2706 23.2999 26.2706 25.1308 25.4794L44.2576 16.9234C45.6652 16.2702 45.7112 13.4918 44.2576 12.7006L25.1262 2.64957C23.622 1.76177 22.5639 1.80777 20.8757 2.64957L1.75355 12.7006C0.295345 13.6344 0.249345 16.1322 1.75355 16.9234ZM23.0009 4.35617C23.0194 4.36077 23.0378 4.37457 23.0562 4.38377L42.5372 14.812L23.0009 23.0046L3.46475 14.812L23.0009 4.35617Z" fill="#252E3B"/>
<path d="M23.0552 4.38832L23 4.36072C23.115 4.48952 23.1104 4.43432 23.0552 4.38832Z" fill="#252E3B"/>
<path d="M1.75354 25.8842L20.8803 34.4402C22.5685 35.2314 23.2999 35.2314 25.1307 34.4402L44.2575 25.8842C45.2005 25.4472 45.5455 23.3864 45.5455 22.2778C44.3173 22.8896 42.5739 23.7636 42.5417 23.7682L23.0009 32.7336L3.46474 23.7728C3.52914 23.8142 1.73514 23.0046 0.460938 22.2824C0.460938 23.3634 0.736937 25.3506 1.75354 25.8842Z" fill="#252E3B"/>
</svg>
