<svg width="30" height="31" viewBox="0 0 30 31" fill="none" xmlns="http://www.w3.org/2000/svg">
<g clip-path="url(#clip0)">
<path d="M29.5597 29.5021H26.7123V12.1056C26.7123 11.8626 26.5152 11.6655 26.272 11.6655H21.5753C21.3321 11.6655 21.135 11.8626 21.135 12.1056V29.5021H17.7887V17.2688C17.7887 17.0258 17.5915 16.8287 17.3483 16.8287H12.6517C12.4085 16.8287 12.2113 17.0258 12.2113 17.2688V29.5021H8.865V19.6157C8.865 19.3727 8.66789 19.1756 8.42467 19.1756H3.72803C3.4848 19.1756 3.2877 19.3727 3.2877 19.6157V29.502H0.440332C0.197109 29.502 0 29.699 0 29.9421C0 30.1851 0.197109 30.3821 0.440332 30.3821H29.5597C29.8029 30.3821 30 30.1851 30 29.9421C29.9999 29.699 29.8029 29.5021 29.5597 29.5021ZM7.98434 29.5021H4.1683V20.0557H7.98434V29.5021ZM16.908 29.5021H13.092V17.7088H16.908V29.5021ZM25.8317 29.5021H22.0157V12.5457H25.8317V29.5021Z" fill="#363636"/>
<path d="M28.5942 0.745249C28.2974 0.483436 27.9024 0.361459 27.5099 0.410765L23.7525 0.880167C23.0066 0.973333 22.4614 1.67304 22.5547 2.41925C22.649 3.17331 23.3393 3.71069 24.0948 3.61641L24.4013 3.57818C19.7897 8.92196 14.3073 11.6837 10.4332 13.0716C5.60265 14.8023 1.84287 14.9503 1.80624 14.9516C1.04669 14.9753 0.447397 15.6122 0.470365 16.3714C0.4931 17.1212 1.09855 17.7085 1.84884 17.7085C1.86279 17.7085 1.87679 17.7083 1.89115 17.7079C2.05831 17.7028 6.04392 17.5622 11.2948 15.6923C14.2466 14.641 17.0242 13.2455 19.5502 11.5446C19.7519 11.4089 19.8052 11.1353 19.6693 10.9338C19.5335 10.7322 19.2599 10.6789 19.0581 10.8147C16.5932 12.4746 13.8818 13.8367 10.9992 14.8633C5.87734 16.6872 2.02585 16.8233 1.86478 16.8281L1.84884 16.8284C1.57767 16.8284 1.35876 16.616 1.35056 16.3448C1.34224 16.0702 1.55904 15.8398 1.83396 15.8312C1.8724 15.83 5.73947 15.6881 10.7304 13.9C14.9116 12.4021 20.9194 9.3434 25.7963 3.27889C26.0392 2.97696 25.7825 2.51851 25.3986 2.56658L23.9858 2.74308C23.7409 2.77335 23.503 2.61296 23.4408 2.37393C23.3661 2.08629 23.5671 1.79022 23.8619 1.75333L27.6193 1.28393C27.9127 1.24686 28.1801 1.48384 28.1801 1.7788V5.53384C28.1801 5.80883 27.9563 6.03258 27.6811 6.03258C27.4059 6.03258 27.182 5.80889 27.182 5.53384V4.39547C27.182 4.21564 27.0657 4.04746 26.8974 3.98393C26.7235 3.91828 26.5181 3.97339 26.4006 4.1172C24.756 6.13108 22.8835 7.95341 20.8349 9.53354C20.6424 9.68204 20.6067 9.95838 20.7553 10.1508C20.9039 10.3432 21.1805 10.3788 21.3729 10.2303C23.1574 8.85392 24.8115 7.29855 26.3028 5.59597C26.3354 6.32754 26.9411 6.91277 27.6811 6.91277C28.4418 6.91277 29.0608 6.29422 29.0608 5.53396V1.77892C29.0607 1.38365 28.8907 1.00683 28.5942 0.745249Z" fill="#363636"/>
<rect x="4.16016" y="20.0759" width="3.86719" height="9.42787" fill="#F8971C"/>
<rect x="13.0664" y="17.7336" width="3.86719" height="11.7702" fill="#F8971C"/>
<rect x="21.9727" y="12.522" width="3.86719" height="16.9819" fill="#F8971C"/>
</g>
<defs>
<clipPath id="clip0">
<rect width="30" height="29.9818" fill="white" transform="translate(0 0.400391)"/>
</clipPath>
</defs>
</svg>
