<svg width="30" height="30" viewBox="0 0 30 30" fill="none" xmlns="http://www.w3.org/2000/svg">
<g clip-path="url(#clip0)">
<path d="M29.5597 29.1017H26.7123V11.7053C26.7123 11.4622 26.5152 11.2652 26.272 11.2652H21.5753C21.3321 11.2652 21.135 11.4622 21.135 11.7053V29.1017H17.7887V16.8684C17.7887 16.6254 17.5915 16.4284 17.3483 16.4284H12.6517C12.4085 16.4284 12.2113 16.6254 12.2113 16.8684V29.1017H8.865V19.2153C8.865 18.9723 8.66789 18.7753 8.42467 18.7753H3.72803C3.4848 18.7753 3.2877 18.9723 3.2877 19.2153V29.1017H0.440332C0.197109 29.1017 0 29.2987 0 29.5417C0 29.7847 0.197109 29.9818 0.440332 29.9818H29.5597C29.8029 29.9818 30 29.7847 30 29.5417C29.9999 29.2987 29.8029 29.1017 29.5597 29.1017ZM7.98434 29.1017H4.1683V19.6554H7.98434V29.1017ZM16.908 29.1017H13.092V17.3085H16.908V29.1017ZM25.8317 29.1017H22.0157V12.1453H25.8317V29.1017Z" fill="white"/>
<path d="M28.5942 0.344805C28.2974 0.0829918 27.9024 -0.0389849 27.5099 0.0103211L23.7525 0.479723C23.0066 0.572889 22.4614 1.2726 22.5547 2.01881C22.649 2.77286 23.3393 3.31025 24.0948 3.21597L24.4013 3.17773C19.7897 8.52152 14.3073 11.2832 10.4332 12.6712C5.60265 14.4019 1.84287 14.5499 1.80624 14.5511C1.04669 14.5748 0.447397 15.2118 0.470365 15.971C0.4931 16.7208 1.09855 17.3081 1.84884 17.3081C1.86279 17.3081 1.87679 17.3079 1.89115 17.3074C2.05831 17.3024 6.04392 17.1617 11.2948 15.2918C14.2466 14.2406 17.0242 12.8451 19.5502 11.1442C19.7519 11.0084 19.8052 10.7348 19.6693 10.5333C19.5335 10.3317 19.2599 10.2785 19.0581 10.4143C16.5932 12.0742 13.8818 13.4363 10.9992 14.4628C5.87734 16.2867 2.02585 16.4228 1.86478 16.4277L1.84884 16.4279C1.57767 16.4279 1.35876 16.2155 1.35056 15.9444C1.34224 15.6697 1.55904 15.4393 1.83396 15.4307C1.8724 15.4295 5.73947 15.2877 10.7304 13.4996C14.9116 12.0016 20.9194 8.94296 25.7963 2.87844C26.0392 2.57652 25.7825 2.11806 25.3986 2.16614L23.9858 2.34263C23.7409 2.37291 23.503 2.21252 23.4408 1.97348C23.3661 1.68585 23.5671 1.38978 23.8619 1.35288L27.6193 0.883482C27.9127 0.846415 28.1801 1.0834 28.1801 1.37836V5.1334C28.1801 5.40839 27.9563 5.63214 27.6811 5.63214C27.4059 5.63214 27.182 5.40845 27.182 5.1334V3.99503C27.182 3.8152 27.0657 3.64702 26.8974 3.58348C26.7235 3.51784 26.5181 3.57294 26.4006 3.71676C24.756 5.73063 22.8835 7.55296 20.8349 9.1331C20.6424 9.2816 20.6067 9.55794 20.7553 9.75036C20.9039 9.94278 21.1805 9.97833 21.3729 9.82988C23.1574 8.45347 24.8115 6.89811 26.3028 5.19553C26.3354 5.9271 26.9411 6.51233 27.6811 6.51233C28.4418 6.51233 29.0608 5.89378 29.0608 5.13352V1.37847C29.0607 0.983207 28.8907 0.606385 28.5942 0.344805Z" fill="white"/>
<rect x="4.16016" y="19.6756" width="3.86719" height="9.42787" fill="#F8971C"/>
<rect x="13.0664" y="17.3332" width="3.86719" height="11.7702" fill="#F8971C"/>
<rect x="21.9727" y="12.1215" width="3.86719" height="16.9819" fill="#F8971C"/>
</g>
<defs>
<clipPath id="clip0">
<rect width="30" height="29.9818" fill="white"/>
</clipPath>
</defs>
</svg>
