<svg width="30" height="32" viewBox="0 0 30 32" fill="none" xmlns="http://www.w3.org/2000/svg">
<g clip-path="url(#clip0)">
<path d="M0.9375 14.625L4.0625 11.375L19.0625 26.65L15.625 30.225L0.9375 14.625Z" fill="#F89820"/>
<path d="M4.37501 5.19061C3.33948 5.19061 2.5 6.06367 2.5 7.14062V12.3406H3.74999V7.14062C3.74999 6.78164 4.02983 6.4906 4.37501 6.4906H19.3751V5.19061H4.37501Z" fill="white"/>
<path d="M4.37501 24.6907C4.02983 24.6907 3.74999 24.3996 3.74999 24.0407V17.5406H2.5V24.0407C2.5 25.1176 3.33948 25.9907 4.37501 25.9907H10.6251V24.6907H4.37501Z" fill="white"/>
<path d="M19.8168 26.367L4.63801 10.581C4.39396 10.3273 3.99834 10.3273 3.75423 10.581L0.182989 14.2952C-0.0609963 14.549 -0.0609963 14.9605 0.182989 15.2143L15.3618 31.0002C15.479 31.1222 15.638 31.1907 15.8037 31.1907C15.9694 31.1906 16.1283 31.1221 16.2455 31.0002L19.8168 27.2861C20.0608 27.0323 20.0608 26.6208 19.8168 26.367ZM15.8037 29.6216L1.50862 14.7547L4.19615 11.9597L18.4912 26.8266L15.8037 29.6216Z" fill="white"/>
<path d="M27.5 24.6907H18.125V25.9907H25V29.2407C25 29.5997 25.2799 29.8907 25.625 29.8907H27.5C28.8807 29.8907 30.0001 28.7267 30.0001 27.2907C30.0001 25.8547 28.8807 24.6907 27.5 24.6907ZM27.5 28.5907H26.2501V25.9907H27.5C28.1904 25.9907 28.75 26.5727 28.75 27.2907C28.75 28.0087 28.1904 28.5907 27.5 28.5907Z" fill="white"/>
<path d="M27.5 5.19061H24.375V6.4906H27.5C28.1903 6.4906 28.75 7.07261 28.75 7.79058V27.2906H30V7.79058C30 6.35464 28.8807 5.19061 27.5 5.19061Z" fill="white"/>
<path d="M11.4334 18.3803L9.55762 20.3311L10.4418 21.2506L12.3176 19.2998L11.4334 18.3803Z" fill="white"/>
<path d="M8.93438 15.7803L7.05859 17.7311L7.94275 18.6506L9.81854 16.6998L8.93438 15.7803Z" fill="white"/>
<path d="M13.9324 20.9803L12.0566 22.9311L12.9408 23.8506L14.8166 21.8998L13.9324 20.9803Z" fill="white"/>
<path d="M16.4334 23.5817L14.5576 25.5325L15.4418 26.452L17.3176 24.5012L16.4334 23.5817Z" fill="white"/>
<path d="M6.43243 13.1803L4.55664 15.1311L5.4408 16.0506L7.31659 14.0998L6.43243 13.1803Z" fill="white"/>
<path d="M26.9583 1.45251L26.0945 0.554229C25.3637 -0.171356 24.2135 -0.171356 23.4826 0.554229L13.9789 10.4381C13.7349 10.6919 13.7349 11.1034 13.9789 11.3573L16.5708 14.0528C16.6877 14.1752 16.8468 14.2438 17.0126 14.2433C17.1784 14.2432 17.3373 14.1747 17.4545 14.0528L26.9583 4.16887C26.9586 4.16857 26.9589 4.16826 26.9592 4.16796C27.68 3.41787 27.6796 2.20211 26.9583 1.45251ZM26.0752 3.24914L17.0126 12.6741L15.3045 10.8977L24.3671 1.47329C24.6031 1.23874 24.9748 1.23874 25.2108 1.47329L26.0752 2.37096C26.0753 2.37109 26.0754 2.37115 26.0755 2.37127C26.3085 2.61374 26.3083 3.00679 26.0752 3.24914Z" fill="white"/>
<path d="M16.8127 12.9763L14.1152 13.913L15.0159 11.103L13.8283 10.6916L12.5321 14.7352C12.5108 14.8015 12.5 14.8709 12.5 14.9408C12.5001 15.2998 12.78 15.5907 13.1251 15.5906C13.1913 15.5909 13.2571 15.5803 13.3201 15.5594L17.2083 14.2113L16.8127 12.9763Z" fill="white"/>
<path d="M22.6385 2.35004L21.7549 3.26955L24.346 5.96603L25.2296 5.04652L22.6385 2.35004Z" fill="white"/>
<path d="M22.5 14.2906H13.125V15.5914H22.5V14.2906Z" fill="white"/>
<path d="M25 14.2906H23.75V15.5914H25V14.2906Z" fill="white"/>
<path d="M27.5 14.2906H26.25V15.5914H27.5V14.2906Z" fill="white"/>
</g>
<defs>
<clipPath id="clip0">
<rect width="30" height="31.2" fill="white"/>
</clipPath>
</defs>
</svg>
