<svg width="20" height="21" viewBox="0 0 20 21" fill="none" xmlns="http://www.w3.org/2000/svg">
<rect x="0.25" y="0.794678" width="19.5" height="19.5" rx="2.75" fill="#F2F8FE" stroke="#5990FF" stroke-width="0.5"/>
<g clip-path="url(#clip0)">
<path d="M8.97793 15.9011C8.85384 16.0259 8.68454 16.0955 8.50867 16.0955C8.3328 16.0955 8.16349 16.0259 8.0394 15.9011L4.2917 12.1527C3.90277 11.7638 3.90277 11.1331 4.2917 10.7449L4.76097 10.2756C5.15002 9.88663 5.77996 9.88663 6.16889 10.2756L8.50867 12.6155L14.8311 6.29292C15.2201 5.90399 15.8507 5.90399 16.239 6.29292L16.7083 6.76231C17.0972 7.15124 17.0972 7.78179 16.7083 8.17011L8.97793 15.9011Z" fill="#2196F3"/>
</g>
<defs>
<clipPath id="clip0">
<rect width="13" height="13" fill="white" transform="translate(4 4.54468)"/>
</clipPath>
</defs>
</svg>
