<svg width="21" height="20" viewBox="0 0 21 20" fill="none" xmlns="http://www.w3.org/2000/svg">
<path d="M18.5588 17.1547C21.5076 13.7535 21.1457 8.62442 17.8188 5.64758C19.5277 11.6356 15.0091 17.6171 8.78355 17.6171C8.66371 17.6171 9.38699 17.6213 6.53809 17.6038C8.09625 19.1547 10.1716 19.9999 12.3381 19.9999C12.3437 19.9999 19.9727 19.9609 19.9772 19.9609C20.498 19.9584 20.7575 19.3245 20.3859 18.9579L18.5588 17.1547Z" fill="#575E66"/>
<path d="M8.78419 16.4453C13.3179 16.4453 17.0064 12.7566 17.0064 8.22266C17.0064 3.68867 13.318 0 8.78419 0C4.2504 0 0.562 3.68867 0.562 8.22266C0.562 10.2187 1.26856 12.1065 2.56345 13.6001L0.736336 15.4032C0.366023 15.7688 0.622547 16.4037 1.14512 16.4062C1.14915 16.4063 8.7802 16.4453 8.78419 16.4453ZM5.28829 5.3125H12.3191C12.6427 5.3125 12.905 5.57484 12.905 5.89844C12.905 6.22203 12.6427 6.48438 12.3191 6.48438H5.28829C4.96469 6.48438 4.70239 6.22203 4.70239 5.89844C4.70239 5.57484 4.96473 5.3125 5.28829 5.3125ZM5.28829 7.65625H12.3191C12.6427 7.65625 12.905 7.91859 12.905 8.24219C12.905 8.56578 12.6427 8.82812 12.3191 8.82812H5.28829C4.96469 8.82812 4.70239 8.56578 4.70239 8.24219C4.70239 7.91859 4.96473 7.65625 5.28829 7.65625ZM4.70239 10.5859C4.70239 10.2623 4.96469 10 5.28829 10H12.3191C12.6427 10 12.905 10.2623 12.905 10.5859C12.905 10.9095 12.6427 11.1719 12.3191 11.1719H5.28829C4.96473 11.1719 4.70239 10.9095 4.70239 10.5859Z" fill="#575E66"/>
</svg>
