<svg width="25" height="25" viewBox="0 0 25 25" fill="none" xmlns="http://www.w3.org/2000/svg">
<path d="M21.0938 0H3.90625C1.74888 0 0 1.74888 0 3.90625V16.4062C0 18.5636 1.74888 20.3125 3.90625 20.3125H19.2109L23.6641 24.7734C23.8115 24.9197 24.0111 25.0012 24.2188 25C24.6502 25 25 24.6502 25 24.2188V3.90625C25 1.74888 23.2511 0 21.0938 0ZM23.4375 22.3359L20.0859 18.9766C19.9385 18.8303 19.7389 18.7488 19.5312 18.75H3.90625C2.61182 18.75 1.5625 17.7007 1.5625 16.4062V3.90625C1.5625 2.61182 2.61182 1.5625 3.90625 1.5625H21.0938C22.3882 1.5625 23.4375 2.61182 23.4375 3.90625V22.3359Z" fill="white"/>
<path d="M12.5 11.7188C13.3629 11.7188 14.0625 11.0192 14.0625 10.1562C14.0625 9.29331 13.3629 8.59375 12.5 8.59375C11.6371 8.59375 10.9375 9.29331 10.9375 10.1562C10.9375 11.0192 11.6371 11.7188 12.5 11.7188Z" fill="white"/>
<path d="M17.9688 11.7188C18.8317 11.7188 19.5312 11.0192 19.5312 10.1562C19.5312 9.29331 18.8317 8.59375 17.9688 8.59375C17.1058 8.59375 16.4062 9.29331 16.4062 10.1562C16.4062 11.0192 17.1058 11.7188 17.9688 11.7188Z" fill="white"/>
<path d="M7.03125 11.7188C7.8942 11.7188 8.59375 11.0192 8.59375 10.1562C8.59375 9.29331 7.8942 8.59375 7.03125 8.59375C6.16831 8.59375 5.46875 9.29331 5.46875 10.1562C5.46875 11.0192 6.16831 11.7188 7.03125 11.7188Z" fill="white"/>
</svg>
