<svg width="25" height="25" viewBox="0 0 25 25" fill="none" xmlns="http://www.w3.org/2000/svg">
<g clip-path="url(#clip0)">
<path d="M23.5825 8.65077C23.7621 8.8304 24.0495 8.8304 24.224 8.65077L24.8655 8.00925C25.0451 7.82963 25.0451 7.54223 24.8655 7.36773L23.4131 5.91533C23.2335 5.73571 22.9461 5.73571 22.7716 5.91533L22.1301 6.55685C21.9504 6.73648 21.9504 7.02388 22.1301 7.19837L22.1916 7.25996L21.74 7.71159C20.6007 6.80833 19.2201 6.20787 17.7061 6.03337V5.21223H18.204C18.4554 5.21223 18.6556 5.00694 18.6556 4.7606V3.42624C18.6556 3.17476 18.4503 2.97461 18.204 2.97461H15.3197C15.0682 2.97461 14.8681 3.1799 14.8681 3.42624V4.7606C14.8681 5.01207 15.0733 5.21223 15.3197 5.21223H15.8175V6.03337C14.3035 6.213 12.9178 6.81346 11.7836 7.71159L11.332 7.25996L11.3936 7.19837C11.5732 7.01875 11.5732 6.73135 11.3936 6.55685L10.7521 5.91533C10.5725 5.73571 10.285 5.73571 10.1106 5.91533L8.65816 7.36773C8.47853 7.54736 8.47853 7.83476 8.65816 8.00925L9.29968 8.65077C9.4793 8.8304 9.7667 8.8304 9.9412 8.65077L10.0028 8.58918L10.4544 9.04081C9.37666 10.406 8.73514 12.1304 8.73514 13.9985C8.73514 18.4224 12.3379 22.0252 16.7618 22.0252C21.1857 22.0252 24.7885 18.4224 24.7885 13.9985C24.7885 12.1304 24.1419 10.406 23.0692 9.04081L23.5209 8.58918L23.5825 8.65077ZM16.7618 20.1673C13.3643 20.1673 10.5981 17.4011 10.5981 14.0036C10.5981 10.6061 13.3643 7.83989 16.7618 7.83989C20.1593 7.83989 22.9255 10.6061 22.9255 14.0036C22.9255 17.4011 20.1593 20.1673 16.7618 20.1673Z" fill="white"/>
<path d="M3.25837 16.1541C2.81701 16.1541 2.46289 16.5133 2.46289 16.9495C2.46289 17.3909 2.82214 17.745 3.25837 17.745H7.57452C7.66176 17.745 7.73874 17.7296 7.81573 17.704C7.61044 17.2061 7.44108 16.6878 7.32304 16.1489H3.25837V16.1541Z" fill="white"/>
<path d="M7.81114 10.3135C7.73929 10.293 7.65717 10.2725 7.57506 10.2725H0.795484C0.354119 10.2725 0 10.6317 0 11.0679C0 11.5093 0.359251 11.8634 0.795484 11.8634H7.31845C7.43649 11.3399 7.60072 10.8165 7.81114 10.3135Z" fill="white"/>
<path d="M7.0832 14.0037C7.0832 13.7369 7.0986 13.4751 7.11913 13.2134H1.90486C1.46349 13.2134 1.10938 13.5726 1.10938 14.0089C1.10938 14.4451 1.46863 14.8043 1.90486 14.8043H7.114C7.0986 14.5426 7.0832 14.2758 7.0832 14.0037Z" fill="white"/>
<path d="M20.6373 11.7094C20.5039 11.4888 20.2268 11.4015 19.9958 11.5196L17.2193 12.8796C16.8755 12.741 16.4752 12.7564 16.1313 12.9566C15.5514 13.3004 15.3564 14.0497 15.7002 14.6296C16.0441 15.2096 16.7934 15.4046 17.3733 15.0607C17.7171 14.8555 17.9224 14.5116 17.9635 14.1472L20.4936 12.3664C20.7092 12.2175 20.7708 11.9352 20.6373 11.7094ZM17.2758 14.1369C17.1988 14.4243 16.9063 14.5937 16.624 14.5218C16.3366 14.4448 16.1672 14.1523 16.2391 13.87C16.3161 13.5826 16.6086 13.4133 16.8909 13.4851C17.1783 13.557 17.3476 13.8546 17.2758 14.1369Z" fill="white"/>
<path d="M18.496 10.9448C18.7372 11.0834 19.0452 10.9962 19.1786 10.7549C19.3172 10.5137 19.2299 10.2058 18.9887 10.0724C18.7475 9.9338 18.4447 10.021 18.3061 10.2623C18.2137 10.4265 18.224 10.6164 18.3113 10.7652C18.3574 10.8319 18.419 10.8987 18.496 10.9448Z" fill="white"/>
<path d="M16.7305 10.4832C17.0076 10.4832 17.2283 10.2574 17.2283 9.98024C17.2283 9.70311 17.0025 9.48242 16.7254 9.48242C16.4482 9.48242 16.2275 9.70824 16.2275 9.98537C16.2275 10.0778 16.2532 10.165 16.2943 10.2369C16.3815 10.3857 16.5457 10.4884 16.7305 10.4832Z" fill="white"/>
<path d="M16.7976 17.5347C16.5205 17.5398 16.2998 17.7656 16.2998 18.0427C16.2998 18.1351 16.3255 18.2172 16.3665 18.2891C16.4538 18.4379 16.618 18.5406 16.8028 18.5354C17.0799 18.5303 17.3006 18.3045 17.2954 18.0274C17.3006 17.7604 17.0748 17.5347 16.7976 17.5347Z" fill="white"/>
<path d="M18.5532 17.0469C18.3171 17.1854 18.235 17.4934 18.3787 17.7294C18.5173 17.9707 18.8252 18.0476 19.0664 17.9039C19.3025 17.7654 19.3846 17.4574 19.2409 17.2214C19.0972 16.9852 18.7893 16.9083 18.5532 17.0469Z" fill="white"/>
<path d="M20.5131 15.5589C20.2719 15.4254 19.964 15.5075 19.8305 15.7487C19.7382 15.913 19.7484 16.0977 19.8357 16.2517C19.8767 16.3235 19.9434 16.3903 20.0204 16.4313C20.2616 16.5699 20.5696 16.4826 20.703 16.2414C20.8364 16.0002 20.7543 15.6923 20.5131 15.5589Z" fill="white"/>
<path d="M13.2303 14.0496C13.2303 13.7724 12.9993 13.5518 12.7273 13.5518C12.4502 13.5569 12.2295 13.7827 12.2295 14.0598C12.2295 14.1522 12.2552 14.2343 12.2962 14.3062C12.3835 14.455 12.5477 14.5577 12.7324 14.5525C13.0147 14.5525 13.2354 14.3267 13.2303 14.0496Z" fill="white"/>
<path d="M13.0405 15.6303C12.8044 15.7689 12.7223 16.0768 12.866 16.3129C13.0046 16.549 13.3125 16.6311 13.5537 16.4874C13.7898 16.3488 13.8668 16.0409 13.7282 15.7997C13.5845 15.5688 13.2766 15.4867 13.0405 15.6303Z" fill="white"/>
<path d="M20.2872 13.978C20.2872 14.0704 20.3129 14.1525 20.359 14.2295C20.4463 14.3784 20.6105 14.4759 20.7953 14.4759C21.0724 14.4759 21.2931 14.2449 21.2931 13.9729C21.2931 13.6958 21.0673 13.4751 20.7901 13.4751C20.5079 13.4751 20.2821 13.706 20.2872 13.978Z" fill="white"/>
<path d="M13.005 12.4743C13.2462 12.6129 13.5542 12.5256 13.6876 12.2844C13.821 12.0432 13.7389 11.7404 13.4926 11.6018C13.2514 11.4684 12.9486 11.5505 12.81 11.7917C12.7227 11.9508 12.7279 12.1407 12.8151 12.2947C12.8613 12.3665 12.9229 12.4282 13.005 12.4743Z" fill="white"/>
<path d="M14.96 10.9806C14.96 10.9806 14.9651 10.9806 14.9651 10.9755C14.9702 10.9755 14.9702 10.9755 14.9702 10.9704C14.9702 10.9704 14.9702 10.9704 14.9754 10.9704C15.2114 10.8318 15.2884 10.5239 15.1499 10.2878C15.0113 10.0466 14.7034 9.9696 14.4622 10.1082C14.4622 10.1082 14.457 10.1082 14.457 10.1133C14.4519 10.1133 14.4519 10.1184 14.4468 10.1184C14.2107 10.257 14.1286 10.5649 14.2723 10.801C14.416 11.0423 14.7239 11.1193 14.96 10.9806Z" fill="white"/>
<path d="M15.0278 17.0831C14.7866 16.9445 14.4786 17.0318 14.3452 17.273C14.2528 17.4372 14.2631 17.6271 14.3503 17.7759C14.3914 17.8478 14.4581 17.9145 14.5351 17.9607C14.7763 18.0941 15.0842 18.0069 15.2177 17.7708C15.3562 17.5245 15.269 17.2217 15.0278 17.0831Z" fill="white"/>
</g>
<defs>
<clipPath id="clip0">
<rect width="25" height="25" fill="white"/>
</clipPath>
</defs>
</svg>
