<svg width="30" height="30" viewBox="0 0 30 30" fill="none" xmlns="http://www.w3.org/2000/svg">
<path d="M24.633 0H5.36695C2.40762 0 0 2.40762 0 5.36695V24.6331C0 27.5924 2.40762 30 5.36695 30H24.6331C27.5924 30 30 27.5924 30 24.633V5.36695C30 2.40762 27.5924 0 24.633 0ZM28.2422 24.633C28.2422 26.6231 26.6231 28.2422 24.633 28.2422H5.36695C3.37687 28.2422 1.75781 26.6231 1.75781 24.633V5.36695C1.75781 3.37687 3.37687 1.75781 5.36695 1.75781H24.6331C26.6231 1.75781 28.2422 3.37687 28.2422 5.36695V24.633Z" fill="#3980D4"/>
<path d="M25.3564 6.58989H11.97C11.602 5.49682 10.5681 4.70709 9.35252 4.70709C8.13693 4.70709 7.10305 5.49682 6.73502 6.58989H4.64551C4.16012 6.58989 3.7666 6.9834 3.7666 7.46879C3.7666 7.95418 4.16012 8.3477 4.64551 8.3477H6.73508C7.10311 9.44076 8.13699 10.2305 9.35258 10.2305C10.5682 10.2305 11.6021 9.44076 11.9701 8.3477H25.3565C25.8419 8.3477 26.2354 7.95418 26.2354 7.46879C26.2354 6.9834 25.8419 6.58989 25.3564 6.58989ZM9.35252 8.47268C8.79898 8.47268 8.34863 8.02233 8.34863 7.46879C8.34863 6.91526 8.79898 6.46491 9.35252 6.46491C9.90605 6.46491 10.3564 6.91526 10.3564 7.46879C10.3564 8.02233 9.90605 8.47268 9.35252 8.47268Z" fill="#3980D4"/>
<path d="M25.3564 14.1211H23.2668C22.8988 13.028 21.8649 12.2383 20.6493 12.2383C19.4338 12.2383 18.3999 13.028 18.0319 14.1211H4.64551C4.16012 14.1211 3.7666 14.5146 3.7666 15C3.7666 15.4854 4.16012 15.8789 4.64551 15.8789H18.0319C18.3999 16.972 19.4339 17.7617 20.6494 17.7617C21.8649 17.7617 22.8989 16.972 23.2669 15.8789H25.3565C25.8419 15.8789 26.2354 15.4854 26.2354 15C26.2354 14.5146 25.8419 14.1211 25.3564 14.1211ZM20.6494 16.0039C20.0959 16.0039 19.6455 15.5535 19.6455 15C19.6455 14.4465 20.0959 13.9961 20.6494 13.9961C21.2029 13.9961 21.6533 14.4465 21.6533 15C21.6533 15.5535 21.2029 16.0039 20.6494 16.0039Z" fill="#3980D4"/>
<path d="M25.3564 21.6523H15.7357C15.3676 20.5593 14.3337 19.7695 13.1182 19.7695C11.9026 19.7695 10.8687 20.5593 10.5007 21.6523H4.64551C4.16012 21.6523 3.7666 22.0458 3.7666 22.5312C3.7666 23.0166 4.16012 23.4101 4.64551 23.4101H10.5007C10.8687 24.5032 11.9026 25.2929 13.1182 25.2929C14.3337 25.2929 15.3676 24.5032 15.7357 23.4101H25.3565C25.8419 23.4101 26.2354 23.0166 26.2354 22.5312C26.2354 22.0458 25.8419 21.6523 25.3564 21.6523ZM13.1182 23.5352C12.5646 23.5352 12.1143 23.0848 12.1143 22.5313C12.1143 21.9778 12.5646 21.5274 13.1182 21.5274C13.6717 21.5274 14.1221 21.9777 14.1221 22.5312C14.1221 23.0848 13.6717 23.5352 13.1182 23.5352Z" fill="#3980D4"/>
</svg>
