<svg width="21" height="21" viewBox="0 0 21 21" fill="none" xmlns="http://www.w3.org/2000/svg">
<path d="M20.7299 16.4174C20.7299 15.9989 20.5625 15.5804 20.2612 15.279L15.3393 10.3571L20.2612 5.43527C20.5625 5.13393 20.7299 4.7154 20.7299 4.29688C20.7299 3.87835 20.5625 3.45982 20.2612 3.15848L17.9844 0.881695C17.683 0.580356 17.2645 0.412945 16.846 0.412945C16.4275 0.412945 16.0089 0.580356 15.7076 0.881695L10.7857 5.80357L5.86384 0.881695C5.5625 0.580356 5.14397 0.412945 4.72545 0.412945C4.30692 0.412945 3.88839 0.580356 3.58705 0.881695L1.31027 3.15848C1.00893 3.45982 0.841518 3.87835 0.841518 4.29688C0.841518 4.7154 1.00893 5.13393 1.31027 5.43527L6.23214 10.3571L1.31027 15.279C1.00893 15.5804 0.841518 15.9989 0.841518 16.4174C0.841518 16.8359 1.00893 17.2545 1.31027 17.5558L3.58705 19.8326C3.88839 20.1339 4.30692 20.3013 4.72545 20.3013C5.14397 20.3013 5.5625 20.1339 5.86384 19.8326L10.7857 14.9107L15.7076 19.8326C16.0089 20.1339 16.4275 20.3013 16.846 20.3013C17.2645 20.3013 17.683 20.1339 17.9844 19.8326L20.2612 17.5558C20.5625 17.2545 20.7299 16.8359 20.7299 16.4174Z" fill="white"/>
</svg>
