<svg width="15" height="17" viewBox="0 0 15 17" fill="none" xmlns="http://www.w3.org/2000/svg">
<path d="M1.14286 15.6875V13.1161H3.71429V15.6875H1.14286ZM4.28571 15.6875V13.1161H7.14286V15.6875H4.28571ZM1.14286 12.5447V9.68753H3.71429V12.5447H1.14286ZM4.28571 12.5447V9.68753H7.14286V12.5447H4.28571ZM1.14286 9.11611V6.54468H3.71429V9.11611H1.14286ZM7.71429 15.6875V13.1161H10.5714V15.6875H7.71429ZM4.28571 9.11611V6.54468H7.14286V9.11611H4.28571ZM11.1429 15.6875V13.1161H13.7143V15.6875H11.1429ZM7.71429 12.5447V9.68753H10.5714V12.5447H7.71429ZM4.57143 4.83039C4.57143 4.98218 4.4375 5.11611 4.28571 5.11611H3.71429C3.5625 5.11611 3.42857 4.98218 3.42857 4.83039V2.25896C3.42857 2.10718 3.5625 1.97325 3.71429 1.97325H4.28571C4.4375 1.97325 4.57143 2.10718 4.57143 2.25896V4.83039ZM11.1429 12.5447V9.68753H13.7143V12.5447H11.1429ZM7.71429 9.11611V6.54468H10.5714V9.11611H7.71429ZM11.1429 9.11611V6.54468H13.7143V9.11611H11.1429ZM11.4286 4.83039C11.4286 4.98218 11.2946 5.11611 11.1429 5.11611H10.5714C10.4196 5.11611 10.2857 4.98218 10.2857 4.83039V2.25896C10.2857 2.10718 10.4196 1.97325 10.5714 1.97325H11.1429C11.2946 1.97325 11.4286 2.10718 11.4286 2.25896V4.83039ZM14.8571 4.25896C14.8571 3.63396 14.3393 3.11611 13.7143 3.11611H12.5714V2.25896C12.5714 1.47325 11.9286 0.830391 11.1429 0.830391H10.5714C9.78572 0.830391 9.14286 1.47325 9.14286 2.25896V3.11611H5.71429V2.25896C5.71429 1.47325 5.07143 0.830391 4.28571 0.830391H3.71429C2.92857 0.830391 2.28571 1.47325 2.28571 2.25896V3.11611H1.14286C0.517857 3.11611 0 3.63396 0 4.25896V15.6875C0 16.3125 0.517857 16.8304 1.14286 16.8304H13.7143C14.3393 16.8304 14.8571 16.3125 14.8571 15.6875V4.25896Z" fill="#494949"/>
</svg>
