<svg width="24" height="18" viewBox="0 0 24 18" fill="none" xmlns="http://www.w3.org/2000/svg">
<path d="M21.9839 14.8785H21.9629V15.0285C21.9629 15.3596 21.8329 15.6526 21.6084 15.8737C21.3839 16.0948 21.0854 16.2238 20.7472 16.2238H3.60233C3.26413 16.2238 2.96559 16.0948 2.74109 15.8737C2.51665 15.6526 2.38662 15.3596 2.38662 15.0285V4.72168C2.38662 4.39062 2.51665 4.0976 2.74109 3.87651C2.96559 3.65537 3.26413 3.52642 3.60233 3.52642H7.65742C8.05329 3.52642 8.37472 3.21303 8.37472 2.81761V2.21742C8.37472 2.02655 8.44497 1.85917 8.5611 1.74478C8.67739 1.63023 8.84842 1.56026 9.04414 1.56026H15.3264C15.5221 1.56026 15.6931 1.63023 15.8094 1.74478L15.9147 1.63792L15.8094 1.74478C15.9256 1.85917 15.9958 2.02655 15.9958 2.21742V2.81761C15.9958 3.21303 16.3172 3.52642 16.7131 3.52642H20.7682C21.1064 3.52642 21.4049 3.65537 21.6294 3.87651C21.8539 4.0976 21.9839 4.39062 21.9839 4.72168V14.8785ZM22.5964 2.897C22.1269 2.41387 21.4796 2.12951 20.7472 2.12951H17.4065C17.3793 1.61308 17.1591 1.12211 16.7957 0.784405C16.4112 0.406451 15.8911 0.184045 15.3264 0.184045H9.02313C8.43751 0.184045 7.91644 0.406466 7.53115 0.785986C7.17148 1.14028 6.94939 1.61266 6.92199 2.12951H3.60233C2.86924 2.12951 2.22147 2.41436 1.75192 2.89824C1.28564 3.35817 0.973047 4.01599 0.973047 4.72168V15.0285C0.973047 15.7527 1.26314 16.3918 1.75438 16.8544C2.2213 17.3137 2.88808 17.6207 3.60233 17.6207H20.7472C21.4803 17.6207 22.128 17.3358 22.5976 16.852C23.0639 16.392 23.3765 15.7342 23.3765 15.0285V4.72168C23.3765 3.99807 23.0869 3.35944 22.5964 2.897Z" fill="white" stroke="white" stroke-width="0.3"/>
<path d="M16.0586 9.89566L16.0586 9.89853C16.0788 10.9497 15.6362 11.9043 14.9275 12.6027C14.2179 13.2814 13.2461 13.7194 12.1745 13.7194C11.1029 13.7194 10.1311 13.2814 9.42154 12.6027C8.71443 11.9058 8.29045 10.9509 8.29045 9.89566C8.29045 8.8422 8.73418 7.88598 9.42309 7.18705C10.1307 6.49046 11.1012 6.07195 12.1745 6.07195C13.2461 6.07195 14.2179 6.50994 14.9275 7.18858C15.6346 7.88551 16.0586 8.84045 16.0586 9.89566ZM12.1745 4.63365C10.705 4.63365 9.36491 5.22963 8.41338 6.16693C7.44046 7.12528 6.85586 8.42579 6.85586 9.87496C6.85586 11.3246 7.46181 12.6457 8.41338 13.583C9.38625 14.5413 10.7055 15.1163 12.1745 15.1163C13.644 15.1163 14.9841 14.5203 15.9357 13.583C16.9086 12.6247 17.4932 11.3241 17.4932 9.87496C17.4932 8.42534 16.8873 7.10426 15.9357 6.16693C14.9841 5.22963 13.644 4.63365 12.1745 4.63365Z" fill="white" stroke="white" stroke-width="0.3"/>
<path d="M19.6545 6.94201C20.3038 6.94201 20.8341 6.42294 20.8341 5.77789C20.8341 5.13284 20.3038 4.61376 19.6545 4.61376C19.0052 4.61376 18.475 5.13284 18.475 5.77789C18.475 6.42294 19.0052 6.94201 19.6545 6.94201Z" fill="white" stroke="white" stroke-width="0.3"/>
</svg>
