<svg width="66" height="63" viewBox="0 0 66 63" fill="none" xmlns="http://www.w3.org/2000/svg">
<path d="M59.4 13.3947H46.2V6.79473L39.6 0.194733H26.4L19.8 6.79473V13.3947H6.6C2.97 13.3947 0 16.3647 0 19.9947V56.2947C0 59.9247 2.97 62.8947 6.6 62.8947H59.4C63.03 62.8947 66 59.9247 66 56.2947V19.9947C66 16.3647 63.03 13.3947 59.4 13.3947ZM26.4 6.79473H39.6V13.3947H26.4V6.79473ZM28.05 51.3447L16.5 39.7947L21.12 35.1747L28.05 42.1047L45.21 24.9447L49.83 29.5647L28.05 51.3447Z" fill="#3980D4"/>
</svg>
