<svg width="15" height="15" viewBox="0 0 15 15" fill="none" xmlns="http://www.w3.org/2000/svg">
<path d="M8.87424 7.51228L14.7149 1.67141C15.095 1.29148 15.095 0.677197 14.7149 0.297273C14.335 -0.0826521 13.7207 -0.0826521 13.3408 0.297273L7.49992 6.13815L1.65922 0.297273C1.27911 -0.0826521 0.665003 -0.0826521 0.285077 0.297273C-0.0950258 0.677197 -0.0950258 1.29148 0.285077 1.67141L6.12578 7.51228L0.285077 13.3532C-0.0950258 13.7331 -0.0950258 14.3474 0.285077 14.7273C0.474417 14.9168 0.723371 15.012 0.972146 15.012C1.22092 15.012 1.4697 14.9168 1.65922 14.7273L7.49992 8.88642L13.3408 14.7273C13.5303 14.9168 13.7791 15.012 14.0279 15.012C14.2767 15.012 14.5254 14.9168 14.7149 14.7273C15.095 14.3474 15.095 13.7331 14.7149 13.3532L8.87424 7.51228Z" fill="#3980D4"/>
</svg>
