<svg width="30" height="30" viewBox="0 0 30 30" fill="none" xmlns="http://www.w3.org/2000/svg">
<g clip-path="url(#clip0)">
<path d="M8.60156 16.7578C8.27812 16.7578 8.01562 17.0203 8.01562 17.3438C8.01562 17.6672 8.27812 17.9297 8.60156 17.9297C8.925 17.9297 9.1875 17.6672 9.1875 17.3438C9.1875 17.0203 8.925 16.7578 8.60156 16.7578Z" fill="white"/>
<path d="M8.60156 19.1016C8.27795 19.1016 8.01562 19.3639 8.01562 19.6875V27.0703C8.01562 27.3939 8.27795 27.6562 8.60156 27.6562C8.92518 27.6562 9.1875 27.3939 9.1875 27.0703V19.6875C9.1875 19.3639 8.92512 19.1016 8.60156 19.1016Z" fill="white"/>
<path d="M5 6.5625L5.9375 1.5625L9.6875 5.3125L11.5625 12.5H6.875L5 6.5625Z" fill="#F89820"/>
<path d="M12.8125 12.5V0.625L17.1875 0.3125L17.5 12.5H12.8125Z" fill="#F89820"/>
<path d="M20.625 3.4375L24.0625 1.25L25 4.0625L24.375 6.5625L23.125 7.8125L22.1875 12.5L17.8125 12.8125L20.9375 6.5625L20.625 3.4375Z" fill="#F89820"/>
<path d="M24.8553 0.440373C24.807 0.251994 24.6684 0.0998261 24.4853 0.0342597C24.3022 -0.0312481 24.0985 -0.00177547 23.9417 0.113068C23.3562 0.541682 20.4111 2.74639 19.9314 4.06369C19.6462 4.84832 19.711 5.70479 20.0939 6.4303C19.3755 7.46073 18.6315 8.8835 17.9766 10.2736V0.58592C17.9766 0.262307 17.7142 -1.76524e-05 17.3907 -1.76524e-05H12.7032C12.3796 -1.76524e-05 12.1172 0.262307 12.1172 0.58592V12.0703H12.0121L11.0113 8.1768C11.0108 8.17487 11.0103 8.17293 11.0098 8.171L10.0998 4.77549C10.0997 4.77537 10.0997 4.77526 10.0997 4.77514C10.0944 4.75563 10.088 4.73641 10.0807 4.71748C10.0785 4.71168 10.0758 4.70612 10.0734 4.70037C10.0679 4.68719 10.0622 4.67418 10.0557 4.66141C10.0525 4.6552 10.049 4.64922 10.0456 4.64313C10.039 4.63112 10.0321 4.61928 10.0246 4.60774C10.0207 4.60194 10.0168 4.59625 10.0128 4.59057C10.0048 4.57914 9.99637 4.56807 9.98753 4.55717C9.98506 4.55418 9.98307 4.5509 9.98055 4.54797L6.5036 0.451096C6.35805 0.279592 6.12719 0.206584 5.90952 0.263127C5.69184 0.31967 5.52573 0.495861 5.48208 0.716525L4.43149 6.02629C4.43073 6.03022 4.43055 6.0342 4.42985 6.03807C4.42715 6.05336 4.42493 6.06866 4.42346 6.08401C4.42282 6.09051 4.42241 6.09701 4.422 6.10352C4.42112 6.11817 4.42077 6.1327 4.42094 6.14729C4.421 6.15408 4.42106 6.16088 4.42141 6.16768C4.42211 6.18262 4.42358 6.19744 4.42545 6.21227C4.42622 6.21836 4.42668 6.2244 4.42762 6.23043C4.43084 6.25112 4.43495 6.27156 4.44034 6.29178L5.34924 9.68389L5.95897 12.096C5.60331 12.1566 5.27547 12.3248 5.01502 12.5852C4.68297 12.9173 4.50004 13.3587 4.50004 13.828C4.50004 14.5919 4.98995 15.2432 5.67192 15.4851V27.0703C5.67192 28.6857 6.98618 30 8.60161 30H20.3204C21.9358 30 23.25 28.6857 23.25 27.0703V15.4861C23.4943 15.3999 23.7183 15.2596 23.9069 15.0709C24.2391 14.7388 24.4219 14.2974 24.4219 13.8281C24.4219 12.9719 23.8065 12.2572 22.9948 12.1019C23.377 10.549 23.6464 9.00567 23.7459 7.79477C24.5281 7.49225 25.1451 6.87121 25.4378 6.06742C25.9184 4.74754 25.0369 1.14848 24.8553 0.440373ZM20.8735 7.36844C21.1158 7.55905 21.388 7.71133 21.6826 7.81856C21.9642 7.92104 22.2569 7.97916 22.5512 7.99264C22.4337 9.16088 22.1645 10.6154 21.7947 12.0703H18.4452C19.34 10.0427 20.1665 8.44287 20.8735 7.36844ZM13.2891 1.17186H16.8047V2.51951H15.6329C15.3093 2.51951 15.0469 2.78184 15.0469 3.10545C15.0469 3.42906 15.3093 3.69139 15.6329 3.69139H16.8047V4.86326H15.6329C15.3093 4.86326 15.0469 5.12559 15.0469 5.4492C15.0469 5.77282 15.3093 6.03514 15.6329 6.03514H16.8047V7.20701H15.6329C15.3093 7.20701 15.0469 7.46934 15.0469 7.79295C15.0469 8.11656 15.3093 8.37889 15.6329 8.37889H16.8047V9.55076H15.6329C15.3093 9.55076 15.0469 9.81309 15.0469 10.1367C15.0469 10.4603 15.3093 10.7226 15.6329 10.7226H16.8047V12.0703H13.2891V1.17186ZM6.3959 2.13531L8.79983 4.96785C8.43848 5.42436 7.94231 5.75178 7.36956 5.90518C6.79903 6.05805 6.20811 6.02336 5.6687 5.81084L6.3959 2.13531ZM5.86721 7.08948C6.12678 7.14385 6.39116 7.17168 6.657 7.17168C6.99573 7.17168 7.3368 7.12715 7.67278 7.03715C8.27266 6.87649 8.81301 6.58141 9.26266 6.17893L9.87708 8.47153L10.8021 12.0703H7.16114L6.48426 9.3925C6.48362 9.38981 6.48292 9.38711 6.48215 9.38448L5.86721 7.08948ZM22.0782 27.0703C22.0782 28.0396 21.2896 28.8281 20.3204 28.8281H8.60161C7.63235 28.8281 6.84379 28.0396 6.84379 27.0703V15.5859H22.0782V27.0703ZM23.25 13.8281C23.25 13.9844 23.1891 14.1316 23.0783 14.2422C22.9675 14.3531 22.8204 14.414 22.6641 14.414H6.25786C5.93477 14.414 5.67192 14.1512 5.67192 13.8281C5.67192 13.6718 5.73292 13.5247 5.84366 13.414C5.95446 13.3032 6.10153 13.2422 6.25786 13.2422H11.5539C11.555 13.2422 11.5561 13.2423 11.5573 13.2423C11.558 13.2423 11.5588 13.2422 11.5595 13.2422H17.5492C17.5502 13.2422 17.5512 13.2423 17.5521 13.2423C17.5527 13.2423 17.5534 13.2422 17.5541 13.2422H22.2457C22.2464 13.2422 22.2472 13.2423 22.2479 13.2423C22.249 13.2423 22.2501 13.2422 22.2513 13.2422H22.6642C22.9871 13.2422 23.25 13.505 23.25 13.8281ZM24.3366 5.66653C24.1298 6.23442 23.6534 6.65143 23.0609 6.78221C22.7367 6.85451 22.3987 6.83207 22.0834 6.7174C21.7568 6.59846 21.4756 6.38811 21.2704 6.10926C21.2703 6.10914 21.2702 6.10903 21.2702 6.10891C20.9199 5.63354 20.8312 5.01865 21.0326 4.46442C21.2522 3.86137 22.6815 2.57547 23.9254 1.59737C24.2676 3.15233 24.5557 5.06459 24.3366 5.66653Z" fill="white"/>
</g>
<defs>
<clipPath id="clip0">
<rect width="30" height="30" fill="white"/>
</clipPath>
</defs>
</svg>
