<svg width="16" height="16" viewBox="0 0 16 16" fill="none" xmlns="http://www.w3.org/2000/svg">
<path d="M8 0C3.58862 0 0 3.58862 0 8C0 12.4114 3.58862 16 8 16C12.4114 16 16 12.4114 16 8C16 3.58862 12.4114 0 8 0Z" fill="#A485B6"/>
<path d="M10.667 11.3334H5.33374C4.9657 11.3334 4.66699 11.0347 4.66699 10.6666C4.66699 10.2987 4.9657 10 5.33374 10H10.667C11.035 10 11.3337 10.2987 11.3337 10.6666C11.3337 11.0347 11.035 11.3334 10.667 11.3334Z" fill="#FAFAFA"/>
<path d="M10.667 8.66663H5.33374C4.9657 8.66663 4.66699 8.36804 4.66699 8C4.66699 7.63196 4.9657 7.33337 5.33374 7.33337H10.667C11.035 7.33337 11.3337 7.63196 11.3337 8C11.3337 8.36804 11.035 8.66663 10.667 8.66663Z" fill="#FAFAFA"/>
<path d="M10.667 6H5.33374C4.9657 6 4.66699 5.70129 4.66699 5.33337C4.66699 4.96533 4.9657 4.66663 5.33374 4.66663H10.667C11.035 4.66663 11.3337 4.96533 11.3337 5.33337C11.3337 5.70129 11.035 6 10.667 6Z" fill="#FAFAFA"/>
</svg>
