<svg width="16" height="16" viewBox="0 0 16 16" fill="none" xmlns="http://www.w3.org/2000/svg">
<path d="M8 0C3.58862 0 0 3.58862 0 8C0 12.4114 3.58862 16 8 16C12.4114 16 16 12.4114 16 8C16 3.58862 12.4114 0 8 0Z" fill="#3980D4"/>
<path d="M12.0542 6.30469L7.72083 10.6379C7.59082 10.7679 7.42017 10.8334 7.24951 10.8334C7.07886 10.8334 6.9082 10.7679 6.7782 10.6379L4.61157 8.47131C4.35083 8.21069 4.35083 7.78931 4.61157 7.52869C4.87219 7.26794 5.29346 7.26794 5.5542 7.52869L7.24951 9.224L11.1116 5.36206C11.3722 5.10132 11.7935 5.10132 12.0542 5.36206C12.3148 5.62268 12.3148 6.04395 12.0542 6.30469Z" fill="#FAFAFA"/>
</svg>
