<svg width="30" height="30" viewBox="0 0 30 30" fill="none" xmlns="http://www.w3.org/2000/svg">
<path d="M10 21.5H9C8.72387 21.5 8.5 21.7239 8.5 22C8.5 22.2761 8.72387 22.5 9 22.5H10C10.2761 22.5 10.5 22.2761 10.5 22C10.5 21.7239 10.2761 21.5 10 21.5Z" fill="#525252"/>
<path d="M24 21.5H12C11.7239 21.5 11.5 21.7239 11.5 22C11.5 22.2761 11.7239 22.5 12 22.5H24C24.2761 22.5 24.5 22.2761 24.5 22C24.5 21.7239 24.2761 21.5 24 21.5Z" fill="#525252"/>
<path d="M10 18.5H9C8.72387 18.5 8.5 18.7239 8.5 19C8.5 19.2761 8.72387 19.5 9 19.5H10C10.2761 19.5 10.5 19.2761 10.5 19C10.5 18.7239 10.2761 18.5 10 18.5Z" fill="#525252"/>
<path d="M24 18.5H12C11.7239 18.5 11.5 18.7239 11.5 19C11.5 19.2761 11.7239 19.5 12 19.5H24C24.2761 19.5 24.5 19.2761 24.5 19C24.5 18.7239 24.2761 18.5 24 18.5Z" fill="#525252"/>
<path d="M10 15.5H9C8.72387 15.5 8.5 15.7239 8.5 16C8.5 16.2761 8.72387 16.5 9 16.5H10C10.2761 16.5 10.5 16.2761 10.5 16C10.5 15.7239 10.2761 15.5 10 15.5Z" fill="#525252"/>
<path d="M24 15.5H12C11.7239 15.5 11.5 15.7239 11.5 16C11.5 16.2761 11.7239 16.5 12 16.5H24C24.2761 16.5 24.5 16.2761 24.5 16C24.5 15.7239 24.2761 15.5 24 15.5Z" fill="#525252"/>
<path d="M10 12.5H9C8.72387 12.5 8.5 12.7239 8.5 13C8.5 13.2761 8.72387 13.5 9 13.5H10C10.2761 13.5 10.5 13.2761 10.5 13C10.5 12.7239 10.2761 12.5 10 12.5Z" fill="#525252"/>
<path d="M24 12.5H12C11.7239 12.5 11.5 12.7239 11.5 13C11.5 13.2761 11.7239 13.5 12 13.5H24C24.2761 13.5 24.5 13.2761 24.5 13C24.5 12.7239 24.2761 12.5 24 12.5Z" fill="#525252"/>
<path d="M10 9.5H9C8.72387 9.5 8.5 9.72387 8.5 10C8.5 10.2761 8.72387 10.5 9 10.5H10C10.2761 10.5 10.5 10.2761 10.5 10C10.5 9.72387 10.2761 9.5 10 9.5Z" fill="#525252"/>
<path d="M24 9.5H12C11.7239 9.5 11.5 9.72387 11.5 10C11.5 10.2761 11.7239 10.5 12 10.5H24C24.2761 10.5 24.5 10.2761 24.5 10C24.5 9.72387 24.2761 9.5 24 9.5Z" fill="#525252"/>
<path d="M27.4935 7.4685C27.491 7.42469 27.4824 7.38144 27.468 7.34C27.4625 7.324 27.4585 7.3085 27.4515 7.293C27.4272 7.23863 27.3933 7.189 27.3515 7.1465L20.3515 0.1465C20.309 0.104688 20.2594 0.0708125 20.205 0.0465C20.1895 0.0395 20.174 0.0355 20.1585 0.03C20.1167 0.015625 20.0731 0.006875 20.029 0.004C20.0205 0.0055 20.011 0 20 0H6C5.72388 0 5.5 0.223875 5.5 0.5V2H3C2.72387 2 2.5 2.22388 2.5 2.5V29.5C2.5 29.7761 2.72387 30 3 30H24C24.2761 30 24.5 29.7761 24.5 29.5V27H27C27.2761 27 27.5 26.7761 27.5 26.5V7.5C27.5 7.489 27.4945 7.4795 27.4935 7.4685ZM20.5 1.707L25.793 7H20.5V1.707ZM23.5 29H3.5V3H5.5V26.5C5.5 26.7761 5.72388 27 6 27H23.5V29ZM26.5 26H6.5V1H19.5V7.5C19.5 7.77612 19.7239 8 20 8H26.5V26Z" fill="#525252"/>
<path d="M12 4.5H9C8.72387 4.5 8.5 4.72387 8.5 5V8C8.5 8.27612 8.72387 8.5 9 8.5H12C12.2761 8.5 12.5 8.27612 12.5 8V5C12.5 4.72387 12.2761 4.5 12 4.5ZM11.5 7.5H9.5V5.5H11.5V7.5Z" fill="#525252"/>
</svg>
