<svg width="30" height="30" viewBox="0 0 30 30" fill="none" xmlns="http://www.w3.org/2000/svg">
<g clip-path="url(#clip0)">
<path d="M8.60156 16.7578C8.27812 16.7578 8.01562 17.0203 8.01562 17.3438C8.01562 17.6672 8.27812 17.9297 8.60156 17.9297C8.925 17.9297 9.1875 17.6672 9.1875 17.3438C9.1875 17.0203 8.925 16.7578 8.60156 16.7578Z" fill="#363636"/>
<path d="M8.60156 19.1016C8.27795 19.1016 8.01562 19.3639 8.01562 19.6875V27.0703C8.01562 27.3939 8.27795 27.6562 8.60156 27.6562C8.92518 27.6562 9.1875 27.3939 9.1875 27.0703V19.6875C9.1875 19.3639 8.92512 19.1016 8.60156 19.1016Z" fill="#363636"/>
<path d="M5 6.5625L5.9375 1.5625L9.6875 5.3125L11.5625 12.5H6.875L5 6.5625Z" fill="#F89820"/>
<path d="M12.8125 12.5V0.625L17.1875 0.3125L17.5 12.5H12.8125Z" fill="#F89820"/>
<path d="M20.625 3.4375L24.0625 1.25L25 4.0625L24.375 6.5625L23.125 7.8125L22.1875 12.5L17.8125 12.8125L20.9375 6.5625L20.625 3.4375Z" fill="#F89820"/>
<path d="M24.8553 0.440404C24.807 0.252025 24.6684 0.0998566 24.4853 0.0342902C24.3022 -0.0312176 24.0985 -0.00174495 23.9417 0.113099C23.3562 0.541712 20.4111 2.74642 19.9314 4.06372C19.6462 4.84835 19.711 5.70482 20.0939 6.43033C19.3755 7.46076 18.6315 8.88353 17.9766 10.2737V0.58595C17.9766 0.262337 17.7142 1.28652e-05 17.3907 1.28652e-05H12.7032C12.3796 1.28652e-05 12.1172 0.262337 12.1172 0.58595V12.0703H12.0121L11.0113 8.17683C11.0108 8.1749 11.0103 8.17296 11.0098 8.17103L10.0998 4.77552C10.0997 4.7754 10.0997 4.77529 10.0997 4.77517C10.0944 4.75566 10.088 4.73644 10.0807 4.71751C10.0785 4.71171 10.0758 4.70615 10.0734 4.7004C10.0679 4.68722 10.0622 4.67421 10.0557 4.66144C10.0525 4.65523 10.049 4.64925 10.0456 4.64316C10.039 4.63115 10.0321 4.61931 10.0246 4.60777C10.0207 4.60197 10.0168 4.59628 10.0128 4.5906C10.0048 4.57917 9.99637 4.5681 9.98753 4.5572C9.98506 4.55421 9.98307 4.55093 9.98055 4.548L6.5036 0.451126C6.35805 0.279622 6.12719 0.206614 5.90952 0.263157C5.69184 0.3197 5.52573 0.495892 5.48208 0.716556L4.43149 6.02632C4.43073 6.03025 4.43055 6.03423 4.42985 6.0381C4.42715 6.05339 4.42493 6.06869 4.42346 6.08404C4.42282 6.09054 4.42241 6.09704 4.422 6.10355C4.42112 6.1182 4.42077 6.13273 4.42094 6.14732C4.421 6.15412 4.42106 6.16091 4.42141 6.16771C4.42211 6.18265 4.42358 6.19747 4.42545 6.2123C4.42622 6.21839 4.42668 6.22443 4.42762 6.23046C4.43084 6.25115 4.43495 6.2716 4.44034 6.29181L5.34924 9.68392L5.95897 12.096C5.60331 12.1566 5.27547 12.3248 5.01502 12.5852C4.68297 12.9174 4.50004 13.3587 4.50004 13.8281C4.50004 14.5919 4.98995 15.2432 5.67192 15.4851V27.0703C5.67192 28.6858 6.98618 30 8.60161 30H20.3204C21.9358 30 23.25 28.6858 23.25 27.0703V15.4861C23.4943 15.3999 23.7183 15.2596 23.9069 15.071C24.2391 14.7389 24.4219 14.2975 24.4219 13.8281C24.4219 12.972 23.8065 12.2572 22.9948 12.102C23.377 10.549 23.6464 9.0057 23.7459 7.7948C24.5281 7.49228 25.1451 6.87124 25.4378 6.06746C25.9184 4.74757 25.0369 1.14851 24.8553 0.440404ZM20.8735 7.36847C21.1158 7.55908 21.388 7.71136 21.6826 7.81859C21.9642 7.92107 22.2569 7.97919 22.5512 7.99267C22.4337 9.16091 22.1645 10.6154 21.7947 12.0703H18.4452C19.34 10.0427 20.1665 8.4429 20.8735 7.36847ZM13.2891 1.17189H16.8047V2.51954H15.6329C15.3093 2.51954 15.0469 2.78187 15.0469 3.10548C15.0469 3.4291 15.3093 3.69142 15.6329 3.69142H16.8047V4.86329H15.6329C15.3093 4.86329 15.0469 5.12562 15.0469 5.44923C15.0469 5.77285 15.3093 6.03517 15.6329 6.03517H16.8047V7.20705H15.6329C15.3093 7.20705 15.0469 7.46937 15.0469 7.79298C15.0469 8.1166 15.3093 8.37892 15.6329 8.37892H16.8047V9.55079H15.6329C15.3093 9.55079 15.0469 9.81312 15.0469 10.1367C15.0469 10.4603 15.3093 10.7227 15.6329 10.7227H16.8047V12.0703H13.2891V1.17189ZM6.3959 2.13535L8.79983 4.96789C8.43848 5.42439 7.94231 5.75181 7.36956 5.90521C6.79903 6.05808 6.20811 6.02339 5.6687 5.81087L6.3959 2.13535ZM5.86721 7.08951C6.12678 7.14388 6.39116 7.17171 6.657 7.17171C6.99573 7.17171 7.3368 7.12718 7.67278 7.03718C8.27266 6.87652 8.81301 6.58144 9.26266 6.17896L9.87708 8.47156L10.8021 12.0703H7.16114L6.48426 9.39253C6.48362 9.38984 6.48292 9.38714 6.48215 9.38451L5.86721 7.08951ZM22.0782 27.0703C22.0782 28.0396 21.2896 28.8281 20.3204 28.8281H8.60161C7.63235 28.8281 6.84379 28.0396 6.84379 27.0703V15.586H22.0782V27.0703ZM23.25 13.8281C23.25 13.9845 23.1891 14.1316 23.0783 14.2423C22.9675 14.3531 22.8204 14.4141 22.6641 14.4141H6.25786C5.93477 14.4141 5.67192 14.1512 5.67192 13.8281C5.67192 13.6718 5.73292 13.5247 5.84366 13.414C5.95446 13.3032 6.10153 13.2422 6.25786 13.2422H11.5539C11.555 13.2422 11.5561 13.2423 11.5573 13.2423C11.558 13.2423 11.5588 13.2422 11.5595 13.2422H17.5492C17.5502 13.2422 17.5512 13.2423 17.5521 13.2423C17.5527 13.2423 17.5534 13.2422 17.5541 13.2422H22.2457C22.2464 13.2422 22.2472 13.2423 22.2479 13.2423C22.249 13.2423 22.2501 13.2422 22.2513 13.2422H22.6642C22.9871 13.2422 23.25 13.5051 23.25 13.8281ZM24.3366 5.66656C24.1298 6.23445 23.6534 6.65146 23.0609 6.78224C22.7367 6.85455 22.3987 6.8321 22.0834 6.71744C21.7568 6.59849 21.4756 6.38814 21.2704 6.10929C21.2703 6.10917 21.2702 6.10906 21.2702 6.10894C20.9199 5.63357 20.8312 5.01869 21.0326 4.46445C21.2522 3.8614 22.6815 2.5755 23.9254 1.5974C24.2676 3.15236 24.5557 5.06462 24.3366 5.66656Z" fill="#363636"/>
</g>
<defs>
<clipPath id="clip0">
<rect width="30" height="30" fill="white"/>
</clipPath>
</defs>
</svg>
