<svg width="17" height="11" viewBox="0 0 17 11" fill="none" xmlns="http://www.w3.org/2000/svg">
<path d="M15.7857 5.53571C14.1635 8.04018 11.5452 9.78571 8.5 9.78571C5.4548 9.78571 2.8365 8.04018 1.21429 5.53571C2.11551 4.14118 3.34877 2.94587 4.82868 2.18694C4.44922 2.83203 4.25 3.57199 4.25 4.32143C4.25 6.66462 6.15681 8.57143 8.5 8.57143C10.8432 8.57143 12.75 6.66462 12.75 4.32143C12.75 3.57199 12.5508 2.83203 12.1713 2.18694C13.6512 2.94587 14.8845 4.14118 15.7857 5.53571ZM8.95536 1.89286C8.95536 2.13951 8.74665 2.34821 8.5 2.34821C7.41853 2.34821 6.52679 3.23996 6.52679 4.32143C6.52679 4.56808 6.31808 4.77679 6.07143 4.77679C5.82478 4.77679 5.61607 4.56808 5.61607 4.32143C5.61607 2.73717 6.91574 1.4375 8.5 1.4375C8.74665 1.4375 8.95536 1.64621 8.95536 1.89286ZM17 5.53571C17 5.29855 16.9241 5.08036 16.8103 4.88114C15.0647 2.01618 11.8677 0.0714277 8.5 0.0714277C5.13225 0.0714277 1.93527 2.01618 0.189732 4.88114C0.0758929 5.08036 0 5.29855 0 5.53571C0 5.77288 0.0758929 5.99107 0.189732 6.19029C1.93527 9.05525 5.13225 11 8.5 11C11.8677 11 15.0647 9.06473 16.8103 6.19029C16.9241 5.99107 17 5.77288 17 5.53571Z" fill="white"/>
</svg>
