<svg width="17" height="14" viewBox="0 0 17 14" fill="none" xmlns="http://www.w3.org/2000/svg">
<path d="M5.26507 10.6379L6.00502 9.30029C5.4548 8.90185 5.02474 8.39906 4.71484 7.79192C4.40495 7.18477 4.25 6.54285 4.25 5.86614C4.25 5.10088 4.44289 4.38939 4.82868 3.73165C3.38039 4.47161 2.1756 5.58786 1.21429 7.08042C2.27046 8.71212 3.62072 9.89794 5.26507 10.6379ZM8.82254 3.76011C8.91109 3.67157 8.95536 3.56405 8.95536 3.43756C8.95536 3.31108 8.91109 3.20356 8.82254 3.11502C8.734 3.02648 8.62649 2.98221 8.5 2.98221C7.70945 2.98221 7.02958 3.26681 6.46038 3.836C5.89751 4.39887 5.61607 5.07559 5.61607 5.86614C5.61607 5.99262 5.66034 6.10014 5.74888 6.18868C5.83743 6.27722 5.94494 6.32149 6.07143 6.32149C6.19792 6.32149 6.30543 6.27722 6.39397 6.18868C6.48252 6.10014 6.52679 5.99262 6.52679 5.86614C6.52679 5.32224 6.71968 4.85739 7.10547 4.47161C7.49126 4.08582 7.9561 3.89292 8.5 3.89292C8.62649 3.89292 8.734 3.84865 8.82254 3.76011ZM12.399 1.62562C12.399 1.66989 12.3958 1.69835 12.3895 1.711C11.7191 2.90631 10.7199 4.69928 9.39174 7.08991C8.06362 9.48053 7.06752 11.2703 6.40346 12.4593L5.93862 13.3036C5.87537 13.4048 5.78683 13.4554 5.67299 13.4554C5.5971 13.4554 5.17336 13.2341 4.40179 12.7914C4.3006 12.7281 4.25 12.6396 4.25 12.5257C4.25 12.4498 4.38914 12.1747 4.66741 11.7004C3.76302 11.2893 2.9282 10.7423 2.16295 10.0592C1.40402 9.37618 0.74628 8.60144 0.189732 7.735C0.063244 7.53894 0 7.32075 0 7.08042C0 6.84009 0.063244 6.6219 0.189732 6.42585C1.15737 4.93961 2.359 3.76643 3.79464 2.90631C5.23028 2.0462 6.79874 1.61614 8.5 1.61614C9.06287 1.61614 9.63207 1.66989 10.2076 1.77741L10.7199 0.857207C10.7831 0.756017 10.8717 0.705422 10.9855 0.705422C11.0171 0.705422 11.074 0.724395 11.1562 0.762342C11.2385 0.800288 11.3365 0.850883 11.4503 0.914127C11.5642 0.971047 11.6685 1.02797 11.7634 1.08489C11.8583 1.14181 11.9563 1.20189 12.0575 1.26513C12.165 1.32205 12.2282 1.35684 12.2472 1.36948C12.3484 1.43273 12.399 1.51811 12.399 1.62562ZM12.75 5.86614C12.75 6.74523 12.5002 7.54843 12.0006 8.27573C11.5009 8.99672 10.84 9.51532 10.0179 9.83154L12.6741 5.06926C12.7247 5.35386 12.75 5.61948 12.75 5.86614ZM16.8103 6.42585C16.9368 6.64088 17 6.85907 17 7.08042C17 7.30178 16.9368 7.51997 16.8103 7.735C16.5636 8.13976 16.2189 8.59828 15.7762 9.11056C14.8276 10.1984 13.7271 11.0427 12.4749 11.6435C11.229 12.2443 9.90402 12.5447 8.5 12.5447L9.20201 11.2925C10.5428 11.1786 11.7824 10.7454 12.9208 9.99281C14.0655 9.24021 15.0205 8.26941 15.7857 7.08042C15.0584 5.94835 14.1667 5.01867 13.1105 4.29136L13.7081 3.22886C14.309 3.63362 14.8845 4.11744 15.4347 4.68031C15.9913 5.24318 16.4498 5.82503 16.8103 6.42585Z" fill="#3980D4"/>
</svg>
