<svg width="20" height="21" viewBox="0 0 20 21" fill="none" xmlns="http://www.w3.org/2000/svg">
<path d="M13.2573 10.6472L19.9998 14.9097V6.20471L13.2573 10.6472Z" fill="#304962"/>
<path d="M0 6.20471V14.9097L6.7425 10.6472L0 6.20471Z" fill="#304962"/>
<path d="M18.7501 3.66971H1.2501C0.626348 3.66971 0.131348 4.13471 0.0375977 4.73346L10.0001 11.2972L19.9626 4.73346C19.8688 4.13471 19.3738 3.66971 18.7501 3.66971Z" fill="#304962"/>
<path d="M12.1125 11.4022L10.3438 12.5672C10.2388 12.6359 10.12 12.6697 10 12.6697C9.88004 12.6697 9.76129 12.6359 9.65629 12.5672L7.88754 11.4009L0.0400391 16.3647C0.136289 16.9584 0.628789 17.4197 1.25004 17.4197H18.75C19.3713 17.4197 19.8638 16.9584 19.96 16.3647L12.1125 11.4022Z" fill="#304962"/>
</svg>
