<svg width="16" height="16" viewBox="0 0 16 16" fill="none" xmlns="http://www.w3.org/2000/svg">
<path d="M8 0C3.58862 0 0 3.58862 0 8C0 12.4114 3.58862 16 8 16C12.4114 16 16 12.4114 16 8C16 3.58862 12.4114 0 8 0Z" fill="#F8971C"/>
<path d="M11.4996 8.66663H8.66626V11.5C8.66626 11.868 8.36768 12.1666 7.99963 12.1666C7.63159 12.1666 7.33301 11.868 7.33301 11.5V8.66663H4.49963C4.13159 8.66663 3.83301 8.36804 3.83301 8C3.83301 7.63196 4.13159 7.33337 4.49963 7.33337H7.33301V4.5C7.33301 4.13196 7.63159 3.83337 7.99963 3.83337C8.36768 3.83337 8.66626 4.13196 8.66626 4.5V7.33337H11.4996C11.8677 7.33337 12.1663 7.63196 12.1663 8C12.1663 8.36804 11.8677 8.66663 11.4996 8.66663Z" fill="#FAFAFA"/>
</svg>
