<svg width="25" height="25" viewBox="0 0 25 25" fill="none" xmlns="http://www.w3.org/2000/svg">
<path d="M12.5 0C5.60761 0 0 5.60761 0 12.5C0 19.3924 5.60761 25 12.5 25C19.3924 25 25 19.3924 25 12.5C25 5.60761 19.3924 0 12.5 0ZM12.5 23.913C6.20652 23.913 1.08696 18.7935 1.08696 12.5C1.08696 6.20652 6.20652 1.08696 12.5 1.08696C18.7935 1.08696 23.913 6.20652 23.913 12.5C23.913 18.7935 18.7935 23.913 12.5 23.913Z" fill="#525252"/>
<path d="M9.78235 10.3261C9.78235 9.42717 9.05083 8.69565 8.15192 8.69565C7.25301 8.69565 6.52148 9.42717 6.52148 10.3261C6.52148 11.225 7.25301 11.9565 8.15192 11.9565C9.05083 11.9565 9.78235 11.225 9.78235 10.3261ZM7.60844 10.3261C7.60844 10.0266 7.85246 9.78261 8.15192 9.78261C8.45138 9.78261 8.6954 10.0266 8.6954 10.3261C8.6954 10.6255 8.45138 10.8696 8.15192 10.8696C7.85246 10.8696 7.60844 10.6255 7.60844 10.3261Z" fill="#525252"/>
<path d="M16.8472 8.69565C15.9483 8.69565 15.2168 9.42717 15.2168 10.3261C15.2168 11.225 15.9483 11.9565 16.8472 11.9565C17.7461 11.9565 18.4777 11.225 18.4777 10.3261C18.4777 9.42717 17.7461 8.69565 16.8472 8.69565ZM16.8472 10.8696C16.5478 10.8696 16.3037 10.6255 16.3037 10.3261C16.3037 10.0266 16.5478 9.78261 16.8472 9.78261C17.1467 9.78261 17.3907 10.0266 17.3907 10.3261C17.3907 10.6255 17.1467 10.8696 16.8472 10.8696Z" fill="#525252"/>
<path d="M17.7531 15.356C17.5291 15.1554 17.1851 15.175 16.9857 15.3984C15.852 16.6652 14.2172 17.3913 12.4992 17.3913C10.7819 17.3913 9.14652 16.6652 8.01283 15.3984C7.81228 15.175 7.46935 15.1554 7.24544 15.356C7.02152 15.556 7.00304 15.8995 7.20304 16.1234C8.54272 17.6201 10.4732 18.4783 12.4992 18.4783C14.5259 18.4783 16.4563 17.6196 17.7954 16.1234C17.9954 15.8995 17.9764 15.556 17.7531 15.356Z" fill="#525252"/>
</svg>
