<svg width="50" height="50" viewBox="0 0 50 50" fill="none" xmlns="http://www.w3.org/2000/svg">
<path d="M14.4036 13.6751V12.8663C14.4036 12.4617 14.0756 12.1339 13.6711 12.1339C13.2667 12.1339 12.9387 12.4617 12.9387 12.8663V13.6751C12.9387 14.0797 13.2667 14.4075 13.6711 14.4075C14.0756 14.4075 14.4036 14.0797 14.4036 13.6751Z" fill="#F89820"/>
<path d="M20.1409 14.4075C20.5454 14.4075 20.8733 14.0797 20.8733 13.6751V12.8663C20.8733 12.4617 20.5454 12.1339 20.1409 12.1339C19.7364 12.1339 19.4084 12.4617 19.4084 12.8663V13.6751C19.4084 14.0797 19.7364 14.4075 20.1409 14.4075Z" fill="#F89820"/>
<path d="M19.641 18.2891C19.8436 17.9389 19.7239 17.4908 19.3738 17.2883C19.0238 17.086 18.5756 17.2053 18.3731 17.5555C18.0707 18.0781 17.5084 18.4028 16.9058 18.4028C16.303 18.4028 15.7407 18.0781 15.4383 17.5553C15.2358 17.2051 14.7878 17.0856 14.4376 17.288C14.0874 17.4905 13.9678 17.9386 14.1703 18.2887C14.7337 19.2627 15.7819 19.8677 16.9058 19.8677C18.0297 19.8677 19.0778 19.2628 19.641 18.2891Z" fill="#F89820"/>
<path d="M50 26.6178C50 25.3218 48.9459 24.2676 47.6502 24.2676H29.6893C29.2848 24.2676 28.9568 24.5954 28.9568 25C28.9568 25.4046 29.2848 25.7324 29.6893 25.7324H47.6502C48.1382 25.7324 48.5352 26.1296 48.5352 26.6178V44.4133C48.5352 44.9016 48.1382 45.2987 47.6502 45.2987H25.0068C24.5188 45.2987 24.1219 44.9016 24.1219 44.4133V26.6178C24.1219 26.1296 24.5189 25.7324 25.0068 25.7324H26.7595C27.164 25.7324 27.4919 25.4046 27.4919 25C27.4919 24.5954 27.164 24.2676 26.7595 24.2676H25.0068C23.7111 24.2676 22.657 25.3219 22.657 26.6178V28.13L21.6819 27.7397V24.3239C23.9198 22.8764 25.4635 20.4434 25.6947 17.6436H26.6104C27.9061 17.6436 28.9602 16.5893 28.9602 15.2934V12.0575C28.9602 10.7615 27.9061 9.70723 26.6104 9.70723H25.7254V4.77705C25.7254 2.14297 23.5829 0 20.9495 0H12.8627C10.2292 0 8.08672 2.14297 8.08672 4.77705V9.70713H7.20176C5.90605 9.70713 4.85195 10.7614 4.85195 12.0573V15.2931C4.85195 16.5891 5.90605 17.6434 7.20176 17.6434H8.11748C8.34863 20.4431 9.89219 22.8762 12.1301 24.3237V27.7396L8.67793 29.1212L7.20156 29.1214C3.23066 29.1215 0 32.3529 0 36.3249V41.9635C0 42.3681 0.32793 42.6959 0.732422 42.6959C1.13691 42.6959 1.46484 42.3681 1.46484 41.9635V36.3249C1.46484 33.1606 4.03838 30.5863 7.20166 30.5863L8.32314 30.5862L11.0037 37.2892C11.1771 37.7225 11.532 38.0504 11.9776 38.1888C12.1284 38.2355 12.2829 38.2587 12.4364 38.2587C12.7365 38.2587 13.0327 38.1705 13.2896 37.9993L13.4385 37.9L14.522 39.7062L13.5901 45.2988H8.02441C7.17461 45.2988 6.4833 45.9902 6.4833 46.8401V48.4579C6.4833 48.484 6.48594 48.5094 6.48721 48.5352H1.54111C1.49902 48.5352 1.46484 48.5008 1.46484 48.4587V44.8932C1.46484 44.4886 1.13691 44.1607 0.732422 44.1607C0.32793 44.1607 0 44.4886 0 44.8932V48.4587C0 49.3086 0.691309 50 1.54111 50L48.4863 49.9992C49.321 49.9992 50 49.3202 50 48.4855V46.8124C50 46.4042 49.8368 46.0339 49.5732 45.7613C49.8417 45.3794 50 44.9146 50 44.4132V26.6178ZM20.2221 45.2987L19.2902 39.7062L20.3737 37.9L20.5226 37.9992C20.7794 38.1704 21.0756 38.2586 21.3757 38.2586C21.5291 38.2586 21.6837 38.2355 21.8345 38.1887C22.1758 38.0827 22.4631 37.8648 22.6571 37.5742V44.4132C22.6571 44.7264 22.7191 45.0252 22.8309 45.2986H20.2221V45.2987ZM22.657 33.7222L21.4481 36.7451C21.4448 36.7535 21.4346 36.779 21.3999 36.7897C21.3652 36.8007 21.3426 36.7854 21.3352 36.7804L17.9039 34.4924L21.2462 29.1431L22.6571 29.7076V33.7222H22.657ZM26.6104 11.1721C27.0983 11.1721 27.4953 11.5692 27.4953 12.0575V15.2934C27.4953 15.7815 27.0983 16.1787 26.6104 16.1787H25.7254V11.1721H26.6104ZM12.8627 1.46484H20.9495C22.7752 1.46484 24.2605 2.95068 24.2605 4.77705V8.08926H23.3757C22.8877 8.08926 22.4907 7.69209 22.4907 7.20391V6.31836H22.5672C22.9717 6.31836 23.2996 5.99053 23.2996 5.58594C23.2996 5.18135 22.9717 4.85352 22.5672 4.85352H11.2452C10.8407 4.85352 10.5128 5.18135 10.5128 5.58594C10.5128 5.99053 10.8407 6.31836 11.2452 6.31836H11.3214V7.20381C11.3214 7.69199 10.9244 8.08916 10.4364 8.08916H9.55166V4.77695C9.55156 2.95068 11.0369 1.46484 12.8627 1.46484ZM6.3168 15.2932V12.0574C6.3168 11.5692 6.71377 11.1721 7.20176 11.1721H8.08672V16.1787H7.20166C6.71387 16.1786 6.3168 15.7814 6.3168 15.2932ZM9.55166 16.9111L9.55156 9.5541H10.4363C11.732 9.5541 12.7861 8.4998 12.7861 7.20391V6.31836H21.0256V7.20381C21.0256 8.4998 22.0798 9.554 23.3754 9.554H24.2603V16.911C24.2603 20.9675 20.961 24.2677 16.9059 24.2677C12.8507 24.2677 9.55166 20.9676 9.55166 16.9111ZM16.9061 25.7326C18.0766 25.7326 19.1941 25.5028 20.2171 25.0868V28.0257L16.9061 33.3252L13.5949 28.0256V25.0868C14.6179 25.5027 15.7355 25.7326 16.9061 25.7326ZM12.4121 36.7898C12.3774 36.7791 12.3672 36.7536 12.3639 36.7452L9.771 30.2616L12.5659 29.1432L15.9081 34.4925L12.4769 36.7805C12.4694 36.7854 12.4469 36.8007 12.4121 36.7898ZM16.9061 35.5877L19.1536 37.0864L18.1088 38.8282H15.7035L14.6587 37.0863L16.9061 35.5877ZM15.9092 40.2931H17.903L18.737 45.2988H15.0751L15.9092 40.2931ZM7.94805 46.8401C7.94805 46.798 7.98232 46.7637 8.02432 46.7637H22.6595C22.659 46.78 22.657 46.796 22.657 46.8125V48.4856C22.657 48.5021 22.659 48.5182 22.6595 48.5345H8.02441C7.98232 48.5345 7.94814 48.5001 7.94814 48.458V46.8401H7.94805ZM48.5352 48.4855C48.5352 48.5124 48.5133 48.5344 48.4863 48.5344H25.0068H24.1707C24.1437 48.5344 24.1219 48.5124 24.1219 48.4855V46.8124C24.1219 46.7855 24.1437 46.7636 24.1707 46.7636H25.0068H47.6502H48.4863C48.5133 46.7636 48.5352 46.7855 48.5352 46.8124V48.4855Z" fill="#F89820"/>
<path d="M27.509 40.3971C27.509 41.2317 28.188 41.9107 29.0227 41.9107H43.634C44.4687 41.9107 45.1477 41.2317 45.1477 40.3971V30.6348C45.1477 29.8001 44.4687 29.1211 43.634 29.1211H29.0227C28.188 29.1211 27.509 29.8001 27.509 30.6348V40.3971ZM28.9739 30.6348C28.9739 30.6079 28.9958 30.5859 29.0227 30.5859H43.634C43.661 30.5859 43.6829 30.6079 43.6829 30.6348V40.3971C43.6829 40.4239 43.661 40.4459 43.634 40.4459H29.0227C28.9958 40.4459 28.9739 40.4239 28.9739 40.3971V30.6348Z" fill="#F89820"/>
<path d="M34.7113 14.4075H35.52C35.5621 14.4075 35.5963 14.4419 35.5963 14.484V16.9108C35.5963 17.4985 35.9228 18.0268 36.4484 18.2895C36.6683 18.3994 36.9043 18.4535 37.139 18.4535C37.4652 18.4535 37.7889 18.3488 38.0622 18.1438L43.0224 14.4226C43.0354 14.4128 43.0515 14.4075 43.0678 14.4075H44.4156C46.6031 14.4075 48.3828 12.6274 48.3828 10.4395V3.96816C48.3828 1.78018 46.6031 0 44.4156 0H34.7113C32.5238 0 30.7441 1.78018 30.7441 3.96816V10.4395C30.7441 12.6275 32.5238 14.4075 34.7113 14.4075ZM32.209 3.96816C32.209 2.58779 33.3315 1.46484 34.7113 1.46484H44.4156C45.7954 1.46484 46.918 2.58779 46.918 3.96816V10.4395C46.918 11.8197 45.7954 12.9427 44.4156 12.9427H43.0678C42.7362 12.9427 42.4078 13.0522 42.1431 13.2511L37.1831 16.972C37.1709 16.9812 37.1454 17.0001 37.1034 16.9791C37.0611 16.958 37.0611 16.9261 37.0611 16.9107V14.4838C37.061 13.634 36.3696 12.9426 35.52 12.9426H34.7113C33.3315 12.9426 32.209 11.8196 32.209 10.4394V3.96816Z" fill="#F89820"/>
<path d="M34.7112 4.70059H44.4155C44.82 4.70059 45.1479 4.37276 45.1479 3.96817C45.1479 3.56358 44.82 3.23575 44.4155 3.23575H34.7112C34.3067 3.23575 33.9788 3.56358 33.9788 3.96817C33.9788 4.37276 34.3067 4.70059 34.7112 4.70059Z" fill="#F89820"/>
<path d="M34.7112 7.93622H44.4155C44.82 7.93622 45.1479 7.60839 45.1479 7.2038C45.1479 6.79921 44.82 6.47137 44.4155 6.47137H34.7112C34.3067 6.47137 33.9788 6.79921 33.9788 7.2038C33.9788 7.60839 34.3067 7.93622 34.7112 7.93622Z" fill="#F89820"/>
<path d="M34.7112 11.1719H37.946C38.3504 11.1719 38.6784 10.844 38.6784 10.4395C38.6784 10.0349 38.3504 9.70703 37.946 9.70703H34.7112C34.3067 9.70703 33.9788 10.0349 33.9788 10.4395C33.9788 10.844 34.3067 11.1719 34.7112 11.1719Z" fill="#F89820"/>
</svg>
