<svg width="25" height="25" viewBox="0 0 25 25" fill="none" xmlns="http://www.w3.org/2000/svg">
<path d="M24.8639 5.39042C24.8617 5.354 24.8545 5.31779 24.8425 5.28341C24.8381 5.26998 24.8346 5.25716 24.8289 5.24414C24.8086 5.19877 24.7803 5.15747 24.7455 5.12207L19.7455 0.12207C19.7101 0.0870768 19.6686 0.0587972 19.623 0.0386556C19.6106 0.032959 19.598 0.0295003 19.5852 0.0250244C19.5498 0.0128174 19.5131 0.00549318 19.4759 0.00325521C19.4688 0.00467936 19.4613 0 19.4525 0H6.95251C5.80261 0.00142416 4.87061 0.933228 4.86918 2.08333V5.14994C2.0048 6.41317 0.15625 9.24845 0.15625 12.3792C0.15625 15.5098 2.0048 18.3451 4.86918 19.6084V22.9167C4.87061 24.0668 5.80261 24.9986 6.95251 25H22.7858C23.936 24.9986 24.868 24.0668 24.8692 22.9167V5.41667C24.8692 5.40751 24.8647 5.39958 24.8639 5.39042ZM23.4467 5H20.2858C20.0557 5 19.8692 4.81344 19.8692 4.58333V1.42253L23.4467 5ZM0.998332 12.3792C0.99589 10.4997 1.74133 8.6967 3.07027 7.36776C4.39921 6.03882 6.20239 5.29338 8.08167 5.29582C8.31848 5.29582 8.55347 5.30741 8.7854 5.33C12.0072 5.6484 14.6002 8.11625 15.0775 11.3184C15.1329 11.6693 15.1619 12.0239 15.1646 12.3792C15.1676 13.7136 14.7904 15.0212 14.0776 16.1491C13.5122 17.0504 12.7502 17.8121 11.8488 18.3771C9.66593 19.7479 6.91081 19.8248 4.65495 18.5777C2.39909 17.3307 0.998739 14.9567 0.998332 12.3792ZM12.9209 18.6383C12.9779 18.5942 13.0343 18.5504 13.09 18.505C13.2957 18.3394 13.4926 18.1635 13.6804 17.9779C13.866 17.7901 14.042 17.5934 14.2076 17.3879C14.2529 17.3322 14.2967 17.2754 14.3408 17.2184C14.3913 17.1525 14.446 17.09 14.4942 17.0229L18.0463 20.5792C18.2815 20.8122 18.4139 21.1296 18.4139 21.4606C18.4139 21.7918 18.2815 22.109 18.0463 22.3421C17.5543 22.8176 16.7741 22.8176 16.2821 22.3421L12.7254 18.7917C12.7926 18.7429 12.8554 18.6888 12.9209 18.6383ZM22.7858 24.1667H6.95251C6.26221 24.1667 5.70251 23.607 5.70251 22.9167V19.9337C5.72835 19.942 5.75541 19.9475 5.78166 19.9554C5.84839 19.9758 5.91593 19.9921 5.98348 20.0108C6.13932 20.0525 6.29639 20.0942 6.45508 20.1253C6.533 20.1416 6.61092 20.1567 6.68966 20.1705C6.84835 20.1984 7.00846 20.2203 7.16919 20.2388C7.24101 20.247 7.31181 20.2572 7.38383 20.2633C7.61475 20.283 7.84709 20.2958 8.08167 20.2958C9.45902 20.2968 10.8124 19.9363 12.0064 19.2501L15.6905 22.9305C16.2075 23.4963 16.9936 23.7327 17.7368 23.5455C18.4802 23.3586 19.0609 22.7785 19.2485 22.0353C19.4362 21.2921 19.2006 20.5058 18.635 19.9884L14.9526 16.3037C15.6388 15.1097 15.9996 13.7563 15.9983 12.3792C15.9983 12.1153 15.9857 11.8534 15.9601 11.5938C15.7823 9.77336 14.9764 8.0717 13.6808 6.7808C12.1991 5.29114 10.1829 4.45638 8.08167 4.46248C7.84709 4.46248 7.61475 4.4755 7.38383 4.49504C7.31181 4.50134 7.2404 4.51131 7.16878 4.51965C7.00846 4.53756 6.84916 4.56034 6.69047 4.58801C6.61133 4.60185 6.53239 4.6169 6.45386 4.63338C6.2972 4.66593 6.14176 4.70418 5.98755 4.7467C5.91838 4.76542 5.8492 4.7821 5.77922 4.80286C5.75338 4.81079 5.72713 4.81628 5.70129 4.82463V2.08333C5.70129 1.39303 6.26099 0.833333 6.95129 0.833333H19.0358V4.58333C19.0358 5.27364 19.5955 5.83333 20.2858 5.83333H24.0358V22.9167C24.0358 23.607 23.4764 24.1667 22.7858 24.1667Z" fill="#C2C2C2"/>
<path d="M17.3691 2.91667C17.3691 2.68656 17.1826 2.5 16.9525 2.5H7.78581C7.5557 2.5 7.36914 2.68656 7.36914 2.91667C7.36914 3.14677 7.5557 3.33333 7.78581 3.33333H16.9525C17.1826 3.33333 17.3691 3.14677 17.3691 2.91667Z" fill="#C2C2C2"/>
<path d="M21.9528 10H16.9528C16.7227 10 16.5361 10.1866 16.5361 10.4167C16.5361 10.6468 16.7227 10.8333 16.9528 10.8333H21.9528C22.1829 10.8333 22.3695 10.6468 22.3695 10.4167C22.3695 10.1866 22.1829 10 21.9528 10Z" fill="#C2C2C2"/>
<path d="M21.9528 12.5H16.9528C16.7227 12.5 16.5361 12.6866 16.5361 12.9167C16.5361 13.1468 16.7227 13.3333 16.9528 13.3333H21.9528C22.1829 13.3333 22.3695 13.1468 22.3695 12.9167C22.3695 12.6866 22.1829 12.5 21.9528 12.5Z" fill="#C2C2C2"/>
<path d="M22.3691 15.4167C22.3691 15.1866 22.1826 15 21.9525 15H16.5358C16.3057 15 16.1191 15.1866 16.1191 15.4167C16.1191 15.6468 16.3057 15.8333 16.5358 15.8333H21.9525C22.1826 15.8333 22.3691 15.6468 22.3691 15.4167Z" fill="#C2C2C2"/>
<path d="M22.3695 17.9167C22.3695 17.6866 22.1829 17.5 21.9528 17.5H18.2028C17.9727 17.5 17.7861 17.6866 17.7861 17.9167C17.7861 18.1468 17.9727 18.3333 18.2028 18.3333H21.9528C22.1829 18.3333 22.3695 18.1468 22.3695 17.9167Z" fill="#C2C2C2"/>
<path d="M17.3688 5.41667C17.3688 5.18656 17.1823 5 16.9522 5H13.6188C13.3887 5 13.2021 5.18656 13.2021 5.41667C13.2021 5.64677 13.3887 5.83333 13.6188 5.83333H16.9522C17.1823 5.83333 17.3688 5.64677 17.3688 5.41667Z" fill="#C2C2C2"/>
<path d="M22.3695 7.91667C22.3695 7.68656 22.1829 7.5 21.9528 7.5H15.7028C15.4727 7.5 15.2861 7.68656 15.2861 7.91667C15.2861 8.14677 15.4727 8.33333 15.7028 8.33333H21.9528C22.1829 8.33333 22.3695 8.14677 22.3695 7.91667Z" fill="#C2C2C2"/>
<path d="M6.53581 10.4168H9.45247C9.68258 10.4168 9.86914 10.2303 9.86914 10.0002C9.86914 9.77006 9.68258 9.5835 9.45247 9.5835H6.53581C6.3057 9.5835 6.11914 9.77006 6.11914 10.0002C6.11914 10.2303 6.3057 10.4168 6.53581 10.4168Z" fill="#C2C2C2"/>
<path d="M11.5355 12.5002C11.5355 12.2701 11.3489 12.0835 11.1188 12.0835H4.86882C4.63871 12.0835 4.45215 12.2701 4.45215 12.5002C4.45215 12.7303 4.63871 12.9168 4.86882 12.9168H11.1188C11.3489 12.9168 11.5355 12.7303 11.5355 12.5002Z" fill="#C2C2C2"/>
<path d="M9.45247 14.5835H6.53581C6.3057 14.5835 6.11914 14.7701 6.11914 15.0002C6.11914 15.2303 6.3057 15.4168 6.53581 15.4168H9.45247C9.68258 15.4168 9.86914 15.2303 9.86914 15.0002C9.86914 14.7701 9.68258 14.5835 9.45247 14.5835Z" fill="#C2C2C2"/>
<path d="M11.0478 17.8747C12.064 17.3336 12.9067 16.5161 13.4786 15.517C13.5116 15.4594 13.5474 15.4036 13.5783 15.3452C13.5944 15.3151 13.607 15.284 13.6225 15.2539C13.6857 15.1322 13.7474 15.0106 13.8019 14.8861C13.8566 14.7615 13.8996 14.6431 13.9441 14.5207C13.9569 14.4853 13.9732 14.4507 13.9858 14.4149C15.0454 11.3336 13.5602 7.95512 10.5736 6.65283C7.58669 5.35055 4.10056 6.56148 2.56411 9.43481C2.0805 10.34 1.82863 11.3509 1.83107 12.3773C1.82721 14.5795 2.98382 16.6207 4.8749 17.749C6.76597 18.8776 9.11156 18.9262 11.0478 17.8772V17.8747ZM5.48525 17.1324C5.03176 16.8852 4.61631 16.5739 4.25153 16.2081C3.99843 15.9552 3.77077 15.6783 3.57159 15.3811C3.47312 15.2338 3.38259 15.0826 3.29938 14.9274C2.04531 12.5594 2.70978 9.63033 4.86289 8.03548C7.01601 6.44063 10.0116 6.65873 11.9112 8.54858C13.5936 10.2468 13.972 12.8436 12.8445 14.9514V14.9548C12.3476 15.8844 11.5859 16.6455 10.6562 17.1419C9.0432 18.0182 7.09556 18.0151 5.48525 17.134V17.1324Z" fill="#C2C2C2"/>
<path d="M22.7858 20C22.5557 20 22.3691 20.1866 22.3691 20.4167V22.0833C22.3691 22.3134 22.1826 22.5 21.9525 22.5H20.2858C20.0557 22.5 19.8691 22.6866 19.8691 22.9167C19.8691 23.1468 20.0557 23.3333 20.2858 23.3333H21.9525C22.643 23.3333 23.2025 22.7736 23.2025 22.0833V20.4167C23.2025 20.1866 23.0159 20 22.7858 20Z" fill="#C2C2C2"/>
</svg>
