<svg width="16" height="16" viewBox="0 0 16 16" fill="none" xmlns="http://www.w3.org/2000/svg">
<path d="M8 0C3.58862 0 0 3.58862 0 8C0 12.4114 3.58862 16 8 16C12.4114 16 16 12.4114 16 8C16 3.58862 12.4114 0 8 0Z" fill="#FF7E70"/>
<path d="M8.66626 4C8.66626 4.36816 8.3678 4.66663 7.99963 4.66663C7.63147 4.66663 7.33301 4.36816 7.33301 4C7.33301 3.63184 7.63147 3.33337 7.99963 3.33337C8.3678 3.33337 8.66626 3.63184 8.66626 4Z" fill="#FAFAFA"/>
<path d="M9.49963 12.6666H6.49963C6.13098 12.6666 5.83301 12.368 5.83301 12C5.83301 11.632 6.13098 11.3334 6.49963 11.3334H7.33301V7.33337H6.83301C6.46436 7.33337 6.16626 7.03467 6.16626 6.66663C6.16626 6.29871 6.46436 6 6.83301 6H7.99963C8.36829 6 8.66626 6.29871 8.66626 6.66663V11.3334H9.49963C9.86829 11.3334 10.1663 11.632 10.1663 12C10.1663 12.368 9.86829 12.6666 9.49963 12.6666Z" fill="#FAFAFA"/>
</svg>
