<svg width="30" height="30" viewBox="0 0 30 30" fill="none" xmlns="http://www.w3.org/2000/svg">
<path d="M18.2621 25.6031H11.7412L12.5922 20.2064H17.4111L18.2621 25.6031Z" fill="white"/>
<path d="M29.5628 3.46732V20.3791C29.5628 20.7772 29.2478 21.1008 28.8591 21.1008H1.14609C0.75729 21.1008 0.442383 20.7772 0.442383 20.3791V3.46732C0.442383 3.06861 0.75729 2.74567 1.14609 2.74567H28.8591C29.2478 2.74567 29.5628 3.06861 29.5628 3.46732Z" fill="#F8971C"/>
<path d="M2.61213 21.1008H1.14609C0.75729 21.1008 0.442383 20.7772 0.442383 20.3791V3.46732C0.442383 3.06861 0.75729 2.74567 1.14609 2.74567H2.61213C2.22334 2.74567 1.90843 3.06861 1.90843 3.46732V20.3791C1.90843 20.7772 2.22334 21.1008 2.61213 21.1008Z" fill="#F8971C"/>
<path d="M14.0587 20.2061L13.2073 25.6028H11.7412L12.5927 20.2061H14.0587Z" fill="white"/>
<path d="M21.8624 14.2443H8.14208C7.8182 14.2443 7.55566 13.9751 7.55566 13.643V1.05336C7.55566 0.721223 7.8182 0.451988 8.14208 0.451988H21.8624C22.1863 0.451988 22.4488 0.721223 22.4488 1.05336V13.643C22.4488 13.9751 22.1863 14.2443 21.8624 14.2443Z" fill="#F2FBFF"/>
<path d="M29.5628 17.1804V20.3791C29.5628 20.7772 29.2478 21.1008 28.8591 21.1008H1.14609C0.75729 21.1008 0.442383 20.7772 0.442383 20.3791V17.1804H29.5628Z" fill="#F2FBFF"/>
<path d="M9.60813 14.2455H8.14208C7.81779 14.2455 7.55566 13.9761 7.55566 13.6441V1.05437C7.55566 0.72241 7.81779 0.452995 8.14208 0.452995H9.60813C9.28384 0.452995 9.02171 0.72241 9.02171 1.05437V13.6441C9.02171 13.9761 9.28384 14.2455 9.60813 14.2455Z" fill="white"/>
<path d="M2.61213 21.1008H1.14609C0.75729 21.1008 0.442383 20.7772 0.442383 20.3791V17.1804H1.90843V20.3791C1.90843 20.7772 2.22334 21.1008 2.61213 21.1008Z" fill="#F2FBFF"/>
<path d="M28.0569 27.026V25.2284C28.0569 24.5895 27.5206 24.0939 26.9001 24.1511C22.6267 24.5452 17.6988 22.6418 15.2244 23.8575C15.0867 23.9252 14.9135 23.9252 14.7758 23.8575C12.3014 22.6418 7.37354 24.5452 3.10013 24.1511C2.47964 24.0939 1.94336 24.5895 1.94336 25.2284V27.026L3.98867 28.5774H24.6867L28.0569 27.026Z" fill="#F2FBFF"/>
<path d="M16.4737 23.5056V28.5776H15V24.2254C15 24.0691 15.0868 23.9253 15.2246 23.8574C15.5905 23.6776 16.0104 23.5663 16.4737 23.5056Z" fill="white"/>
<path d="M3.40941 27.0263L5.45483 28.5772H3.98879L1.94336 27.0263V25.2282C1.94336 24.5895 2.47935 24.094 3.09978 24.1511C3.43931 24.1824 3.78295 24.1992 4.12953 24.204C3.71376 24.3471 3.40941 24.7471 3.40941 25.2282V27.0263Z" fill="white"/>
<path d="M29.0905 27.026H16.7734C16.6999 27.026 16.6306 27.0613 16.5863 27.1214L16.1516 27.7108C16.1072 27.771 16.038 27.8062 15.9645 27.8062H14.0355C13.9621 27.8062 13.8928 27.771 13.8485 27.7108L13.4138 27.1214C13.3695 27.0613 13.3002 27.026 13.2268 27.026H0.909564C0.650485 27.026 0.44043 27.2414 0.44043 27.5071V29.1176C0.44043 29.3833 0.650485 29.5987 0.909564 29.5987H29.0905C29.3496 29.5987 29.5596 29.3833 29.5596 29.1176V27.5071C29.5596 27.2414 29.3496 27.026 29.0905 27.026Z" fill="white"/>
<path d="M1.90648 27.5074V29.1178C1.90648 29.383 2.11641 29.5989 2.37561 29.5989H0.909564C0.650368 29.5989 0.44043 29.383 0.44043 29.1178V27.5074C0.44043 27.2416 0.650368 27.0263 0.909564 27.0263H2.37561C2.11641 27.0263 1.90648 27.2416 1.90648 27.5074Z" fill="white"/>
<path d="M28.8565 21.5508C29.487 21.5508 30 21.0247 30 20.3781V3.46631C30 2.81971 29.487 2.29363 28.8565 2.29363H22.8862V1.0524C22.8862 0.472137 22.4258 0 21.8599 0H8.14008C7.57424 0 7.11384 0.472137 7.11384 1.0524V2.29363H1.14352C0.512999 2.29363 0 2.81971 0 3.46631V4.41347C0 4.66256 0.196919 4.8645 0.439814 4.8645C0.682709 4.8645 0.879628 4.66256 0.879628 4.41347V3.46631C0.879628 3.31711 0.998026 3.19569 1.14352 3.19569H7.11384V13.6421C7.11384 14.2224 7.57424 14.6945 8.14008 14.6945H21.8599C22.4258 14.6945 22.8862 14.2224 22.8862 13.6421V12.5687C22.8862 12.3196 22.6892 12.1177 22.4463 12.1177C22.2034 12.1177 22.0065 12.3196 22.0065 12.5687V13.6421C22.0065 13.725 21.9407 13.7925 21.8599 13.7925H8.14008C8.05927 13.7925 7.99347 13.725 7.99347 13.6421V1.0524C7.99347 0.969532 8.05927 0.902058 8.14008 0.902058H21.8599C21.9407 0.902058 22.0065 0.969532 22.0065 1.0524V10.4639C22.0065 10.713 22.2034 10.9149 22.4463 10.9149C22.6892 10.9149 22.8862 10.713 22.8862 10.4639V3.19569H28.8565C29.002 3.19569 29.1204 3.31711 29.1204 3.46631V16.7282H0.879628V6.51827C0.879628 6.26919 0.682709 6.06725 0.439814 6.06725C0.196919 6.06725 0 6.26919 0 6.51827V20.3781C0 21.0247 0.512999 21.5508 1.14352 21.5508H11.933L11.709 22.9706C10.8206 23.0261 9.85289 23.1578 8.82742 23.2976C6.93622 23.5554 4.98069 23.822 3.13933 23.6522C2.71875 23.6136 2.29929 23.7582 1.9886 24.0494C1.68021 24.3384 1.50334 24.75 1.50334 25.1786V26.5253H0.909535C0.408323 26.5253 0.000586419 26.9434 0.000586419 27.4574V29.0679C0.000586419 29.5819 0.408323 30 0.909535 30H25.4054C25.6483 30 25.8452 29.7981 25.8452 29.549C25.8452 29.2999 25.6483 29.0979 25.4054 29.0979H0.909535C0.89335 29.0979 0.880214 29.0845 0.880214 29.0679V27.4574C0.880214 27.4408 0.89335 27.4273 0.909535 27.4273H13.1244L13.4982 27.9342C13.625 28.1052 13.8258 28.2073 14.0353 28.2073H15.9647C16.1742 28.2073 16.3751 28.1052 16.5025 27.9333L16.8755 27.4273H29.0905C29.1067 27.4273 29.1198 27.4407 29.1198 27.4573V29.0678C29.1198 29.0844 29.1067 29.0979 29.0905 29.0979H27.4579C27.215 29.0979 27.0181 29.2998 27.0181 29.5489C27.0181 29.798 27.215 29.9999 27.4579 29.9999H29.0905C29.5917 29.9999 29.9994 29.5818 29.9994 29.0678V27.4573C29.9994 26.9433 29.5917 26.5252 29.0905 26.5252H28.4966V25.1786C28.4966 24.75 28.3197 24.3384 28.0113 24.0493C27.7007 23.7581 27.2811 23.6131 26.8606 23.6521C25.0193 23.8219 23.0637 23.5553 21.1725 23.2975C20.1471 23.1577 19.1793 23.0259 18.2909 22.9706L18.067 21.5507H28.8565V21.5508ZM0.879628 20.3781V17.6303H29.1204V20.3781C29.1204 20.5273 29.002 20.6487 28.8565 20.6487H1.14352C0.998026 20.6487 0.879628 20.5274 0.879628 20.3781ZM26.9394 24.5506C27.1175 24.5345 27.2872 24.5927 27.4178 24.7152C27.5462 24.8355 27.617 25.0002 27.617 25.1787V26.5253H16.7733C16.564 26.5253 16.3632 26.6276 16.2354 26.8L15.8628 27.3053H14.1371L13.7638 26.799C13.6368 26.6276 13.436 26.5253 13.2266 26.5253H2.38303V25.1787C2.38303 25.0002 2.45375 24.8355 2.58218 24.7152C2.71289 24.5926 2.88289 24.5345 3.06064 24.5506C4.99939 24.7293 7.00442 24.4561 8.94341 24.1918C11.1809 23.8867 13.2953 23.5986 14.5602 24.2022V25.3338C14.5602 25.5829 14.7571 25.7848 15 25.7848C15.2429 25.7848 15.4398 25.5829 15.4398 25.3338V24.2022C16.7048 23.5986 18.8191 23.8868 21.0566 24.1918C22.9956 24.4561 25.0006 24.7296 26.9394 24.5506ZM17.3956 22.9436C16.4977 22.95 15.7012 23.0734 15.0342 23.4011C15.0227 23.4068 15.0113 23.4127 15 23.4189C14.9887 23.4127 14.9773 23.4068 14.9658 23.4011C14.2988 23.0734 13.5023 22.95 12.6044 22.9436L12.8241 21.5508H17.176L17.3956 22.9436Z" fill="white"/>
<path d="M14.3743 6.41683C14.5492 6.41683 14.7146 6.30912 14.7832 6.13238L16.1605 2.58103C16.2503 2.34956 16.14 2.08731 15.9144 1.99524C15.6885 1.90329 15.4329 2.01616 15.3431 2.24763L13.9658 5.79898C13.876 6.03044 13.9863 6.2927 14.2119 6.38477C14.2653 6.40654 14.3203 6.41683 14.3743 6.41683Z" fill="black"/>
<path d="M19.2991 3.92498L18.3742 2.35173C18.2488 2.13842 17.9785 2.06968 17.7705 2.19838C17.5624 2.32701 17.4955 2.60418 17.6209 2.81749L18.4116 4.16246L17.6169 5.56931C17.4952 5.78484 17.5668 6.06081 17.777 6.18566C17.8465 6.22691 17.9223 6.24651 17.997 6.24651C18.1488 6.24651 18.2965 6.16587 18.378 6.02148L19.303 4.384C19.3834 4.24172 19.3819 4.06582 19.2991 3.92498Z" fill="black"/>
<path d="M12.2286 2.19838C12.0206 2.06968 11.7503 2.13848 11.6249 2.35173L10.6999 3.92498C10.6171 4.06582 10.6156 4.24166 10.696 4.38395L11.6209 6.02142C11.7025 6.16581 11.8501 6.24646 12.0019 6.24646C12.0768 6.24646 12.1526 6.22685 12.222 6.1856C12.4321 6.06075 12.5038 5.78478 12.382 5.56925L11.5874 4.1624L12.3781 2.81743C12.5036 2.60418 12.4366 2.32701 12.2286 2.19838Z" fill="black"/>
<path d="M18.7991 7.61945H11.2006C10.9577 7.61945 10.7607 7.82139 10.7607 8.07048C10.7607 8.31956 10.9577 8.5215 11.2006 8.5215H18.7991C19.042 8.5215 19.2389 8.31956 19.2389 8.07048C19.2389 7.82139 19.042 7.61945 18.7991 7.61945Z" fill="black"/>
<path d="M18.7991 9.72425H11.2006C10.9577 9.72425 10.7607 9.92619 10.7607 10.1753C10.7607 10.4244 10.9577 10.6263 11.2006 10.6263H18.7991C19.042 10.6263 19.2389 10.4244 19.2389 10.1753C19.2389 9.92619 19.042 9.72425 18.7991 9.72425Z" fill="black"/>
<path d="M18.7991 11.8291H11.2006C10.9577 11.8291 10.7607 12.031 10.7607 12.2801C10.7607 12.5292 10.9577 12.7311 11.2006 12.7311H18.7991C19.042 12.7311 19.2389 12.5292 19.2389 12.2801C19.2389 12.031 19.042 11.8291 18.7991 11.8291Z" fill="black"/>
</svg>
