<svg width="30" height="32" viewBox="0 0 30 32" fill="none" xmlns="http://www.w3.org/2000/svg">
<g clip-path="url(#clip0)">
<path d="M28.9029 7.99124H1.46387V1.52295H28.537L28.9029 7.99124Z" fill="#F89820"/>
<path d="M27.3633 0.0621338H2.63672C1.18283 0.0621338 0 1.29228 0 2.80432V28.3981C0 29.9101 1.18283 31.1402 2.63672 31.1402H27.3633C28.8172 31.1402 30 29.9101 30 28.3981V2.80432C30 1.29228 28.8172 0.0621338 27.3633 0.0621338ZM2.63672 1.89026H27.3633C27.8479 1.89026 28.2422 2.30031 28.2422 2.80432V7.37463H1.75781V2.80432C1.75781 2.30031 2.15209 1.89026 2.63672 1.89026ZM27.3633 29.3121H2.63672C2.15209 29.3121 1.75781 28.9021 1.75781 28.3981V9.20275H28.2422V28.3981C28.2422 28.9021 27.8479 29.3121 27.3633 29.3121Z" fill="#363636"/>
<path d="M17.9832 12.0176C17.537 11.8188 17.0203 12.0337 16.8291 12.4977L11.5557 25.2946C11.3644 25.7585 11.5711 26.2959 12.0173 26.4948C12.4636 26.6937 12.9802 26.4786 13.1713 26.0147L18.4448 13.2178C18.636 12.7538 18.4293 12.2165 17.9832 12.0176Z" fill="#363636"/>
<path d="M10.4126 15.029C10.1094 14.6348 9.55618 14.5709 9.17731 14.8863L4.78278 18.5425C4.34339 18.908 4.34309 19.6043 4.78278 19.97L9.17731 23.6263C9.55636 23.9417 10.1095 23.8777 10.4126 23.4836C10.7159 23.0894 10.6545 22.5141 10.2754 22.1988L6.73876 19.2563L10.2754 16.3138C10.6545 15.9984 10.7159 15.4232 10.4126 15.029Z" fill="#363636"/>
<path d="M25.217 18.5425L20.8225 14.8863C20.4435 14.5709 19.8903 14.6348 19.5872 15.029C19.2839 15.4232 19.3454 15.9985 19.7245 16.3137L23.2611 19.2563L19.7245 22.1988C19.3454 22.5141 19.2839 23.0893 19.5872 23.4835C19.8908 23.8782 20.444 23.9413 20.8225 23.6262L25.217 19.97C25.6564 19.6046 25.6567 18.9083 25.217 18.5425Z" fill="#363636"/>
<path d="M4.45312 5.54529C4.93853 5.54529 5.33203 5.13605 5.33203 4.63122C5.33203 4.1264 4.93853 3.71716 4.45312 3.71716C3.96772 3.71716 3.57422 4.1264 3.57422 4.63122C3.57422 5.13605 3.96772 5.54529 4.45312 5.54529Z" fill="#363636"/>
<path d="M7.96875 5.54529C8.45416 5.54529 8.84766 5.13605 8.84766 4.63122C8.84766 4.1264 8.45416 3.71716 7.96875 3.71716C7.48334 3.71716 7.08984 4.1264 7.08984 4.63122C7.08984 5.13605 7.48334 5.54529 7.96875 5.54529Z" fill="#363636"/>
<path d="M11.4844 5.54529C11.9698 5.54529 12.3633 5.13605 12.3633 4.63122C12.3633 4.1264 11.9698 3.71716 11.4844 3.71716C10.999 3.71716 10.6055 4.1264 10.6055 4.63122C10.6055 5.13605 10.999 5.54529 11.4844 5.54529Z" fill="#363636"/>
</g>
<defs>
<clipPath id="clip0">
<rect width="30" height="31.2" fill="white"/>
</clipPath>
</defs>
</svg>
