<svg width="50" height="50" viewBox="0 0 50 50" fill="none" xmlns="http://www.w3.org/2000/svg">
<g clip-path="url(#clip0)">
<path d="M44.2701 19.0146H31.641C31.2365 19.0146 30.9087 19.3425 30.9087 19.7469C30.9087 20.1513 31.2366 20.4792 31.641 20.4792H44.2702C44.6747 20.4792 45.0025 20.1513 45.0025 19.7469C45.0025 19.3425 44.6746 19.0146 44.2701 19.0146Z" fill="#F89820"/>
<path d="M44.2701 23.4299H31.641C31.2365 23.4299 30.9087 23.7578 30.9087 24.1622C30.9087 24.5666 31.2366 24.8945 31.641 24.8945H44.2702C44.6747 24.8945 45.0025 24.5666 45.0025 24.1622C45.0025 23.7578 44.6746 23.4299 44.2701 23.4299Z" fill="#F89820"/>
<path d="M45.0025 28.5775C45.0025 28.173 44.6746 27.8452 44.2702 27.8452H31.641C31.2365 27.8452 30.9087 28.1731 30.9087 28.5775C30.9087 28.9819 31.2366 29.3099 31.641 29.3099H44.2702C44.6746 29.31 45.0025 28.982 45.0025 28.5775Z" fill="#F89820"/>
<path d="M31.641 32.2605C31.2365 32.2605 30.9087 32.5885 30.9087 32.9928C30.9087 33.3972 31.2366 33.7252 31.641 33.7252H37.9556C38.3601 33.7252 38.6879 33.3972 38.6879 32.9928C38.6879 32.5885 38.36 32.2605 37.9556 32.2605H31.641Z" fill="#F89820"/>
<path d="M48.6933 8.6124L41.1424 1.06152C40.4715 0.390137 39.5523 0 38.5799 0H13.7324C11.7343 0 10.1088 1.62559 10.1088 3.62363V11.1218C10.1088 11.5263 10.4368 11.8541 10.8412 11.8541C11.2456 11.8541 11.5735 11.5262 11.5735 11.1218V3.62363C11.5735 2.4332 12.5419 1.46475 13.7324 1.46475H38.5799C38.7379 1.46475 38.8933 1.48164 39.0452 1.51514V8.18467C39.0452 9.57685 40.1778 10.7095 41.57 10.7095H48.2387C48.2725 10.8623 48.2898 11.0188 48.2898 11.1747V46.3765C48.2898 47.5668 47.3213 48.5354 46.1309 48.5354H36.2922C37.1486 47.255 37.0123 45.5026 35.8826 44.3729L29.2239 37.7143C28.7389 37.2293 28.033 37.099 27.4274 37.3199L25.9938 35.8863C30.0383 30.2699 29.4419 22.499 24.4957 17.5526C19.0061 12.0632 9.99927 11.9538 4.40054 17.5526C-1.1397 23.0929 -1.1397 32.1075 4.40054 37.6478C9.34253 42.5898 17.1208 43.1772 22.7337 39.1454L24.1678 40.5795C23.9469 41.1851 24.0772 41.891 24.5623 42.376L30.7216 48.5354H13.7324C12.542 48.5354 11.5735 47.5669 11.5735 46.3765V44.0293C11.5735 43.6248 11.2456 43.297 10.8412 43.297C10.4368 43.297 10.1088 43.6249 10.1088 44.0293V46.3765C10.1088 48.3745 11.7344 50 13.7324 50H46.131C48.1291 50 49.7546 48.3744 49.7546 46.3765V11.1747C49.7546 10.2243 49.3775 9.29609 48.6933 8.6124ZM5.43638 36.612C0.467236 31.6429 0.467236 23.5575 5.43638 18.5883C10.4688 13.5559 18.5458 13.674 23.4601 18.5883C28.0357 23.164 28.462 30.434 24.4515 35.499C23.8359 36.2765 23.1254 36.9872 22.3471 37.6034C17.3144 41.5881 10.0265 41.2021 5.43638 36.612ZM23.8872 38.2218C24.3013 37.8531 24.6963 37.4589 25.0724 37.0363L26.2785 38.2424L25.0903 39.4306L23.8843 38.2245C23.8853 38.2235 23.8862 38.2226 23.8872 38.2218ZM32.2566 47.9988L25.598 41.3402C25.5026 41.2448 25.5024 41.0898 25.598 40.9941L25.6077 40.9845C25.6079 40.9843 25.6081 40.9842 25.6082 40.984L27.8422 38.7499C27.9375 38.6545 28.0929 38.6545 28.1883 38.7499L34.8469 45.4086C35.561 46.1228 35.561 47.2847 34.8469 47.9988C34.131 48.7146 32.9725 48.7146 32.2566 47.9988ZM40.5099 8.18467V2.50039L47.2542 9.24473H41.5701C40.9854 9.24473 40.5099 8.76914 40.5099 8.18467Z" fill="#F89820"/>
<path d="M30.7976 4.7522H16.2676C15.399 4.7522 14.6924 5.45884 14.6924 6.32739V9.13432C14.6924 10.0029 15.399 10.7095 16.2676 10.7095H30.7976C31.6662 10.7095 32.3728 10.0029 32.3728 9.13432V6.32739C32.3727 5.45884 31.6661 4.7522 30.7976 4.7522ZM30.9079 9.13422C30.9079 9.19506 30.8584 9.24467 30.7975 9.24467H16.2676C16.2067 9.24467 16.1571 9.19516 16.1571 9.13422V6.32739C16.1571 6.26655 16.2066 6.21694 16.2676 6.21694H30.7976C30.8585 6.21694 30.908 6.26645 30.908 6.32739V9.13422H30.9079Z" fill="#F89820"/>
<path d="M22.4305 35.5825C26.8321 31.181 26.8321 24.0192 22.4305 19.6178C18.0289 15.2162 10.8673 15.2162 6.46575 19.6178C4.75325 21.3304 3.655 23.4973 3.28977 25.8844C3.22864 26.2842 3.50305 26.6579 3.90295 26.719C4.30295 26.7805 4.67649 26.5058 4.73762 26.1058C5.05539 24.0293 6.01106 22.1438 7.50139 20.6534C11.3318 16.823 17.5643 16.823 21.3948 20.6534C25.0699 24.3286 25.2182 30.2149 21.8407 34.0693C21.5191 33.4147 20.9719 32.8817 20.2563 32.5667C19.3887 32.1848 17.893 31.942 16.973 31.8207L16.9691 30.8959C17.8581 30.2413 18.4892 29.2534 18.6705 28.1104C18.8269 28.0455 18.9703 27.9495 19.0932 27.8258C19.3384 27.5789 19.4721 27.2515 19.4698 26.9037C19.4633 25.9331 19.4642 24.3244 19.4642 23.3873C19.4642 22.5011 18.8185 21.7627 17.9729 21.6179C17.8106 20.7938 17.0825 20.1704 16.2115 20.1704H12.6761C10.8535 20.1704 9.37073 21.6531 9.37073 23.4757V26.9174C9.37073 27.4516 9.6968 27.9112 10.1604 28.1076C10.3376 29.2157 10.9373 30.1786 11.7841 30.8334L11.7884 31.8425C10.8695 31.9715 9.3759 32.2268 8.51135 32.6161C7.85393 32.9123 7.34016 33.4145 7.02395 34.033C5.85305 32.6851 5.07776 31.0602 4.77034 29.2933C4.701 28.8948 4.3217 28.6279 3.92327 28.6973C3.52473 28.7666 3.25793 29.1459 3.32727 29.5443C3.72688 31.8406 4.81213 33.9285 6.46584 35.5823C10.8866 40.0034 18.0485 39.9647 22.4305 35.5825ZM12.6761 21.6352H16.2115C16.3938 21.6352 16.542 21.7835 16.542 21.9657C16.542 22.5675 17.0316 23.057 17.6333 23.057H17.6692C17.8514 23.057 17.9996 23.2053 17.9996 23.3875V23.7806L17.1144 23.6975C16.2472 23.6164 15.3603 23.8221 14.6173 24.277C14.2098 24.5266 13.7418 24.6585 13.264 24.6585H10.8356V23.476C10.8355 22.4609 11.6612 21.6352 12.6761 21.6352ZM10.8355 26.761V26.123H13.2639C14.0119 26.123 14.7444 25.9165 15.3823 25.5259C15.8569 25.2351 16.4235 25.1037 16.9775 25.1557L17.9999 25.2516C18.0005 25.7026 18.0017 26.2977 18.0042 26.7583C17.5965 26.8299 17.2792 27.1735 17.2543 27.5993C17.1671 29.0968 15.921 30.2697 14.4175 30.2697C12.9171 30.2697 11.6692 29.0977 11.5763 27.6015C11.5501 27.1798 11.2377 26.8383 10.8355 26.761ZM14.4175 31.7345C14.7936 31.7345 15.1587 31.685 15.5073 31.5939L15.5091 32.0023C15.5099 32.1918 15.5533 32.3725 15.6303 32.535C15.2661 32.7808 14.8348 32.9163 14.3825 32.9177C14.3803 32.9177 14.378 32.9177 14.3758 32.9177C13.9278 32.9177 13.4996 32.7857 13.1367 32.5452C13.2123 32.382 13.2547 32.2012 13.2539 32.0117L13.2521 31.5738C13.6234 31.6784 14.0144 31.7345 14.4175 31.7345ZM8.17073 35.1566C8.27707 34.6208 8.61916 34.1742 9.11272 33.9517C9.61096 33.7274 10.5706 33.5021 11.7792 33.3236C12.4697 34.0013 13.3942 34.3823 14.3755 34.3823H14.3866C15.3753 34.3794 16.3048 33.9901 16.9945 33.3017C18.2046 33.47 19.1661 33.6871 19.6662 33.9073C20.2267 34.154 20.589 34.6239 20.6778 35.1966C17.0534 38.1733 11.7804 38.1598 8.17073 35.1566Z" fill="#F89820"/>
</g>
<defs>
<clipPath id="clip0">
<rect width="50" height="50" fill="white"/>
</clipPath>
</defs>
</svg>
