<svg width="17" height="17" viewBox="0 0 17 17" fill="none" xmlns="http://www.w3.org/2000/svg">
<g clip-path="url(#clip0)">
<path d="M8.50005 12.0099C10.9988 12.0099 13.0245 9.9842 13.0245 7.4854C13.0245 4.98661 10.9988 2.96094 8.50005 2.96094C6.00126 2.96094 3.97559 4.98661 3.97559 7.4854C3.97559 9.9842 6.00126 12.0099 8.50005 12.0099Z" fill="#3980D4"/>
<path d="M13.8165 2.20212C12.3964 0.782067 10.5083 0 8.50004 0C6.49174 0 4.60364 0.782067 3.18359 2.20212C1.76351 3.62223 0.981445 5.5103 0.981445 7.51859C0.981445 11.0616 3.45839 14.1204 6.89941 14.8658L8.50004 17L10.1007 14.8658C13.5417 14.1204 16.0186 11.0616 16.0186 7.51859C16.0186 5.5103 15.2366 3.62223 13.8165 2.20212ZM8.50004 1.96282C11.5452 1.96282 14.0225 4.44023 14.0225 7.48532C14.0225 10.5304 11.5452 13.0078 8.50004 13.0078C5.45491 13.0078 2.97753 10.5304 2.97753 7.48532C2.97753 4.44023 5.45491 1.96282 8.50004 1.96282Z" fill="#3980D4"/>
</g>
<defs>
<clipPath id="clip0">
<rect width="17" height="17" fill="white"/>
</clipPath>
</defs>
</svg>
