<svg width="16" height="16" viewBox="0 0 16 16" fill="none" xmlns="http://www.w3.org/2000/svg">
<path d="M8 0C12.4114 0 16 3.58862 16 8C16 12.4114 12.4114 16 8 16C3.58862 16 0 12.4114 0 8C0 3.58862 3.58862 0 8 0Z" fill="#3980D4"/>
<g clip-path="url(#clip0)">
<path d="M9.29372 12.3496L11.7696 4.11209C11.8 4.0116 11.7431 3.90554 11.6426 3.87519C11.5942 3.86056 11.5419 3.86586 11.4973 3.88991L3.79705 8.03107C3.72831 8.0681 3.68921 8.14339 3.69845 8.22093C3.70774 8.2985 3.76356 8.36248 3.83916 8.38222L7.27283 9.27729L8.94406 12.3849C8.9936 12.4774 9.10881 12.5122 9.20135 12.4627C9.24596 12.4388 9.27922 12.3981 9.29372 12.3496Z" fill="white"/>
</g>
<defs>
<clipPath id="clip0">
<rect width="9.12354" height="9.12354" fill="white" transform="translate(11.0352 2.62805) rotate(61.729)"/>
</clipPath>
</defs>
</svg>
