<svg width="30" height="30" viewBox="0 0 30 30" fill="none" xmlns="http://www.w3.org/2000/svg">
<path d="M22.6658 11.1111L23.1103 11.7037C23.2584 11.8518 23.4066 12 23.5547 12C23.7028 12 23.851 12 23.9992 11.8519L27.2584 8.8889C27.5547 8.59257 27.5547 8.14818 27.2584 7.85186L20.2955 0.296322C20.1473 0.148191 19.9991 0 19.851 0C19.7029 0 19.4066 0 19.2584 0.148131L15.9992 3.11112C15.7029 3.40744 15.7029 3.85183 15.9992 4.14816L16.4436 4.74074L11.1103 9.62961L10.6659 9.03703C10.3695 8.74071 9.92513 8.74071 9.62881 9.03703L6.36956 12C6.22143 12.1481 6.07324 12.2963 6.07324 12.4445C6.07324 12.5926 6.07324 12.8889 6.22137 13.0371L13.1843 20.7407C13.3325 20.8888 13.4806 21.037 13.6288 21.037C13.7769 21.037 13.9251 21.037 14.0732 20.8889L17.3325 17.9259C17.4806 17.7778 17.6288 17.6296 17.6288 17.4815C17.6288 17.3333 17.6288 17.037 17.4807 16.8889L17.0362 16.2963L18.0733 15.2593L26.6658 24.5926C26.814 24.7407 26.9622 24.8889 27.1103 24.8889C27.2584 24.8889 27.4066 24.8889 27.5547 24.7408L29.7769 22.6667C30.0733 22.3704 30.0733 21.926 29.7769 21.6297L21.1843 12.2963L22.6658 11.1111ZM19.851 1.62962L25.9251 8.14812L23.7029 10.0741L23.2584 9.48148L18.2214 3.99996L17.7769 3.40738L19.851 1.62962ZM13.9251 19.1111L7.851 12.5925L10.0732 10.5185L11.1102 11.7036L15.5547 16.5925L15.9991 17.1851L13.9251 19.1111ZM12.1473 10.6667L17.6287 5.62959L21.6288 9.92587L19.9991 11.4074L17.7769 13.6296L16.1473 15.1111L12.1473 10.6667ZM28.4436 21.9259L27.4065 22.9629L19.4066 14.2222L20.4436 13.1852L28.4436 21.9259Z" fill="white"/>
<path d="M20.7408 28.2963V25.3333C20.7408 24.8888 20.4445 24.5926 20.0001 24.5926H17.7779V22.3703C17.7779 21.9259 17.4815 21.6296 17.0371 21.6296H3.7037C3.25925 21.6296 2.96299 21.9259 2.96299 22.3703V24.5926H0.740716C0.296322 24.5926 0 24.8889 0 25.3333V28.2963C0 28.7408 0.296322 29.037 0.740716 29.037H20C20.4445 29.037 20.7408 28.7407 20.7408 28.2963ZM4.44442 23.1111H16.2963V24.5926H4.44442V23.1111ZM19.2593 27.5555H1.48149V26.074H3.7037H17.037H19.2592L19.2593 27.5555Z" fill="white"/>
<rect x="17.5977" y="5.58386" width="6.02614" height="7.5179" transform="rotate(47.2809 17.5977 5.58386)" fill="#F8971C"/>
</svg>
