<svg width="25" height="25" viewBox="0 0 25 25" fill="none" xmlns="http://www.w3.org/2000/svg">
<path d="M24.9969 12.3707C24.9933 12.0051 24.9748 11.6422 24.9404 11.2848C24.8247 10.0936 24.5398 8.95167 24.1131 7.88123C24.0812 7.80154 24.0519 7.72082 24.018 7.64216C23.4494 6.29871 22.6509 5.07558 21.6735 4.02005C21.6093 3.95116 21.544 3.88329 21.4787 3.81645C21.2941 3.62468 21.1044 3.43753 20.908 3.2581C18.6859 1.23496 15.7347 0 12.4997 0C9.23753 0 6.2653 1.25707 4.03702 3.31105C3.51774 3.78972 3.04062 4.31208 2.60771 4.87147C0.974807 6.98355 0 9.62931 0 12.4997C0 19.3928 5.60771 25 12.5003 25C17.3486 25 21.5578 22.2236 23.6298 18.1784C24.073 17.3136 24.418 16.3918 24.6504 15.4257C24.7095 15.1805 24.7604 14.9342 24.8046 14.6848C24.9306 13.9748 24.9995 13.2447 24.9995 12.4997C25 12.4566 24.9974 12.4139 24.9969 12.3707ZM22.6442 7.37481L22.7167 7.29357C22.8118 7.47815 22.9008 7.66581 22.9856 7.85604L22.8674 7.85141L22.6442 7.88226V7.37481ZM20.838 5.19383L20.8401 4.63548C21.0365 4.8437 21.2257 5.0581 21.4067 5.28021L21.1815 5.61542L20.3943 5.60823L20.345 5.44422L20.838 5.19383ZM5.75938 3.80617V3.78509H6.00977L6.03136 3.69923H6.44113V3.87815L6.32339 4.03548H5.75887L5.75938 3.80617ZM6.15938 4.36401C6.15938 4.36401 6.40977 4.32134 6.43136 4.32134C6.45296 4.32134 6.43136 4.57121 6.43136 4.57121L5.86684 4.60668L5.75938 4.47815L6.15938 4.36401ZM23.4406 9.32596H22.526L21.9686 8.91105L21.382 8.96812V9.32596H21.1964L20.9959 9.18303L19.9799 8.92545V8.26735L18.6925 8.36761L18.2936 8.582H17.7825L17.5321 8.55681L16.9116 8.90129V9.54961L15.6432 10.4648L15.7486 10.8555H16.0057L15.9383 11.2278L15.7573 11.2941L15.7476 12.2668L16.8437 13.5152H17.3208L17.3496 13.4391H18.2072L18.4545 13.2103H18.9409L19.2077 13.4776L19.9326 13.5527L19.8365 14.5167L20.6411 15.9373L20.2175 16.747L20.2463 17.1285L20.5799 17.4612V18.3784L21.018 18.9676V19.7296H21.3964C19.2905 22.3152 16.0853 23.9712 12.4992 23.9712C6.17429 23.9717 1.02828 18.8252 1.02828 12.4997C1.02828 10.9075 1.35527 9.38972 1.94396 8.01028V7.65244L2.35424 7.15424C2.49666 6.88535 2.64936 6.62314 2.81234 6.36761L2.83085 6.57584L2.35476 7.15424C2.2072 7.4329 2.06941 7.71774 1.94447 8.01028V8.66324L2.42108 8.89254V9.8L2.87815 10.5799L3.24987 10.637L3.29769 10.3697L2.85913 9.69306L2.77326 9.03548H3.03033L3.13882 9.71208L3.77275 10.637L3.60925 10.9357L4.01234 11.5522L5.01337 11.8V11.638L5.41388 11.6951L5.37584 11.981L5.69049 12.0386L6.17635 12.1712L6.86272 12.9532L7.73933 13.0195L7.82519 13.7347L7.22519 14.1542L7.19692 14.7928L7.11105 15.1835L7.97892 16.2699L8.04524 16.6422C8.04524 16.6422 8.3599 16.7275 8.39846 16.7275C8.4365 16.7275 9.10386 17.2329 9.10386 17.2329V19.1964L9.3419 19.2632L9.17995 20.1692L9.58046 20.7033L9.50643 21.601L10.0355 22.5311L10.7147 23.1244L11.3974 23.1368L11.4643 22.9172L10.9625 22.4946L10.9913 22.2848L11.0812 22.0278L11.1003 21.7656L10.7609 21.7553L10.5897 21.5404L10.8715 21.2694L10.9095 21.0648L10.5949 20.9748L10.6134 20.7846L11.0617 20.7167L11.7434 20.3892L11.9722 19.9697L12.6874 19.0545L12.5249 18.3388L12.7445 17.9578L13.4021 17.9779L13.8447 17.6272L13.9877 16.2463L14.4787 15.6226L14.5645 15.2221L14.1167 15.0787L13.8211 14.5938L12.8108 14.5835L12.0098 14.2781L11.9717 13.7069L11.7044 13.2396L10.9799 13.2288L10.5614 12.5717L10.1897 12.3902L10.1707 12.5907L9.49409 12.6308L9.24627 12.2859L8.54036 12.1424L7.95887 12.8144L7.0437 12.6591L6.97738 11.6278L6.30951 11.5136L6.57738 11.0077L6.50077 10.7172L5.62314 11.3039L5.07095 11.2365L4.87404 10.8051L4.99434 10.3604L5.29871 9.79949L5.99949 9.44473L7.3527 9.44422L7.3491 9.85707L7.83548 10.0833L7.79692 9.37789L8.14756 9.02519L8.85501 8.56041L8.90334 8.23342L9.60874 7.49923L10.3589 7.0838L10.2925 7.02931L10.8005 6.55116L10.9866 6.60051L11.072 6.70745L11.2648 6.49357L11.3121 6.47249L11.1008 6.44267L10.8864 6.37121V6.16555L11 6.07249H11.2504L11.365 6.12288L11.4643 6.32339L11.5856 6.30488V6.2874L11.6206 6.29923L11.9722 6.24524L12.0221 6.07352L12.2226 6.12391V6.31003L12.0365 6.43805H12.037L12.0643 6.64216L12.7013 6.83856C12.7013 6.83856 12.7018 6.84113 12.7028 6.84627L12.8494 6.83393L12.8591 6.55784L12.3542 6.32802L12.3254 6.19537L12.7445 6.05244L12.763 5.65141L12.3249 5.38458L12.2961 4.70848L11.6956 5.0036H11.4766L11.5342 4.48895L10.7167 4.29614L10.3784 4.55167V5.33111L9.77018 5.52391L9.52648 6.03188L9.26221 6.07455V5.42468L8.69049 5.3455L8.40463 5.15938L8.28946 4.7383L9.31208 4.13985L9.81234 3.98766L9.86273 4.32391L10.1414 4.30951L10.163 4.14036L10.4545 4.09871L10.4596 4.03959L10.3342 3.98766L10.3054 3.80874L10.6638 3.77841L10.8802 3.55321L10.892 3.53676L10.8946 3.53779L10.9604 3.46992L11.7136 3.37481L12.0468 3.65758L11.1733 4.12288L12.2848 4.38509L12.4288 4.01337H12.9147L13.0864 3.68946L12.7429 3.6036V3.19383L11.6658 2.71671L10.9224 2.80257L10.5028 3.02211L10.5316 3.55578L10.0931 3.48895L10.0257 3.19383L10.4458 2.81234L9.68329 2.77429L9.46427 2.84062L9.36915 3.09769L9.65501 3.14602L9.59794 3.43188L9.11208 3.46067L9.03599 3.6509L8.33111 3.67044C8.33111 3.67044 8.31157 3.27044 8.28329 3.27044C8.25501 3.27044 8.83599 3.26067 8.83599 3.26067L9.25604 2.85039L9.02673 2.73573L8.72185 3.03188L8.21594 3.00308L7.91105 2.58355H7.26273L6.58612 3.08895H7.20617L7.26273 3.27044L7.1018 3.42005L7.78817 3.43907L7.89306 3.68689L7.12031 3.6581L7.08278 3.46735L6.59692 3.36247L6.33933 3.21954L5.76093 3.22416C7.6545 1.84473 9.98303 1.02828 12.4997 1.02828C15.4005 1.02828 18.0509 2.1126 20.073 3.89409L19.9368 4.13779L19.4077 4.34499L19.1846 4.58715L19.236 4.86941L19.509 4.90745L19.6735 5.31877L20.1445 5.12905L20.2221 5.67918H20.0802L19.6936 5.62211L19.2648 5.69409L18.8499 6.28021L18.2566 6.37326L18.1707 6.88123L18.4211 6.94036L18.3486 7.26684L17.7594 7.14859L17.219 7.26684L17.1044 7.56761L17.1979 8.19897L17.5152 8.34756L18.0473 8.34447L18.4067 8.31208L18.5162 8.02622L19.0776 7.29666L19.4473 7.37224L19.8113 7.04319L19.8792 7.30026L20.7748 7.90437L20.6653 8.05141L20.2617 8.02982L20.417 8.24987L20.6653 8.30437L20.9563 8.18303L20.9501 7.83239L21.0792 7.76761L20.9753 7.65758L20.3779 7.32442L20.2206 6.88175H20.7172L20.8761 7.03907L21.3039 7.40771L21.3219 7.85347L21.765 8.32545L21.9301 7.67866L22.237 7.51105L22.2946 8.0401L22.5943 8.36915L23.1923 8.35887C23.308 8.65656 23.4118 8.95938 23.5028 9.26838L23.4406 9.32596ZM6.81799 5.67918L7.11825 5.53625L7.38972 5.60103L7.29614 5.96555L7.00309 6.05861L6.81799 5.67918ZM8.41131 6.53728V6.77326H7.72545L7.46838 6.7018L7.53265 6.53728L7.86221 6.40103H8.3126V6.53728H8.41131ZM8.72699 6.86632V7.09512L8.55527 7.20566L8.34139 7.24524C8.34139 7.24524 8.34139 6.90231 8.34139 6.86632H8.72699ZM8.53368 6.77326V6.50129L8.76967 6.7162L8.53368 6.77326ZM8.64113 7.32339V7.54602L8.47712 7.71054H8.1126L8.16967 7.46067L8.3419 7.44576L8.37738 7.3599L8.64113 7.32339ZM7.73316 6.86632H8.11208L7.62622 7.5455L7.42571 7.43805L7.46889 7.15219L7.73316 6.86632ZM9.28483 7.24524V7.46735H8.92031L8.82057 7.32339V7.11671H8.84936L9.28483 7.24524ZM8.94807 6.93985L9.05193 6.83085L9.22725 6.93985L9.08689 7.05553L8.94807 6.93985ZM23.6267 9.90488L23.6627 9.86273C23.6776 9.92751 23.6936 9.99229 23.708 10.0581L23.6267 9.90488Z" fill="white"/>
</svg>
