<svg width="14" height="21" viewBox="0 0 14 21" fill="none" xmlns="http://www.w3.org/2000/svg">
<path d="M12.263 9.49208H3.57879V5.54471C3.57879 3.65834 5.11348 2.12366 6.99985 2.12366C8.88622 2.12366 10.4209 3.65834 10.4209 5.54471V7.12366C10.4209 7.55966 10.7744 7.91313 11.2104 7.91313C11.6464 7.91313 11.9998 7.55966 11.9998 7.12366V5.54471C11.9998 2.78771 9.75685 0.544708 6.99985 0.544708C4.24285 0.544708 1.99985 2.78771 1.99985 5.54471V9.49208H1.73669C1.01 9.49208 0.420898 10.0812 0.420898 10.8079V19.2289C0.420898 19.9556 1.01 20.5447 1.73669 20.5447H12.263C12.9897 20.5447 13.5788 19.9556 13.5788 19.2289V10.8079C13.5788 10.0812 12.9897 9.49208 12.263 9.49208ZM5.4209 13.9658C5.4209 13.0937 6.12779 12.3868 6.99985 12.3868C7.87185 12.3868 8.5788 13.0937 8.5788 13.9658C8.5788 14.5501 8.26116 15.0599 7.78932 15.333V17.65H6.21037V15.333C5.73853 15.0599 5.4209 14.5501 5.4209 13.9658Z" fill="#304962"/>
</svg>
