<svg width="25" height="17" viewBox="0 0 25 17" fill="none" xmlns="http://www.w3.org/2000/svg">
<path d="M23.9583 0.166504H1.04169C0.466369 0.166504 0 0.699494 0 1.35693C0 2.01436 0.466369 2.54742 1.04169 2.54742H23.9584C24.5337 2.54742 25 2.01443 25 1.35693C25 0.699425 24.5336 0.166504 23.9583 0.166504Z" fill="white"/>
<path d="M23.9583 7.30908H1.04169C0.466369 7.30908 0 7.84207 0 8.49957C0 9.15706 0.466369 9.69005 1.04169 9.69005H23.9584C24.5337 9.69005 25 9.15706 25 8.49957C25 7.84207 24.5336 7.30908 23.9583 7.30908Z" fill="white"/>
<path d="M23.9583 14.4521H1.04169C0.466369 14.4521 0 14.9851 0 15.6426C0 16.3001 0.466369 16.8331 1.04169 16.8331H23.9584C24.5337 16.8331 25 16.3001 25 15.6426C25 14.9851 24.5336 14.4521 23.9583 14.4521Z" fill="white"/>
</svg>
