<svg width="11" height="11" viewBox="0 0 11 11" fill="none" xmlns="http://www.w3.org/2000/svg">
<path d="M10.798 5.25C10.798 5.16964 10.7578 5.07924 10.6975 5.01897L10.1953 4.51674C10.135 4.45647 10.0446 4.41629 9.96429 4.41629C9.88393 4.41629 9.79353 4.45647 9.73326 4.51674L5.78571 8.46429L1.83817 4.51674C1.7779 4.45647 1.6875 4.41629 1.60714 4.41629C1.51674 4.41629 1.43638 4.45647 1.37612 4.51674L0.873884 5.01897C0.813616 5.07924 0.773438 5.16964 0.773438 5.25C0.773438 5.33036 0.813616 5.42076 0.873884 5.48103L5.55469 10.1618C5.61496 10.2221 5.70536 10.2623 5.78571 10.2623C5.86607 10.2623 5.95647 10.2221 6.01674 10.1618L10.6975 5.48103C10.7578 5.42076 10.798 5.33036 10.798 5.25ZM10.798 1.39286C10.798 1.3125 10.7578 1.2221 10.6975 1.16183L10.1953 0.659598C10.135 0.59933 10.0446 0.559151 9.96429 0.559151C9.88393 0.559151 9.79353 0.59933 9.73326 0.659598L5.78571 4.60714L1.83817 0.659598C1.7779 0.59933 1.6875 0.559151 1.60714 0.559151C1.51674 0.559151 1.43638 0.59933 1.37612 0.659598L0.873884 1.16183C0.813616 1.2221 0.773438 1.3125 0.773438 1.39286C0.773438 1.47321 0.813616 1.56362 0.873884 1.62388L5.55469 6.30469C5.61496 6.36496 5.70536 6.40513 5.78571 6.40513C5.86607 6.40513 5.95647 6.36496 6.01674 6.30469L10.6975 1.62388C10.7578 1.56362 10.798 1.47321 10.798 1.39286Z" fill="#F8971C"/>
</svg>
