<svg width="7" height="15" viewBox="0 0 7 15" fill="none" xmlns="http://www.w3.org/2000/svg">
<path d="M3.5 6.75C2.42783 6.75 1.55556 5.90887 1.55556 4.875C1.55556 3.84113 2.42783 3 3.5 3C4.57217 3 5.44444 3.84113 5.44444 4.875C5.44444 5.28919 5.79265 5.625 6.22222 5.625C6.6518 5.625 7 5.28919 7 4.875C7 3.27183 5.8344 1.92712 4.27778 1.58503V0.75C4.27778 0.335812 3.92958 0 3.5 0C3.07042 0 2.72222 0.335812 2.72222 0.75V1.58503C1.1656 1.92712 0 3.27183 0 4.875C0 6.73598 1.57009 8.25 3.5 8.25C4.57217 8.25 5.44444 9.09113 5.44444 10.125C5.44444 11.1589 4.57217 12 3.5 12C2.42783 12 1.55556 11.1589 1.55556 10.125C1.55556 9.71081 1.20735 9.375 0.777778 9.375C0.348201 9.375 0 9.71081 0 10.125C0 11.7282 1.1656 13.0729 2.72222 13.415V14.25C2.72222 14.6642 3.07042 15 3.5 15C3.92958 15 4.27778 14.6642 4.27778 14.25V13.415C5.8344 13.0729 7 11.7282 7 10.125C7 8.26402 5.42991 6.75 3.5 6.75Z" fill="#FF0000"/>
</svg>
