<svg width="30" height="30" viewBox="0 0 30 30" fill="none" xmlns="http://www.w3.org/2000/svg">
<path d="M19.375 8.75H8.12502C7.78002 8.75 7.5 9.03002 7.5 9.37502C7.5 9.72002 7.78002 10 8.12502 10H19.375C19.72 10 20 9.72002 20 9.37502C20 9.03002 19.72 8.75 19.375 8.75Z" fill="#363636"/>
<path d="M4.375 22.5C3.34123 22.5 2.5 23.3412 2.5 24.375C2.5 25.4088 3.34123 26.25 4.375 26.25C5.40877 26.25 6.25 25.4088 6.25 24.375C6.25 23.3412 5.40871 22.5 4.375 22.5ZM4.375 25C4.03 25 3.74998 24.72 3.74998 24.375C3.74998 24.03 4.03 23.75 4.375 23.75C4.72 23.75 4.99996 24.03 4.99996 24.375C4.99996 24.72 4.72 25 4.375 25Z" fill="#363636"/>
<path d="M4.375 17.5C3.34123 17.5 2.5 18.3412 2.5 19.375C2.5 20.4088 3.34123 21.25 4.375 21.25C5.40877 21.25 6.25 20.4088 6.25 19.375C6.25 18.3412 5.40871 17.5 4.375 17.5ZM4.375 20C4.03 20 3.74998 19.7199 3.74998 19.3749C3.74998 19.0299 4.03 18.75 4.375 18.75C4.72 18.75 5.00002 19.03 5.00002 19.375C5.00002 19.72 4.72 20 4.375 20Z" fill="#363636"/>
<path d="M4.375 12.5C3.34123 12.5 2.5 13.3412 2.5 14.375C2.5 15.4088 3.34123 16.25 4.375 16.25C5.40877 16.25 6.25 15.4088 6.25 14.375C6.25 13.3413 5.40871 12.5 4.375 12.5ZM4.375 15C4.03 15 3.74998 14.72 3.74998 14.375C3.74998 14.03 4.03 13.75 4.375 13.75C4.72 13.75 5.00002 14.03 5.00002 14.375C5.00002 14.72 4.72 15 4.375 15Z" fill="#363636"/>
<path d="M4.375 7.5C3.34123 7.5 2.5 8.34123 2.5 9.375C2.5 10.4088 3.34123 11.25 4.375 11.25C5.40877 11.25 6.25 10.4088 6.25 9.375C6.25 8.34123 5.40871 7.5 4.375 7.5ZM4.375 10C4.03 10 3.74998 9.72 3.74998 9.375C3.74998 9.03 4.03 8.74998 4.375 8.74998C4.72 8.74998 4.99996 9.03 4.99996 9.375C4.99996 9.72 4.72 10 4.375 10Z" fill="#363636"/>
<path d="M26.7225 6.25002C25.8475 6.25002 25.025 6.59127 24.4062 7.21002L22.6825 8.93379L22.5 9.11625V4.37502C22.5 3.34125 21.6588 2.50002 20.625 2.50002H17.385C17.1263 1.77375 16.4388 1.25004 15.625 1.25004H13.4075C12.9663 0.4875 12.1475 0 11.25 0C10.3525 0 9.53373 0.4875 9.09252 1.24998H6.87504C6.06129 1.24998 5.37381 1.77375 5.11506 2.49996H1.875C0.841231 2.49996 0 3.34119 0 4.37496V28.125C0 29.1588 0.841231 30 1.875 30H20.625C21.6588 30 22.5 29.1588 22.5 28.125V18.3825L27.3125 13.57C27.3137 13.5688 27.315 13.5688 27.3162 13.5675C27.3175 13.5663 27.3175 13.565 27.3187 13.5638L29.04 11.8425C29.66 11.2238 30 10.4013 30 9.525C30 7.71873 28.53 6.25002 26.7225 6.25002ZM6.25002 3.12498C6.25002 2.77998 6.53004 2.49996 6.87504 2.49996H9.49002C9.75375 2.49996 9.99 2.33244 10.0788 2.08371C10.2563 1.58496 10.7275 1.24998 11.25 1.24998C11.7725 1.24998 12.2437 1.58496 12.4212 2.08371C12.51 2.33373 12.7463 2.49996 13.01 2.49996H15.625C15.97 2.49996 16.25 2.77998 16.25 3.12498V3.75H6.25002V3.12498ZM21.25 28.125C21.25 28.47 20.97 28.75 20.625 28.75H1.875C1.53 28.75 1.24998 28.47 1.24998 28.125V4.37502C1.24998 4.03002 1.53 3.75 1.875 3.75H4.99998V4.37502C4.99998 4.72002 5.28 5.00004 5.625 5.00004H16.875C17.22 5.00004 17.5 4.72002 17.5 4.37502V3.75H20.625C20.97 3.75 21.25 4.03002 21.25 4.37502V10.3663L17.7875 13.8288C17.7001 13.7825 17.605 13.75 17.5 13.75H8.12502C7.78002 13.75 7.5 14.03 7.5 14.375C7.5 14.72 7.78002 15 8.12502 15H16.6163L12.8663 18.75H8.12502C7.78002 18.75 7.5 19.03 7.5 19.375C7.5 19.72 7.78002 20 8.12502 20H12.325L11.3875 23.75H8.12502C7.78002 23.75 7.5 24.0301 7.5 24.3751C7.5 24.7201 7.78002 25.0001 8.12502 25.0001H11.875C11.9263 25.0001 11.9763 24.9938 12.0262 24.9801L17.0262 23.7301C17.0412 23.7264 17.0513 23.7126 17.0662 23.7076C17.145 23.6814 17.2162 23.6413 17.2775 23.5888C17.2887 23.5788 17.3062 23.5776 17.3175 23.5663L21.25 19.6326V28.125ZM13.59 20.0963C13.9938 20.2137 14.5912 20.4738 15.1825 21.0663C15.775 21.6588 16.0363 22.2575 16.1538 22.66L12.7338 23.5163L13.59 20.0963ZM17.2062 21.9087C17.0025 21.3937 16.6637 20.78 16.065 20.1825C15.4688 19.5863 14.8563 19.2462 14.3412 19.0437L23.125 10.26L25.99 13.125L17.2062 21.9087ZM28.1562 10.9587L26.8737 12.2412L24.0087 9.37623L25.2912 8.0925C25.6737 7.70877 26.1825 7.49877 26.725 7.49877C27.8412 7.49877 28.75 8.4075 28.75 9.52629C28.75 10.0675 28.5387 10.5762 28.1562 10.9587Z" fill="#363636"/>
<path d="M23.1447 10.1704L26.0901 13.1429C26.0901 13.1429 17.8403 23.4633 17.1702 21.9816C16.5 20.5 15.5 19.5 14.2247 19.0092C12.9495 18.5184 23.1447 10.1704 23.1447 10.1704Z" fill="#F89820"/>
<path d="M25.3791 7.98553C26.1778 7.22247 27.4438 7.2513 28.2068 8.04993L28.31 8.15793C29.0731 8.95656 29.0443 10.2226 28.2456 10.9856L26.8265 12.3416L23.96 9.34149L25.3791 7.98553Z" fill="#F89820"/>
</svg>
