<svg width="30" height="31" viewBox="0 0 30 31" fill="none" xmlns="http://www.w3.org/2000/svg">
<g clip-path="url(#clip0)">
<path d="M19.375 8.94995H8.12502C7.78002 8.94995 7.5 9.22997 7.5 9.57497C7.5 9.91997 7.78002 10.2 8.12502 10.2H19.375C19.72 10.2 20 9.91997 20 9.57497C20 9.22997 19.72 8.94995 19.375 8.94995Z" fill="white"/>
<path d="M4.375 22.7C3.34123 22.7 2.5 23.5412 2.5 24.575C2.5 25.6088 3.34123 26.45 4.375 26.45C5.40877 26.45 6.25 25.6088 6.25 24.575C6.25 23.5412 5.40871 22.7 4.375 22.7ZM4.375 25.2C4.03 25.2 3.74998 24.92 3.74998 24.575C3.74998 24.23 4.03 23.95 4.375 23.95C4.72 23.95 4.99996 24.23 4.99996 24.575C4.99996 24.92 4.72 25.2 4.375 25.2Z" fill="white"/>
<path d="M4.375 17.7C3.34123 17.7 2.5 18.5412 2.5 19.575C2.5 20.6088 3.34123 21.45 4.375 21.45C5.40877 21.45 6.25 20.6088 6.25 19.575C6.25 18.5412 5.40871 17.7 4.375 17.7ZM4.375 20.2C4.03 20.2 3.74998 19.9199 3.74998 19.5749C3.74998 19.2299 4.03 18.95 4.375 18.95C4.72 18.95 5.00002 19.23 5.00002 19.575C5.00002 19.92 4.72 20.2 4.375 20.2Z" fill="white"/>
<path d="M4.375 12.7C3.34123 12.7 2.5 13.5412 2.5 14.575C2.5 15.6087 3.34123 16.45 4.375 16.45C5.40877 16.45 6.25 15.6087 6.25 14.575C6.25 13.5412 5.40871 12.7 4.375 12.7ZM4.375 15.2C4.03 15.2 3.74998 14.92 3.74998 14.575C3.74998 14.23 4.03 13.9499 4.375 13.9499C4.72 13.9499 5.00002 14.23 5.00002 14.575C5.00002 14.92 4.72 15.2 4.375 15.2Z" fill="white"/>
<path d="M4.375 7.69998C3.34123 7.69998 2.5 8.54121 2.5 9.57498C2.5 10.6088 3.34123 11.45 4.375 11.45C5.40877 11.45 6.25 10.6088 6.25 9.57498C6.25 8.54121 5.40871 7.69998 4.375 7.69998ZM4.375 10.2C4.03 10.2 3.74998 9.91998 3.74998 9.57498C3.74998 9.22998 4.03 8.94996 4.375 8.94996C4.72 8.94996 4.99996 9.22998 4.99996 9.57498C4.99996 9.91998 4.72 10.2 4.375 10.2Z" fill="white"/>
<path d="M26.7225 6.45C25.8475 6.45 25.025 6.79125 24.4062 7.41L22.6825 9.13377L22.5 9.31623V4.575C22.5 3.54123 21.6588 2.7 20.625 2.7H17.385C17.1263 1.97373 16.4388 1.45002 15.625 1.45002H13.4075C12.9663 0.687482 12.1475 0.199982 11.25 0.199982C10.3525 0.199982 9.53373 0.687482 9.09252 1.44996H6.87504C6.06129 1.44996 5.37381 1.97373 5.11506 2.69994H1.875C0.841231 2.69994 0 3.54117 0 4.57494V28.325C0 29.3588 0.841231 30.2 1.875 30.2H20.625C21.6588 30.2 22.5 29.3588 22.5 28.325V18.5825L27.3125 13.77C27.3137 13.7688 27.315 13.7688 27.3162 13.7675C27.3175 13.7663 27.3175 13.765 27.3187 13.7637L29.04 12.0425C29.66 11.4237 30 10.6013 30 9.72498C30 7.91871 28.53 6.45 26.7225 6.45ZM6.25002 3.32496C6.25002 2.97996 6.53004 2.69994 6.87504 2.69994H9.49002C9.75375 2.69994 9.99 2.53242 10.0788 2.28369C10.2563 1.78494 10.7275 1.44996 11.25 1.44996C11.7725 1.44996 12.2437 1.78494 12.4212 2.28369C12.51 2.53371 12.7463 2.69994 13.01 2.69994H15.625C15.97 2.69994 16.25 2.97996 16.25 3.32496V3.94998H6.25002V3.32496ZM21.25 28.325C21.25 28.67 20.97 28.95 20.625 28.95H1.875C1.53 28.95 1.24998 28.67 1.24998 28.325V4.575C1.24998 4.23 1.53 3.94998 1.875 3.94998H4.99998V4.575C4.99998 4.92 5.28 5.20002 5.625 5.20002H16.875C17.22 5.20002 17.5 4.92 17.5 4.575V3.94998H20.625C20.97 3.94998 21.25 4.23 21.25 4.575V10.5663L17.7875 14.0288C17.7001 13.9825 17.605 13.95 17.5 13.95H8.12502C7.78002 13.95 7.5 14.23 7.5 14.575C7.5 14.92 7.78002 15.2 8.12502 15.2H16.6163L12.8663 18.95H8.12502C7.78002 18.95 7.5 19.23 7.5 19.575C7.5 19.92 7.78002 20.2 8.12502 20.2H12.325L11.3875 23.95H8.12502C7.78002 23.95 7.5 24.23 7.5 24.575C7.5 24.92 7.78002 25.2001 8.12502 25.2001H11.875C11.9263 25.2001 11.9763 25.1938 12.0262 25.1801L17.0262 23.9301C17.0412 23.9263 17.0513 23.9126 17.0662 23.9076C17.145 23.8813 17.2162 23.8413 17.2775 23.7888C17.2887 23.7788 17.3062 23.7776 17.3175 23.7663L21.25 19.8326V28.325ZM13.59 20.2962C13.9938 20.4137 14.5912 20.6738 15.1825 21.2663C15.775 21.8588 16.0363 22.4575 16.1538 22.86L12.7338 23.7162L13.59 20.2962ZM17.2062 22.1087C17.0025 21.5937 16.6637 20.98 16.065 20.3825C15.4688 19.7862 14.8563 19.4462 14.3412 19.2437L23.125 10.46L25.99 13.325L17.2062 22.1087ZM28.1562 11.1587L26.8737 12.4412L24.0087 9.57621L25.2912 8.29248C25.6737 7.90875 26.1825 7.69875 26.725 7.69875C27.8412 7.69875 28.75 8.60748 28.75 9.72627C28.75 10.2675 28.5387 10.7762 28.1562 11.1587Z" fill="white"/>
<path d="M23.1447 10.3704L26.0901 13.3429C26.0901 13.3429 17.8403 23.6634 17.1702 22.1817C16.5 20.7 15.5 19.7 14.2247 19.2092C12.9495 18.7184 23.1447 10.3704 23.1447 10.3704Z" fill="#F89820"/>
<path d="M25.3791 8.18546C26.1778 7.4224 27.4438 7.45124 28.2068 8.24987L28.31 8.35787C29.0731 9.1565 29.0443 10.4225 28.2456 11.1856L26.8265 12.5415L23.96 9.54142L25.3791 8.18546Z" fill="#F89820"/>
</g>
<defs>
<clipPath id="clip0">
<rect width="30" height="30" fill="white" transform="translate(0 0.199982)"/>
</clipPath>
</defs>
</svg>
