<svg width="29" height="29" viewBox="0 0 29 29" fill="none" xmlns="http://www.w3.org/2000/svg">
<g clip-path="url(#clip0)">
<path d="M14.5 29C22.5081 29 29 22.5081 29 14.5C29 6.49187 22.5081 0 14.5 0C6.49187 0 0 6.49187 0 14.5C0 22.5081 6.49187 29 14.5 29Z" fill="#2DBBEB"/>
<path opacity="0.15" d="M28.7852 12.0248L22.4445 5.68408C21.1326 7.33367 21.1514 9.86691 22.1766 11.7707C17.5708 13.6471 13.8178 17.9118 12.2825 22.6883C10.9912 19.7832 8.01781 16.7263 4.52246 17.2738L16.1515 28.9028C23.3827 28.084 29.0002 21.9497 29.0002 14.5001C29.0002 13.6557 28.9234 12.83 28.7852 12.0248Z" fill="black"/>
<path d="M4.36035 17.1288L9.63665 13.9525L12.2211 18.8517C12.2211 18.8517 13.3521 15.1909 16.3664 11.206C19.3806 7.22104 22.5587 5.66016 22.5587 5.66016C22.5587 5.66016 22.3966 8.35204 22.5041 9.86004C22.6116 11.368 22.934 12.7669 22.934 12.7669C22.934 12.7669 19.8105 14.1674 16.5813 18.0977C13.3521 22.0281 12.3285 24.0206 12.3285 24.0206C12.3285 24.0206 10.3361 21.3287 8.2907 19.7132C6.24535 18.0977 4.36035 17.1288 4.36035 17.1288Z" fill="white"/>
</g>
<defs>
<clipPath id="clip0">
<rect width="29" height="29" fill="white"/>
</clipPath>
</defs>
</svg>
