<svg width="21" height="25" viewBox="0 0 21 25" fill="none" xmlns="http://www.w3.org/2000/svg">
<path d="M10.3223 12.0426C11.9767 12.0426 13.4091 11.4492 14.5799 10.2785C15.7502 9.10795 16.3438 7.67573 16.3438 6.02111C16.3438 4.36706 15.7504 2.93464 14.5797 1.76372C13.4089 0.593375 11.9765 0 10.3223 0C8.66766 0 7.23543 0.593375 6.06489 1.76391C4.89435 2.93445 4.30078 4.36687 4.30078 6.02111C4.30078 7.67573 4.89435 9.10814 6.06489 10.2787C7.23581 11.449 8.66823 12.0426 10.3223 12.0426ZM7.10096 2.79979C7.99913 1.90162 9.05275 1.46503 10.3223 1.46503C11.5916 1.46503 12.6454 1.90162 13.5438 2.79979C14.442 3.69815 14.8787 4.75196 14.8787 6.02111C14.8787 7.29064 14.442 8.34425 13.5438 9.24261C12.6454 10.141 11.5916 10.5776 10.3223 10.5776C9.05313 10.5776 7.99951 10.1408 7.10096 9.24261C6.2026 8.34444 5.76582 7.29064 5.76582 6.02111C5.76582 4.75196 6.2026 3.69815 7.10096 2.79979Z" fill="#C2C2C2"/>
<path d="M20.8579 19.2239C20.8241 18.7368 20.7558 18.2054 20.6553 17.6443C20.5538 17.0789 20.4232 16.5445 20.2668 16.056C20.105 15.5512 19.8855 15.0526 19.6137 14.5748C19.332 14.0789 19.0009 13.6471 18.6293 13.2917C18.2408 12.92 17.7651 12.6211 17.215 12.4031C16.6668 12.1862 16.0593 12.0764 15.4095 12.0764C15.1543 12.0764 14.9075 12.1811 14.4309 12.4914C14.1375 12.6827 13.7944 12.904 13.4114 13.1487C13.0839 13.3573 12.6402 13.5528 12.0923 13.7298C11.5576 13.9028 11.0148 13.9906 10.4788 13.9906C9.94324 13.9906 9.40041 13.9028 8.8654 13.7298C8.31799 13.553 7.87415 13.3575 7.54723 13.1489C7.16786 12.9064 6.82454 12.6852 6.5268 12.4912C6.05054 12.1809 5.80373 12.0762 5.54852 12.0762C4.8985 12.0762 4.2912 12.1862 3.74322 12.4033C3.19352 12.6209 2.71764 12.9198 2.32873 13.2919C1.95718 13.6474 1.62606 14.0791 1.34454 14.5748C1.07312 15.0526 0.853394 15.551 0.69165 16.0562C0.535439 16.5447 0.404785 17.0789 0.303314 17.6443C0.202606 18.2047 0.134514 18.7362 0.100754 19.2245C0.0675659 19.7019 0.0507812 20.1988 0.0507812 20.7008C0.0507812 22.0058 0.46563 23.0623 1.28369 23.8414C2.09164 24.6103 3.16052 25.0001 4.46076 25.0001H16.4984C17.7983 25.0001 18.8672 24.6103 19.6753 23.8414C20.4936 23.0629 20.9084 22.006 20.9084 20.7006C20.9082 20.1969 20.8912 19.7 20.8579 19.2239ZM18.6652 22.78C18.1313 23.2881 17.4225 23.5351 16.4982 23.5351H4.46076C3.53627 23.5351 2.8275 23.2881 2.29382 22.7802C1.77026 22.2818 1.51582 21.6015 1.51582 20.7008C1.51582 20.2324 1.53127 19.7698 1.56216 19.3258C1.5923 18.8902 1.65391 18.4116 1.74527 17.9031C1.83549 17.4009 1.95031 16.9296 2.08688 16.5029C2.21791 16.0938 2.39663 15.6887 2.61826 15.2984C2.82979 14.9265 3.07317 14.6074 3.34172 14.3503C3.59292 14.1098 3.90954 13.9129 4.28262 13.7653C4.62766 13.6288 5.01542 13.554 5.43637 13.5427C5.48768 13.57 5.57904 13.6221 5.72705 13.7186C6.02822 13.9149 6.37536 14.1388 6.75912 14.3839C7.1917 14.6597 7.74903 14.9088 8.41489 15.1237C9.09562 15.3438 9.78989 15.4556 10.479 15.4556C11.1681 15.4556 11.8626 15.3438 12.543 15.1239C13.2094 14.9086 13.7665 14.6597 14.1997 14.3835C14.5924 14.1325 14.9298 13.915 15.231 13.7186C15.379 13.6223 15.4704 13.57 15.5217 13.5427C15.9428 13.554 16.3306 13.6288 16.6758 13.7653C17.0487 13.9129 17.3653 14.11 17.6165 14.3503C17.8851 14.6072 18.1284 14.9263 18.34 15.2986C18.5618 15.6887 18.7407 16.094 18.8715 16.5027C19.0083 16.93 19.1233 17.4011 19.2133 17.9029C19.3045 18.4124 19.3663 18.8911 19.3964 19.326V19.3264C19.4275 19.7687 19.4432 20.231 19.4434 20.7008C19.4432 21.6016 19.1887 22.2818 18.6652 22.78Z" fill="#C2C2C2"/>
</svg>
