<svg width="27" height="27" viewBox="0 0 27 27" fill="none" xmlns="http://www.w3.org/2000/svg">
<path d="M11.0661 6.95123L9.85224 8.16528L8.55411 6.8669L8.49192 6.8047L8.40728 6.8286L4.26221 7.99881L4.22455 8.00945L4.19689 8.03712L0.893925 11.3407L0.787889 11.4467L0.893922 11.5528L3.67819 14.3377L3.67812 14.3377L3.78552 14.4451L3.85958 14.5192L2.54592 17.2298L2.49939 17.3258L2.57483 17.4012L3.36536 18.1919L1.27845 20.2793L1.17242 20.3853L1.27845 20.4914L2.31439 21.5275L2.42047 21.6336L2.52654 21.5275L4.6134 19.4403L5.46185 20.2889L0.923861 24.8277L0.817823 24.9338L0.92386 25.0398L1.9598 26.076L2.06587 26.1821L2.17195 26.076L6.7099 21.5372L7.55834 22.3858L5.47133 24.4732L5.3653 24.5793L5.47133 24.6853L6.50727 25.7215L6.61335 25.8276L6.71943 25.7215L8.80638 23.6341L9.59687 24.4248L9.67234 24.5003L9.76839 24.4537L12.4785 23.1398L15.4442 26.1061L15.5503 26.2122L15.6563 26.1061L18.959 22.8029L18.9866 22.7753L18.9973 22.7377L20.1713 18.5953L20.1953 18.5106L20.1331 18.4483L18.8311 17.1462L20.0439 15.9332C20.0442 15.9329 20.0446 15.9326 20.0449 15.9322C21.8904 14.1528 23.4193 11.9596 24.4675 9.58846C26.1961 5.67828 26.1592 2.42298 26.147 1.34693C26.1452 1.18463 26.1439 1.07191 26.1493 1.014L26.1647 0.849846L25.9999 0.85L25.266 0.850684C19.9825 0.855557 14.8081 3.07931 11.0661 6.95123ZM18.8144 14.6667L18.8143 14.6666L18.8123 14.6686L17.5842 15.8971L17.584 15.8969L17.4769 16.004L12.6587 20.8232L6.17566 14.3391L10.9941 9.51983L10.9942 9.51971L10.9943 9.51962L10.9943 9.51956L10.9943 9.51955L10.9944 9.51952L10.9944 9.51952L10.9945 9.51943L10.9948 9.51913L10.9948 9.5191L10.9951 9.51882L10.996 9.51789L10.9978 9.5161L11.0008 9.51304L11.0065 9.5074L11.0142 9.49965L11.0184 9.49545L11.0185 9.49533L11.0193 9.49453L11.0194 9.49445L11.0195 9.49437L11.02 9.49392L11.0225 9.49142L12.3285 8.18494L12.3285 8.18496L12.3303 8.18309C15.528 4.87202 19.8699 2.88234 24.3595 2.64089C24.1182 7.13443 22.1275 11.475 18.8144 14.6667ZM10.9611 9.34063C11.0876 9.2141 11.4164 8.88523 12.2224 8.07889C15.4497 4.73723 19.8334 2.73006 24.3669 2.49028L10.9611 9.34063ZM3.28394 11.4467L5.14706 9.58329L7.97547 8.78482L8.60409 9.41352L4.92752 13.0908L3.28394 11.4467ZM10.0325 22.3639L4.63538 16.9656L5.18066 15.8406L11.1574 21.8185L10.0325 22.3639ZM17.583 18.3947L18.2146 19.0262L17.4138 21.8519L15.5503 23.7157L13.9066 22.0718L17.583 18.3947Z" fill="white" stroke="white" stroke-width="0.3"/>
<path d="M17.807 9.18925L17.807 9.18924C17.4823 8.86441 17.0501 8.68565 16.5886 8.68565C16.1414 8.68565 15.7108 8.98802 15.3814 9.38064C15.2191 9.57395 15.0879 9.78185 14.9978 9.96947C14.9056 10.1615 14.864 10.3169 14.8641 10.4086C14.8643 11.3581 15.6243 12.1309 16.5891 12.1309C17.0515 12.1309 17.4825 11.9533 17.8047 11.6311L17.807 9.18925ZM17.807 9.18925C18.4792 9.86155 18.4784 10.9571 17.8047 11.631L17.807 9.18925ZM13.099 10.4091V10.4091C13.0993 11.3418 13.462 12.2187 14.1201 12.877L14.1201 12.877C15.4677 14.2247 17.6844 14.248 19.0528 12.8793C20.4147 11.5172 20.4159 9.30202 19.0551 7.941C18.3972 7.28295 17.5207 6.92031 16.5886 6.92031C14.6638 6.92031 13.0986 8.47193 13.099 10.4091Z" fill="white" stroke="white" stroke-width="0.3"/>
</svg>
