<svg width="72" height="12" viewBox="0 0 72 12" fill="none" xmlns="http://www.w3.org/2000/svg">
<g clip-path="url(#clip0)">
<path d="M11.9688 4.60294C11.8898 4.35995 11.6742 4.18792 11.4203 4.16494L7.95617 3.85045L6.58714 0.645275C6.48606 0.409794 6.25608 0.257812 6.00009 0.257812C5.7441 0.257812 5.51402 0.409794 5.41359 0.645275L4.04456 3.85045L0.579919 4.16494C0.325944 4.18838 0.110881 4.36041 0.0314108 4.60294C-0.0476015 4.84593 0.0253681 5.11244 0.217451 5.28091L2.83603 7.57702L2.06394 10.9776C2.00745 11.2276 2.1045 11.4862 2.31196 11.6361C2.42348 11.7172 2.55449 11.7576 2.68597 11.7576C2.79895 11.7576 2.91202 11.7276 3.013 11.6672L6.00009 9.88111L8.98662 11.6672C9.20572 11.7981 9.48121 11.7861 9.68821 11.6361C9.89568 11.4862 9.99273 11.2276 9.93624 10.9776L9.16415 7.57702L11.7827 5.28091C11.9747 5.11244 12.0478 4.84648 11.9688 4.60294Z" fill="#FFA12B"/>
</g>
<g clip-path="url(#clip1)">
<path d="M26.7383 4.60294C26.6593 4.35995 26.4438 4.18792 26.1898 4.16494L22.7257 3.85045L21.3567 0.645275C21.2556 0.409794 21.0256 0.257812 20.7696 0.257812C20.5136 0.257812 20.2836 0.409794 20.1831 0.645275L18.8141 3.85045L15.3495 4.16494C15.0955 4.18838 14.8804 4.36041 14.8009 4.60294C14.7219 4.84593 14.7949 5.11244 14.987 5.28091L17.6056 7.57702L16.8335 10.9776C16.777 11.2276 16.874 11.4862 17.0815 11.6361C17.193 11.7172 17.324 11.7576 17.4555 11.7576C17.5685 11.7576 17.6815 11.7276 17.7825 11.6672L20.7696 9.88111L23.7562 11.6672C23.9752 11.7981 24.2507 11.7861 24.4577 11.6361C24.6652 11.4862 24.7623 11.2276 24.7058 10.9776L23.9337 7.57702L26.5523 5.28091C26.7442 5.11244 26.8173 4.84648 26.7383 4.60294Z" fill="#FFA12B"/>
</g>
<g clip-path="url(#clip2)">
<path d="M41.5073 4.60294C41.4283 4.35995 41.2128 4.18792 40.9588 4.16494L37.4947 3.85045L36.1257 0.645275C36.0246 0.409794 35.7947 0.257812 35.5387 0.257812C35.2827 0.257812 35.0526 0.409794 34.9522 0.645275L33.5831 3.85045L30.1185 4.16494C29.8645 4.18838 29.6495 4.36041 29.57 4.60294C29.491 4.84593 29.5639 5.11244 29.756 5.28091L32.3746 7.57702L31.6025 10.9776C31.546 11.2276 31.6431 11.4862 31.8505 11.6361C31.9621 11.7172 32.0931 11.7576 32.2245 11.7576C32.3375 11.7576 32.4506 11.7276 32.5516 11.6672L35.5387 9.88111L38.5252 11.6672C38.7443 11.7981 39.0198 11.7861 39.2268 11.6361C39.4343 11.4862 39.5313 11.2276 39.4748 10.9776L38.7027 7.57702L41.3213 5.28091C41.5133 5.11244 41.5864 4.84648 41.5073 4.60294Z" fill="#FFA12B"/>
</g>
<g clip-path="url(#clip3)">
<path d="M56.2769 4.60294C56.1979 4.35995 55.9823 4.18792 55.7284 4.16494L52.2643 3.85045L50.8952 0.645275C50.7942 0.409794 50.5642 0.257812 50.3082 0.257812C50.0522 0.257812 49.8221 0.409794 49.7217 0.645275L48.3527 3.85045L44.888 4.16494C44.634 4.18838 44.419 4.36041 44.3395 4.60294C44.2605 4.84593 44.3335 5.11244 44.5256 5.28091L47.1441 7.57702L46.372 10.9776C46.3156 11.2276 46.4126 11.4862 46.6201 11.6361C46.7316 11.7172 46.8626 11.7576 46.9941 11.7576C47.1071 11.7576 47.2201 11.7276 47.3211 11.6672L50.3082 9.88111L53.2947 11.6672C53.5138 11.7981 53.7893 11.7861 53.9963 11.6361C54.2038 11.4862 54.3008 11.2276 54.2443 10.9776L53.4723 7.57702L56.0908 5.28091C56.2828 5.11244 56.3559 4.84648 56.2769 4.60294Z" fill="#FFA12B"/>
</g>
<g clip-path="url(#clip4)">
<path d="M71.0459 4.60294C70.9669 4.35995 70.7514 4.18792 70.4974 4.16494L67.0333 3.85045L65.6643 0.645275C65.5632 0.409794 65.3332 0.257812 65.0772 0.257812C64.8212 0.257812 64.5912 0.409794 64.4907 0.645275L63.1217 3.85045L59.6571 4.16494C59.4031 4.18838 59.188 4.36041 59.1086 4.60294C59.0295 4.84593 59.1025 5.11244 59.2946 5.28091L61.9132 7.57702L61.1411 10.9776C61.0846 11.2276 61.1816 11.4862 61.3891 11.6361C61.5006 11.7172 61.6316 11.7576 61.7631 11.7576C61.8761 11.7576 61.9892 11.7276 62.0902 11.6672L65.0772 9.88111L68.0638 11.6672C68.2829 11.7981 68.5584 11.7861 68.7654 11.6361C68.9728 11.4862 69.0699 11.2276 69.0134 10.9776L68.2413 7.57702L70.8599 5.28091C71.0519 5.11244 71.1249 4.84648 71.0459 4.60294Z" fill="#E0E0E0"/>
</g>
<g clip-path="url(#clip5)">
<path d="M71.0459 4.60294C70.9669 4.35995 70.7514 4.18792 70.4974 4.16494L67.0333 3.85045L65.6643 0.645275C65.5632 0.409794 65.3332 0.257812 65.0772 0.257812C64.8212 0.257812 64.5912 0.409794 64.4907 0.645275L63.1217 3.85045L59.6571 4.16494C59.4031 4.18838 59.188 4.36041 59.1086 4.60294C59.0295 4.84593 59.1025 5.11244 59.2946 5.28091L61.9132 7.57702L61.1411 10.9776C61.0846 11.2276 61.1816 11.4862 61.3891 11.6361C61.5006 11.7172 61.6316 11.7576 61.7631 11.7576C61.8761 11.7576 61.9892 11.7276 62.0902 11.6672L65.0772 9.88111L68.0638 11.6672C68.2829 11.7981 68.5584 11.7861 68.7654 11.6361C68.9728 11.4862 69.0699 11.2276 69.0134 10.9776L68.2413 7.57702L70.8599 5.28091C71.0519 5.11244 71.1249 4.84648 71.0459 4.60294Z" fill="#FFA12A"/>
</g>
<defs>
<clipPath id="clip0">
<rect width="12.0001" height="12.0001" fill="white"/>
</clipPath>
<clipPath id="clip1">
<rect width="12.0001" height="12.0001" fill="white" transform="translate(14.7695)"/>
</clipPath>
<clipPath id="clip2">
<rect width="12.0001" height="12.0001" fill="white" transform="translate(29.5386)"/>
</clipPath>
<clipPath id="clip3">
<rect width="12.0001" height="12.0001" fill="white" transform="translate(44.3081)"/>
</clipPath>
<clipPath id="clip4">
<rect width="12.0001" height="12.0001" fill="white" transform="translate(59.0771)"/>
</clipPath>
<clipPath id="clip5">
<rect width="6.00007" height="12.0001" fill="white" transform="translate(59.0771)"/>
</clipPath>
</defs>
</svg>
