<svg width="27" height="26" viewBox="0 0 27 26" fill="none" xmlns="http://www.w3.org/2000/svg">
<path d="M26.2512 10.0351C26.0779 9.50213 25.6052 9.12481 25.0481 9.07441L17.4503 8.38463L14.4476 1.35471C14.2259 0.838226 13.7215 0.504883 13.16 0.504883C12.5986 0.504883 12.0939 0.838226 11.8737 1.35471L8.87096 8.38463L1.27194 9.07441C0.714896 9.12581 0.243196 9.50313 0.0688934 10.0351C-0.104405 10.568 0.05564 11.1526 0.476937 11.5221L6.22028 16.5582L4.52685 24.0166C4.40295 24.565 4.61581 25.1321 5.07085 25.461C5.31543 25.6387 5.60279 25.7275 5.89115 25.7275C6.13895 25.7275 6.38695 25.6616 6.60844 25.5291L13.16 21.6117L19.7104 25.5291C20.191 25.8163 20.7952 25.7899 21.2492 25.461C21.7043 25.1321 21.9171 24.565 21.7932 24.0166L20.0998 16.5582L25.8431 11.5221C26.2642 11.1526 26.4245 10.5692 26.2512 10.0351Z" fill="#FFC700"/>
</svg>
