<svg width="25" height="25" viewBox="0 0 25 25" fill="none" xmlns="http://www.w3.org/2000/svg">
<path d="M10.3046 20.5897C4.62801 20.5897 0.00976562 15.9715 0.00976562 10.2949C0.00976562 4.61824 4.62801 0 10.3046 0C15.9812 0 20.5995 4.61824 20.5995 10.2949C20.5995 15.9715 15.9812 20.5897 10.3046 20.5897ZM10.3046 1.95163C5.70414 1.95163 1.9614 5.69437 1.9614 10.2949C1.9614 14.8953 5.70414 18.6381 10.3046 18.6381C14.9051 18.6381 18.6478 14.8953 18.6478 10.2949C18.6478 5.69437 14.9051 1.95163 10.3046 1.95163ZM24.7049 24.7142C25.0859 24.3331 25.0859 23.7152 24.7049 23.3341L20.3381 18.9674C19.957 18.5863 19.3391 18.5863 18.958 18.9674C18.577 19.3485 18.577 19.9664 18.958 20.3474L23.3248 24.7142C23.5154 24.9047 23.7651 25 24.0149 25C24.2646 25 24.5143 24.9047 24.7049 24.7142Z" fill="#969696"/>
</svg>
