<svg width="16" height="20" viewBox="0 0 16 20" fill="none" xmlns="http://www.w3.org/2000/svg">
<path d="M15.7721 17.7473L12.6001 13.2713C14.1338 11.878 15.0997 9.85884 15.0997 7.6118C15.0997 3.40796 11.7197 0 7.54929 0C3.37885 0 0 3.40796 0 7.6118C0 11.8156 3.37998 15.2236 7.54929 15.2236C8.36336 15.2236 9.14595 15.0932 9.88132 14.854L12.9959 19.4966C12.9959 19.4966 13.7594 20.4308 15.057 19.754C15.0547 19.7528 16.5592 19.0556 15.7721 17.7473ZM7.46046 13.4017C4.22216 13.4017 1.59666 10.7545 1.59666 7.48936C1.59666 4.22424 4.22216 1.57701 7.46046 1.57701C10.6988 1.57701 13.3243 4.22424 13.3243 7.48936C13.3243 10.7545 10.6988 13.4017 7.46046 13.4017Z" fill="#757474"/>
</svg>
