<svg width="30" height="30" viewBox="0 0 30 30" fill="none" xmlns="http://www.w3.org/2000/svg">
<path d="M29.7426 0.258291C29.494 0.00961969 29.121 -0.066845 28.7947 0.0637016L0.55251 11.3604C0.229366 11.4897 0.0129796 11.7974 0.000557715 12.1453C-0.0118055 12.4931 0.182257 12.8154 0.495381 12.9673L11.6322 18.3685L17.0334 29.5053C17.1807 29.8091 17.4884 30.0007 17.824 30.0007C17.8345 30.0007 17.845 30.0005 17.8554 30.0001C18.2032 29.9878 18.511 29.7714 18.6402 29.4482L29.9371 1.20622C30.0676 0.879735 29.9912 0.506904 29.7426 0.258291ZM3.05235 12.2538L25.4718 3.28606L12.1107 16.647L3.05235 12.2538ZM17.747 26.9484L13.3537 17.8899L26.7148 4.52895L17.747 26.9484Z" fill="#525252"/>
</svg>
