<svg width="17" height="17" viewBox="0 0 17 17" fill="none" xmlns="http://www.w3.org/2000/svg">
<path d="M8.84347 17C8.36599 17.0014 7.9078 16.8117 7.57113 16.4731L0.526958 9.42795C0.155227 9.05727 -0.0353802 8.5423 0.00543345 8.01893L0.455023 2.11488C0.519134 1.22683 1.2267 0.521185 2.11491 0.459483L8.01892 0.00989103C8.06478 0 8.11154 0 8.1574 0C8.63383 0.00122311 9.09048 0.190608 9.42794 0.526922L16.473 7.57113C16.8104 7.90841 17 8.36595 17 8.84303C17 9.32011 16.8104 9.77765 16.473 10.1149L10.1149 16.4731C9.77847 16.8114 9.32065 17.0012 8.84347 17ZM8.1565 1.79837L2.24799 2.24796L1.7984 8.1565L8.84347 15.2016L15.2007 8.84438L8.1565 1.79837ZM5.02825 6.82661C4.17029 6.82679 3.43168 6.22088 3.26413 5.37943C3.09659 4.53799 3.54677 3.69536 4.33936 3.36689C5.13196 3.03841 6.04621 3.31558 6.52298 4.02887C6.99976 4.74216 6.90627 5.69292 6.29969 6.29969C5.96325 6.63807 5.50542 6.8278 5.02825 6.82661Z" fill="#969696"/>
</svg>
