<svg width="30" height="32" viewBox="0 0 30 32" fill="none" xmlns="http://www.w3.org/2000/svg">
<g clip-path="url(#clip0)">
<path d="M3.75 18.9912V13.673H27.2727V18.9912H3.75Z" fill="#F89820"/>
<path fill-rule="evenodd" clip-rule="evenodd" d="M27.6322 12.7945H7.64167L26.8428 7.00972C26.992 6.96473 27.1179 6.85976 27.193 6.71836C27.2681 6.57673 27.2859 6.4101 27.2426 6.2549L26.2379 2.64745C25.8364 1.20662 24.5464 0.200195 23.1008 0.200195C22.7962 0.200195 22.4927 0.245184 22.1983 0.333734L4.17045 5.76502C3.33663 6.01615 2.64563 6.59268 2.22426 7.38796C1.80312 8.18324 1.70424 9.09897 1.94571 9.9659L2.92739 13.4903V28.0089C2.92739 29.8789 4.39017 31.4002 6.18804 31.4002H13.2289C13.5525 31.4002 13.8148 31.1274 13.8148 30.7908C13.8148 30.4542 13.5525 30.1814 13.2289 30.1814H6.18827C5.03631 30.1814 4.09926 29.2069 4.09926 28.0089V19.7161H7.10105H7.10242H7.10357H11.6922H11.6936H11.6949H16.2836H16.2849H16.2863H20.8749H20.8763H20.8774H27.0463V28.0089C27.0463 29.2069 26.1092 30.1814 24.9573 30.1814H17.9164C17.593 30.1814 17.3305 30.4542 17.3305 30.7908C17.3305 31.1274 17.593 31.4002 17.9164 31.4002H24.9573C26.7554 31.4002 28.2181 29.8789 28.2181 28.0089V13.4039C28.2181 13.0673 27.9558 12.7945 27.6322 12.7945ZM17.3003 18.4974L19.7898 14.0132H23.0278L20.5385 18.4974H17.3003ZM12.7089 18.4974L15.1984 14.0132H18.4364L15.9471 18.4974H12.7089ZM8.11774 18.4974L10.6071 14.0132H13.8453L11.3557 18.4974H8.11774ZM10.2962 10.6086L6.12739 6.44438L9.25094 5.50342C9.27291 5.53675 9.29854 5.56817 9.32784 5.59745L13.4967 9.76166L10.3731 10.7026C10.3512 10.6693 10.3253 10.6376 10.2962 10.6086ZM18.1478 2.94024L22.3167 7.10446L19.1931 8.04542C19.1711 8.01209 19.1455 7.98043 19.1162 7.95139L14.9473 3.78717L18.0709 2.84621C18.0929 2.87954 18.1185 2.91096 18.1478 2.94024ZM13.7377 4.26896L17.9066 8.43294L14.783 9.37414C14.761 9.34081 14.7354 9.30916 14.7061 9.28012L10.5373 5.1159L13.6608 4.17494C13.683 4.20802 13.7086 4.23968 13.7377 4.26896ZM22.5245 1.5044C22.7126 1.44775 22.9065 1.41894 23.1008 1.41894C24.028 1.41894 24.855 2.06355 25.1122 2.98666L25.954 6.00854L23.6032 6.7167C23.581 6.68337 23.5554 6.65195 23.5261 6.62267L19.3574 2.45869L22.5245 1.5044ZM3.2508 7.97591C3.52088 7.4658 3.96331 7.09636 4.4966 6.93569L4.84084 6.83191C4.86304 6.86523 4.88868 6.89689 4.91774 6.92593L9.0866 11.0901L3.91318 12.6488L3.07136 9.62694C2.91686 9.07255 2.98072 8.48626 3.2508 7.97591ZM4.09926 14.0132H9.25391L6.76459 18.4974H4.09926V14.0132ZM21.8916 18.4974L24.3809 14.0132H27.0463V18.4974H21.8916Z" fill="#363636"/>
<path fill-rule="evenodd" clip-rule="evenodd" d="M19.6243 24.8867C19.6243 24.6689 19.5127 24.4678 19.3314 24.359L14.1836 21.2681C14.0023 21.1593 13.7789 21.1593 13.5977 21.2681C13.4164 21.3769 13.3047 21.578 13.3047 21.7958V27.9777C13.3047 28.1952 13.4164 28.3964 13.5977 28.5051C13.6883 28.5597 13.7895 28.587 13.8906 28.587C13.9918 28.587 14.093 28.5597 14.1836 28.5051L19.3314 25.4145C19.5127 25.3057 19.6243 25.1046 19.6243 24.8867ZM14.4766 26.9222V22.8513L17.8665 24.8867L14.4766 26.9222Z" fill="#363636"/>
<path fill-rule="evenodd" clip-rule="evenodd" d="M15.5723 30.1814C15.2495 30.1814 14.9863 30.4553 14.9863 30.7912C14.9863 31.127 15.2495 31.4009 15.5723 31.4009C15.8952 31.4009 16.1582 31.127 16.1582 30.7912C16.1582 30.4553 15.8952 30.1814 15.5723 30.1814Z" fill="#363636"/>
</g>
<defs>
<clipPath id="clip0">
<rect width="30" height="31.2" fill="white" transform="translate(0 0.200195)"/>
</clipPath>
</defs>
</svg>
