<svg width="30" height="32" viewBox="0 0 30 32" fill="none" xmlns="http://www.w3.org/2000/svg">
<g clip-path="url(#clip0)">
<path d="M3.75 18.9909V13.6727H27.2727V18.9909H3.75Z" fill="#F89820"/>
<path fill-rule="evenodd" clip-rule="evenodd" d="M27.6322 12.7943H7.64167L26.8428 7.00951C26.992 6.96452 27.1179 6.85954 27.193 6.71815C27.2681 6.57652 27.2859 6.40989 27.2426 6.25469L26.2379 2.64724C25.8364 1.2064 24.5464 0.199982 23.1008 0.199982C22.7962 0.199982 22.4927 0.244971 22.1983 0.33352L4.17045 5.76481C3.33663 6.01594 2.64563 6.59246 2.22426 7.38775C1.80312 8.18303 1.70424 9.09876 1.94571 9.96569L2.92739 13.4901V28.0086C2.92739 29.8787 4.39017 31.4 6.18804 31.4H13.2289C13.5525 31.4 13.8148 31.1272 13.8148 30.7906C13.8148 30.454 13.5525 30.1812 13.2289 30.1812H6.18827C5.03631 30.1812 4.09926 29.2067 4.09926 28.0086V19.7159H7.10105H7.10242H7.10357H11.6922H11.6936H11.6949H16.2836H16.2849H16.2863H20.8749H20.8763H20.8774H27.0463V28.0086C27.0463 29.2067 26.1092 30.1812 24.9573 30.1812H17.9164C17.593 30.1812 17.3305 30.454 17.3305 30.7906C17.3305 31.1272 17.593 31.4 17.9164 31.4H24.9573C26.7554 31.4 28.2181 29.8787 28.2181 28.0086V13.4037C28.2181 13.0671 27.9558 12.7943 27.6322 12.7943ZM17.3003 18.4972L19.7898 14.013H23.0278L20.5385 18.4972H17.3003ZM12.7089 18.4972L15.1984 14.013H18.4364L15.9471 18.4972H12.7089ZM8.11774 18.4972L10.6071 14.013H13.8453L11.3557 18.4972H8.11774ZM10.2962 10.6084L6.12739 6.44417L9.25094 5.50321C9.27291 5.53653 9.29854 5.56795 9.32784 5.59723L13.4967 9.76145L10.3731 10.7024C10.3512 10.6691 10.3253 10.6374 10.2962 10.6084ZM18.1478 2.94003L22.3167 7.10424L19.1931 8.0452C19.1711 8.01188 19.1455 7.98022 19.1162 7.95118L14.9473 3.78696L18.0709 2.846C18.0929 2.87933 18.1185 2.91075 18.1478 2.94003ZM13.7377 4.26875L17.9066 8.43273L14.783 9.37393C14.761 9.3406 14.7354 9.30894 14.7061 9.2799L10.5373 5.11568L13.6608 4.17472C13.683 4.20781 13.7086 4.23947 13.7377 4.26875ZM22.5245 1.50419C22.7126 1.44753 22.9065 1.41873 23.1008 1.41873C24.028 1.41873 24.855 2.06334 25.1122 2.98644L25.954 6.00832L23.6032 6.71648C23.581 6.68316 23.5554 6.65174 23.5261 6.62246L19.3574 2.45848L22.5245 1.50419ZM3.2508 7.9757C3.52088 7.46558 3.96331 7.09615 4.4966 6.93548L4.84084 6.83169C4.86304 6.86502 4.88868 6.89668 4.91774 6.92572L9.0866 11.0899L3.91318 12.6486L3.07136 9.62672C2.91686 9.07233 2.98072 8.48605 3.2508 7.9757ZM4.09926 14.013H9.25391L6.76459 18.4972H4.09926V14.013ZM21.8916 18.4972L24.3809 14.013H27.0463V18.4972H21.8916Z" fill="white"/>
<path fill-rule="evenodd" clip-rule="evenodd" d="M19.6243 24.8866C19.6243 24.6688 19.5127 24.4676 19.3314 24.3588L14.1836 21.2679C14.0023 21.1591 13.7789 21.1591 13.5977 21.2679C13.4164 21.3767 13.3047 21.5779 13.3047 21.7957V27.9775C13.3047 28.195 13.4164 28.3962 13.5977 28.505C13.6883 28.5595 13.7895 28.5868 13.8906 28.5868C13.9918 28.5868 14.093 28.5595 14.1836 28.505L19.3314 25.4143C19.5127 25.3055 19.6243 25.1044 19.6243 24.8866ZM14.4766 26.922V22.8511L17.8665 24.8866L14.4766 26.922Z" fill="white"/>
<path fill-rule="evenodd" clip-rule="evenodd" d="M15.5723 30.1812C15.2495 30.1812 14.9863 30.4551 14.9863 30.791C14.9863 31.1268 15.2495 31.4007 15.5723 31.4007C15.8952 31.4007 16.1582 31.1268 16.1582 30.791C16.1582 30.4551 15.8952 30.1812 15.5723 30.1812Z" fill="white"/>
</g>
<defs>
<clipPath id="clip0">
<rect width="30" height="31.2" fill="white" transform="translate(0 0.199982)"/>
</clipPath>
</defs>
</svg>
