<svg width="30" height="32" viewBox="0 0 30 32" fill="none" xmlns="http://www.w3.org/2000/svg">
<g clip-path="url(#clip0)">
<path d="M28.2146 2.22858L26.4289 2.97143L25.3574 22.6571L27.1431 27.1143L29.286 23.7714V5.57143L28.2146 2.22858Z" fill="#F89820"/>
<path d="M0 29.2C0 30.3045 0.895431 31.2 2 31.2H20.7362C21.8408 31.2 22.7362 30.3046 22.7362 29.2V2C22.7362 0.895432 21.8408 0 20.7362 0H2C0.895432 0 0 0.895431 0 2V29.2ZM1.77165 3.84252C1.77165 2.73795 2.66708 1.84252 3.77165 1.84252H18.9646C20.0691 1.84252 20.9646 2.73795 20.9646 3.84252V27.3575C20.9646 28.462 20.0691 29.3575 18.9646 29.3575H3.77165C2.66708 29.3575 1.77165 28.462 1.77165 27.3575V3.84252Z" fill="white"/>
<path d="M27.4312 1.41351C26.0147 1.41351 24.8623 2.61201 24.8623 4.08517V23.7017L27.4312 30.3575L30.0001 23.7017V4.08517C30.0001 2.61201 28.8477 1.41351 27.4312 1.41351ZM28.2284 23.3458L27.4312 25.4113L26.634 23.3458V6.61451H28.2284V23.3458ZM26.634 4.772V4.08517C26.634 3.62798 26.9916 3.25603 27.4312 3.25603C27.8708 3.25603 28.2284 3.62798 28.2284 4.08517V4.772H26.634Z" fill="white"/>
<path d="M4.25195 4.97479H11.3681V6.81731H4.25195V4.97479Z" fill="white"/>
<path d="M4.42383 9.64252H18.3131V11.485H4.42383V9.64252Z" fill="white"/>
<path d="M4.42383 13.4504H18.3131V15.2929H4.42383V13.4504Z" fill="white"/>
<path d="M4.42383 17.2582H18.3131V19.1008H4.42383V17.2582Z" fill="white"/>
<path d="M4.42383 21.0661H18.3131V22.9086H4.42383V21.0661Z" fill="white"/>
<path d="M4.42383 24.874H8.62241V26.7165H4.42383V24.874Z" fill="white"/>
</g>
<defs>
<clipPath id="clip0">
<rect width="30" height="31.2" fill="white"/>
</clipPath>
</defs>
</svg>
