<svg width="30" height="32" viewBox="0 0 30 32" fill="none" xmlns="http://www.w3.org/2000/svg">
<g clip-path="url(#clip0)">
<path d="M28.2146 2.22852L26.4289 2.97137L25.3574 22.6571L27.1431 27.1142L29.286 23.7714V5.57137L28.2146 2.22852Z" fill="#F89820"/>
<path d="M0 29.2C0 30.3045 0.895431 31.2 2 31.2H20.7362C21.8408 31.2 22.7362 30.3046 22.7362 29.2V2C22.7362 0.895432 21.8408 0 20.7362 0H2C0.895432 0 0 0.895431 0 2V29.2ZM1.77165 3.84252C1.77165 2.73795 2.66708 1.84252 3.77165 1.84252H18.9646C20.0691 1.84252 20.9646 2.73795 20.9646 3.84252V27.3575C20.9646 28.462 20.0691 29.3575 18.9646 29.3575H3.77165C2.66708 29.3575 1.77165 28.462 1.77165 27.3575V3.84252Z" fill="#363636"/>
<path d="M27.4312 1.41345C26.0147 1.41345 24.8623 2.61195 24.8623 4.0851V23.7017L27.4312 30.3574L30.0001 23.7017V4.0851C30.0001 2.61195 28.8477 1.41345 27.4312 1.41345ZM28.2284 23.3457L27.4312 25.4113L26.634 23.3457V6.61445H28.2284V23.3457ZM26.634 4.77193V4.0851C26.634 3.62791 26.9916 3.25597 27.4312 3.25597C27.8708 3.25597 28.2284 3.62791 28.2284 4.0851V4.77193H26.634Z" fill="#363636"/>
<path d="M4.25195 4.97485H11.3681V6.81737H4.25195V4.97485Z" fill="#363636"/>
<path d="M4.42383 9.64246H18.3131V11.485H4.42383V9.64246Z" fill="#363636"/>
<path d="M4.42383 13.4504H18.3131V15.293H4.42383V13.4504Z" fill="#363636"/>
<path d="M4.42383 17.2583H18.3131V19.1008H4.42383V17.2583Z" fill="#363636"/>
<path d="M4.42383 21.0662H18.3131V22.9087H4.42383V21.0662Z" fill="#363636"/>
<path d="M4.42383 24.874H8.62241V26.7165H4.42383V24.874Z" fill="#363636"/>
</g>
<defs>
<clipPath id="clip0">
<rect width="30" height="31.2" fill="white"/>
</clipPath>
</defs>
</svg>
