<svg width="16" height="16" viewBox="0 0 16 16" fill="none" xmlns="http://www.w3.org/2000/svg">
<g clip-path="url(#clip0)">
<path d="M9.99967 4.33325C9.63167 4.33325 9.333 4.03459 9.333 3.66659V2.66659H6.66634V3.66659C6.66634 4.03459 6.36767 4.33325 5.99967 4.33325C5.63167 4.33325 5.33301 4.03459 5.33301 3.66659V2.66659C5.33301 1.93125 5.93101 1.33325 6.66634 1.33325H9.333C10.0683 1.33325 10.6663 1.93125 10.6663 2.66659V3.66659C10.6663 4.03459 10.3677 4.33325 9.99967 4.33325Z" fill="#3980D4"/>
<path d="M8.47333 10.2533C8.35333 10.2999 8.18 10.3333 8 10.3333C7.82 10.3333 7.64667 10.2999 7.48667 10.2399L0 7.74658V12.8333C0 13.8466 0.82 14.6666 1.83333 14.6666H14.1667C15.18 14.6666 16 13.8466 16 12.8333V7.74658L8.47333 10.2533Z" fill="#3980D4"/>
<path d="M16 5.16659V6.69325L8.16 9.30659C8.10667 9.32659 8.05333 9.33325 8 9.33325C7.94667 9.33325 7.89333 9.32659 7.84 9.30659L0 6.69325V5.16659C0 4.15325 0.82 3.33325 1.83333 3.33325H14.1667C15.18 3.33325 16 4.15325 16 5.16659Z" fill="#3980D4"/>
</g>
<defs>
<clipPath id="clip0">
<rect width="16" height="16" fill="white"/>
</clipPath>
</defs>
</svg>
