<svg width="20" height="20" viewBox="0 0 20 20" fill="none" xmlns="http://www.w3.org/2000/svg">
<path d="M18.3025 1.65022C17.2383 0.586035 15.8235 0 14.3185 0C12.8135 0 11.3986 0.586035 10.3345 1.65022C9.42358 2.56108 8.86553 3.71767 8.7206 4.99493C8.58579 6.18282 8.83524 7.39526 9.42405 8.42693L0.046875 17.8041L2.14864 19.9059L3.24678 18.8077L4.43913 20L6.40374 18.0354L5.21139 16.8431L6.68284 15.3716L7.87519 16.564L9.8398 14.5994L8.64745 13.407L11.5258 10.5287C12.5575 11.1175 13.7697 11.3668 14.9578 11.2321C16.2351 11.0872 17.3916 10.5291 18.3025 9.61827C19.3667 8.55408 19.9527 7.1392 19.9527 5.63426C19.9527 4.12928 19.3667 2.71437 18.3025 1.65022ZM16.8938 5.87023C16.5063 6.25777 15.9972 6.45158 15.4881 6.45158C14.9791 6.45158 14.47 6.25777 14.0824 5.87023C13.3073 5.09512 13.3073 3.83396 14.0824 3.05884C14.8576 2.28373 16.1187 2.28373 16.8938 3.05884C17.6689 3.83396 17.6689 5.09516 16.8938 5.87023Z" fill="#575E66"/>
</svg>
