<svg width="66" height="61" viewBox="0 0 66 61" fill="none" xmlns="http://www.w3.org/2000/svg">
<path d="M57.1326 9.14345C51.4156 3.42646 43.811 0.276001 35.7312 0.276001C27.502 0.276001 19.8024 3.52151 14.0582 9.41504C13.4336 10.0533 13.4471 11.0853 14.0854 11.7236C14.7236 12.3482 15.7557 12.3346 16.3939 11.6964C21.527 6.44112 28.3847 3.54867 35.7312 3.54867C50.628 3.53509 62.7409 15.6481 62.7409 30.5448C62.7409 45.4416 50.628 57.5545 35.7312 57.5545C20.8344 57.5545 8.72147 45.4416 8.72147 30.5448V30.2053L11.4102 32.8941C11.7225 33.2064 12.1435 33.3694 12.5645 33.3694C12.9854 33.3694 13.3928 33.2064 13.7187 32.8941C14.357 32.2558 14.357 31.2238 13.7187 30.5856L8.25976 25.113C7.62152 24.4748 6.58948 24.4748 5.95124 25.113L0.478679 30.5856C-0.15956 31.2238 -0.15956 32.2558 0.478679 32.8941C0.791009 33.2064 1.21197 33.3694 1.63294 33.3694C2.05391 33.3694 2.46129 33.2064 2.7872 32.8941L5.47595 30.2053V30.5448C5.47595 38.6246 8.62641 46.2292 14.3434 51.9462C20.0604 57.6632 27.6649 60.8136 35.7448 60.8136C43.8246 60.8136 51.4291 57.6632 57.1461 51.9462C62.8631 46.2292 66 38.6246 66 30.5448C66 22.465 62.8495 14.8604 57.1326 9.14345Z" fill="#3980D4"/>
<path d="M35.7315 12.9457C30.4354 12.9457 26.1307 17.2505 26.1307 22.5465V27.1771H23.1432C22.247 27.1771 21.5137 27.9104 21.5137 28.8067V45.0614C21.5137 45.9576 22.247 46.6909 23.1432 46.6909H48.3333C49.2296 46.6909 49.9628 45.9576 49.9628 45.0614V28.8202C49.9628 27.924 49.2296 27.1907 48.3333 27.1907H45.3458V22.5601C45.3458 17.264 41.0275 12.9457 35.7315 12.9457ZM29.3898 22.5601C29.3898 19.0565 32.2415 16.2184 35.7315 16.2184C39.2214 16.2184 42.0731 19.0701 42.0731 22.5601V27.1907H29.3898V22.5601ZM46.7038 43.4318H24.7728V30.4362H46.7038V43.4318Z" fill="#3980D4"/>
</svg>
