<svg width="95" height="104" viewBox="0 0 95 104" fill="none" xmlns="http://www.w3.org/2000/svg">
<circle cx="47.5" cy="56.0061" r="47.5" fill="#F8F8F8"/>
<path d="M47.5002 8.52324C21.2662 8.52324 0 29.7895 0 56.0234C0 67.4548 4.0404 77.9431 10.7685 86.1392C11.8065 77.8278 20.1078 70.7985 31.7481 67.4695C36.0007 71.4318 41.4938 73.8359 47.4999 73.8359C53.3647 73.8359 58.7502 71.5529 62.9595 67.7567C74.7004 71.3766 82.8233 78.8167 83.0904 87.4647C90.4955 79.0875 95 68.0845 95 56.0234C95 29.7895 73.7338 8.52324 47.5002 8.52324ZM47.5002 68.2108C44.4679 68.2108 41.6106 67.3777 39.0736 65.9347C32.9596 62.4557 28.75 55.3364 28.75 47.1168C28.75 35.4857 37.161 26.0226 47.5002 26.0226C57.8402 26.0226 66.2504 35.4857 66.2504 47.1168C66.2504 55.4626 61.909 62.6698 55.6429 66.0884C53.1744 67.4344 50.4199 68.2108 47.5002 68.2108Z" fill="#E9E9E9"/>
</svg>
