<svg width="295" height="91" viewBox="0 0 295 91" fill="none" xmlns="http://www.w3.org/2000/svg">
<rect x="10" y="16.5447" width="198" height="40" rx="20" fill="#3980D4"/>
<path d="M57.875 45.5447V38.0213H55.7656V35.8767H57.875V28.4822H63.125C64.625 28.4822 65.9648 28.8221 67.1445 29.5017C68.332 30.1736 69.2578 31.1346 69.9219 32.3846C70.5859 33.6267 70.918 35.0408 70.918 36.6267V37.4119C70.918 38.9978 70.5898 40.408 69.9336 41.6424C69.2852 42.8767 68.3672 43.8338 67.1797 44.5135C65.9922 45.1931 64.6523 45.5369 63.1602 45.5447H57.875ZM63.957 38.0213H61.3906V42.7205H63.0898C64.4805 42.7205 65.5391 42.2635 66.2656 41.3494C66.9922 40.4275 67.3555 39.115 67.3555 37.4119V36.615C67.3555 34.8806 66.9961 33.5681 66.2773 32.6775C65.5586 31.7791 64.5078 31.3299 63.125 31.3299H61.3906V35.8767H63.957V38.0213ZM83.3394 42.0291H77.1753L76.0034 45.5447H72.2652L78.6167 28.4822H81.8745L88.2612 45.5447H84.523L83.3394 42.0291ZM78.1245 39.1814H82.3902L80.2456 32.7947L78.1245 39.1814ZM84.3589 24.0291C84.3589 25.0681 83.9839 25.908 83.2339 26.5486C82.4917 27.1892 81.5152 27.5096 80.3042 27.5096C79.0933 27.5096 78.1128 27.1931 77.3628 26.5603C76.6206 25.9275 76.2495 25.0838 76.2495 24.0291H78.6519C78.6519 24.5213 78.7964 24.9041 79.0855 25.1775C79.3823 25.4431 79.7886 25.576 80.3042 25.576C80.812 25.576 81.2105 25.4431 81.4995 25.1775C81.7886 24.9041 81.9331 24.5213 81.9331 24.0291H84.3589ZM104.21 45.5447H100.694L93.8506 34.3181V45.5447H90.335V28.4822H93.8506L100.706 39.7322V28.4822H104.21V45.5447ZM121.26 43.3885C120.627 44.1463 119.733 44.7361 118.577 45.158C117.42 45.5721 116.139 45.7791 114.733 45.7791C113.256 45.7791 111.96 45.4588 110.842 44.8181C109.733 44.1697 108.874 43.2322 108.264 42.0056C107.663 40.7791 107.354 39.3377 107.338 37.6814V36.5213C107.338 34.8181 107.624 33.3455 108.194 32.1033C108.772 30.8533 109.6 29.9002 110.678 29.2439C111.764 28.5799 113.034 28.2478 114.487 28.2478C116.51 28.2478 118.092 28.7322 119.233 29.701C120.374 30.6619 121.049 32.0642 121.26 33.908H117.838C117.682 32.9314 117.335 32.2166 116.795 31.7635C116.264 31.3103 115.53 31.0838 114.592 31.0838C113.397 31.0838 112.487 31.533 111.862 32.4314C111.237 33.3299 110.92 34.6658 110.913 36.4392V37.5291C110.913 39.3181 111.252 40.6697 111.932 41.5838C112.612 42.4978 113.608 42.9549 114.92 42.9549C116.241 42.9549 117.182 42.6736 117.745 42.1111V39.1697H114.545V36.5799H121.26V43.3885ZM136.4 38.701L134.572 40.6697V45.5447H131.056V28.4822H134.572V36.2166L136.119 34.0955L140.466 28.4822H144.791L138.732 36.0642L144.966 45.5447H140.783L136.4 38.701ZM152.653 36.1697L156.204 28.4822H160.048L154.446 39.3572V45.5447H150.872V39.3572L145.271 28.4822H149.126L152.653 36.1697ZM153.368 23.9119H157.06L153.814 27.5447H151.06L153.368 23.9119Z" fill="white"/>
<rect y="75.5447" width="61" height="2" rx="1" fill="#DCE4EC"/>
<rect x="49" y="88.5447" width="37" height="2" rx="1" fill="#DCE4EC"/>
<rect x="111" y="52.5447" width="154" height="30" rx="15" fill="#FAFBFC"/>
<path d="M137.375 65.7635H133.828V75.5447H131.867V65.7635H128.352V64.1697H137.375V65.7635ZM140.882 68.0135C141.502 67.2947 142.286 66.9353 143.234 66.9353C145.036 66.9353 145.95 67.964 145.976 70.0213V75.5447H144.078V70.0916C144.078 69.5082 143.95 69.0968 143.695 68.8572C143.445 68.6124 143.075 68.49 142.586 68.49C141.825 68.49 141.257 68.8286 140.882 69.5056V75.5447H138.984V63.5447H140.882V68.0135ZM153.343 74.7166C152.786 75.3728 151.994 75.701 150.968 75.701C150.051 75.701 149.356 75.4327 148.882 74.8963C148.413 74.3598 148.179 73.5838 148.179 72.5681V67.0916H150.077V72.5447C150.077 73.6176 150.523 74.1541 151.413 74.1541C152.335 74.1541 152.958 73.8234 153.281 73.1619V67.0916H155.179V75.5447H153.39L153.343 74.7166ZM161.155 75.701C159.952 75.701 158.976 75.3234 158.226 74.5681C157.481 73.8077 157.108 72.7973 157.108 71.5369V71.3025C157.108 70.4588 157.27 69.7062 157.593 69.0447C157.921 68.378 158.379 67.8598 158.968 67.49C159.556 67.1202 160.213 66.9353 160.937 66.9353C162.088 66.9353 162.976 67.3025 163.601 68.0369C164.231 68.7713 164.546 69.8103 164.546 71.1541V71.9197H159.022C159.08 72.6176 159.312 73.1697 159.718 73.576C160.129 73.9822 160.645 74.1853 161.265 74.1853C162.134 74.1853 162.843 73.8338 163.39 73.1306L164.413 74.1072C164.075 74.6124 163.621 75.0056 163.054 75.2869C162.491 75.5629 161.858 75.701 161.155 75.701ZM160.929 68.4588C160.408 68.4588 159.986 68.6411 159.663 69.0056C159.345 69.3702 159.142 69.878 159.054 70.5291H162.671V70.3885C162.629 69.753 162.46 69.2739 162.163 68.951C161.866 68.6228 161.455 68.4588 160.929 68.4588ZM163.491 65.7088V65.7947H161.968L160.796 64.576L159.632 65.7947H158.124V65.6931L160.241 63.5369H161.358L163.491 65.7088ZM177.389 70.7244H172.811V75.5447H170.834V64.1697H178.061V65.7635H172.811V69.1463H177.389V70.7244ZM183.99 68.826C183.74 68.7843 183.482 68.7635 183.217 68.7635C182.347 68.7635 181.761 69.0968 181.459 69.7635V75.5447H179.561V67.0916H181.373L181.42 68.0369C181.878 67.3025 182.514 66.9353 183.326 66.9353C183.597 66.9353 183.821 66.9718 183.998 67.0447L183.99 68.826ZM189.076 75.701C187.873 75.701 186.896 75.3234 186.146 74.5681C185.401 73.8077 185.029 72.7973 185.029 71.5369V71.3025C185.029 70.4588 185.191 69.7062 185.513 69.0447C185.842 68.378 186.3 67.8598 186.888 67.49C187.477 67.1202 188.133 66.9353 188.857 66.9353C190.008 66.9353 190.896 67.3025 191.521 68.0369C192.151 68.7713 192.467 69.8103 192.467 71.1541V71.9197H186.943C187 72.6176 187.232 73.1697 187.638 73.576C188.05 73.9822 188.566 74.1853 189.185 74.1853C190.055 74.1853 190.763 73.8338 191.31 73.1306L192.334 74.1072C191.995 74.6124 191.542 75.0056 190.974 75.2869C190.412 75.5629 189.779 75.701 189.076 75.701ZM188.849 68.4588C188.329 68.4588 187.907 68.6411 187.584 69.0056C187.266 69.3702 187.063 69.878 186.974 70.5291H190.592V70.3885C190.55 69.753 190.381 69.2739 190.084 68.951C189.787 68.6228 189.375 68.4588 188.849 68.4588ZM197.99 75.701C196.787 75.701 195.81 75.3234 195.06 74.5681C194.315 73.8077 193.943 72.7973 193.943 71.5369V71.3025C193.943 70.4588 194.104 69.7062 194.427 69.0447C194.755 68.378 195.214 67.8598 195.802 67.49C196.391 67.1202 197.047 66.9353 197.771 66.9353C198.922 66.9353 199.81 67.3025 200.435 68.0369C201.065 68.7713 201.38 69.8103 201.38 71.1541V71.9197H195.857C195.914 72.6176 196.146 73.1697 196.552 73.576C196.964 73.9822 197.479 74.1853 198.099 74.1853C198.969 74.1853 199.677 73.8338 200.224 73.1306L201.247 74.1072C200.909 74.6124 200.456 75.0056 199.888 75.2869C199.326 75.5629 198.693 75.701 197.99 75.701ZM197.763 68.4588C197.242 68.4588 196.82 68.6411 196.497 69.0056C196.18 69.3702 195.977 69.878 195.888 70.5291H199.505V70.3885C199.464 69.753 199.294 69.2739 198.997 68.951C198.701 68.6228 198.289 68.4588 197.763 68.4588ZM205.2 75.5447H203.302V63.5447H205.2V75.5447ZM212.645 75.5447C212.562 75.3832 212.489 75.1202 212.427 74.7556C211.822 75.3859 211.083 75.701 210.208 75.701C209.359 75.701 208.666 75.4588 208.13 74.9744C207.593 74.49 207.325 73.8911 207.325 73.1775C207.325 72.2765 207.658 71.5864 208.325 71.1072C208.997 70.6228 209.955 70.3806 211.2 70.3806H212.364V69.826C212.364 69.3885 212.242 69.0395 211.997 68.7791C211.752 68.5135 211.38 68.3806 210.88 68.3806C210.447 68.3806 210.093 68.49 209.817 68.7088C209.541 68.9223 209.403 69.1957 209.403 69.5291H207.505C207.505 69.0655 207.658 68.6332 207.966 68.2322C208.273 67.826 208.69 67.5082 209.216 67.2791C209.747 67.0499 210.338 66.9353 210.989 66.9353C211.979 66.9353 212.768 67.1853 213.356 67.6853C213.945 68.1801 214.247 68.878 214.262 69.7791V73.5916C214.262 74.352 214.369 74.9588 214.583 75.4119V75.5447H212.645ZM210.559 74.1775C210.934 74.1775 211.286 74.0864 211.614 73.9041C211.947 73.7218 212.197 73.477 212.364 73.1697V71.576H211.341C210.637 71.576 210.109 71.6984 209.755 71.9431C209.401 72.1879 209.223 72.5343 209.223 72.9822C209.223 73.3468 209.343 73.6385 209.583 73.8572C209.828 74.0707 210.153 74.1775 210.559 74.1775ZM218.332 67.0916L218.387 68.0681C219.012 67.3129 219.832 66.9353 220.848 66.9353C222.609 66.9353 223.504 67.9431 223.536 69.9588V75.5447H221.637V70.0681C221.637 69.5317 221.52 69.1359 221.286 68.8806C221.056 68.6202 220.679 68.49 220.153 68.49C219.387 68.49 218.817 68.8364 218.442 69.5291V75.5447H216.543V67.0916H218.332ZM229.27 74.1853C229.744 74.1853 230.137 74.0473 230.449 73.7713C230.762 73.4952 230.929 73.1541 230.949 72.7478H232.738C232.718 73.2739 232.554 73.7661 232.246 74.2244C231.939 74.6775 231.522 75.0369 230.996 75.3025C230.47 75.5681 229.902 75.701 229.293 75.701C228.111 75.701 227.173 75.3181 226.481 74.5525C225.788 73.7869 225.442 72.7296 225.442 71.3806V71.1853C225.442 69.8989 225.785 68.8702 226.473 68.0994C227.16 67.3234 228.098 66.9353 229.285 66.9353C230.291 66.9353 231.108 67.2296 231.738 67.8181C232.374 68.4015 232.707 69.1697 232.738 70.1228H230.949C230.929 69.6385 230.762 69.24 230.449 68.9275C230.142 68.615 229.749 68.4588 229.27 68.4588C228.655 68.4588 228.181 68.6827 227.848 69.1306C227.514 69.5734 227.345 70.2478 227.34 71.1541V71.4588C227.34 72.3754 227.504 73.0603 227.832 73.5135C228.166 73.9614 228.645 74.1853 229.27 74.1853ZM238.215 75.701C237.012 75.701 236.035 75.3234 235.285 74.5681C234.54 73.8077 234.168 72.7973 234.168 71.5369V71.3025C234.168 70.4588 234.329 69.7062 234.652 69.0447C234.98 68.378 235.439 67.8598 236.027 67.49C236.616 67.1202 237.272 66.9353 237.996 66.9353C239.147 66.9353 240.035 67.3025 240.66 68.0369C241.29 68.7713 241.605 69.8103 241.605 71.1541V71.9197H236.082C236.139 72.6176 236.371 73.1697 236.777 73.576C237.189 73.9822 237.704 74.1853 238.324 74.1853C239.194 74.1853 239.902 73.8338 240.449 73.1306L241.473 74.1072C241.134 74.6124 240.681 75.0056 240.113 75.2869C239.551 75.5629 238.918 75.701 238.215 75.701ZM237.988 68.4588C237.467 68.4588 237.045 68.6411 236.723 69.0056C236.405 69.3702 236.202 69.878 236.113 70.5291H239.73V70.3885C239.689 69.753 239.519 69.2739 239.223 68.951C238.926 68.6228 238.514 68.4588 237.988 68.4588ZM247.832 68.826C247.582 68.7843 247.324 68.7635 247.058 68.7635C246.188 68.7635 245.602 69.0968 245.3 69.7635V75.5447H243.402V67.0916H245.214L245.261 68.0369C245.72 67.3025 246.355 66.9353 247.168 66.9353C247.438 66.9353 247.662 66.9718 247.839 67.0447L247.832 68.826Z" fill="#5990FF"/>
<rect x="190" y="0.544708" width="78" height="2" rx="1" fill="#5990FF"/>
<rect x="230" y="13.5447" width="65" height="2" rx="1" fill="#5990FF"/>
</svg>
