<svg width="295" height="91" viewBox="0 0 295 91" fill="none" xmlns="http://www.w3.org/2000/svg">
<rect x="10" y="16.5447" width="198" height="40" rx="20" fill="#3980D4"/>
<path d="M57.875 45.5447V38.0213H55.7656V35.8767H57.875V28.4822H63.125C64.625 28.4822 65.9648 28.8221 67.1445 29.5017C68.332 30.1736 69.2578 31.1346 69.9219 32.3846C70.5859 33.6267 70.918 35.0408 70.918 36.6267V37.4119C70.918 38.9978 70.5898 40.408 69.9336 41.6424C69.2852 42.8767 68.3672 43.8338 67.1797 44.5135C65.9922 45.1931 64.6523 45.5369 63.1602 45.5447H57.875ZM63.957 38.0213H61.3906V42.7205H63.0898C64.4805 42.7205 65.5391 42.2635 66.2656 41.3494C66.9922 40.4275 67.3555 39.115 67.3555 37.4119V36.615C67.3555 34.8806 66.9961 33.5681 66.2773 32.6775C65.5586 31.7791 64.5078 31.3299 63.125 31.3299H61.3906V35.8767H63.957V38.0213ZM83.3394 42.0291H77.1753L76.0034 45.5447H72.2652L78.6167 28.4822H81.8745L88.2612 45.5447H84.523L83.3394 42.0291ZM78.1245 39.1814H82.3902L80.2456 32.7947L78.1245 39.1814ZM84.3589 24.0291C84.3589 25.0681 83.9839 25.908 83.2339 26.5486C82.4917 27.1892 81.5152 27.5096 80.3042 27.5096C79.0933 27.5096 78.1128 27.1931 77.3628 26.5603C76.6206 25.9275 76.2495 25.0838 76.2495 24.0291H78.6519C78.6519 24.5213 78.7964 24.9041 79.0855 25.1775C79.3823 25.4431 79.7886 25.576 80.3042 25.576C80.812 25.576 81.2105 25.4431 81.4995 25.1775C81.7886 24.9041 81.9331 24.5213 81.9331 24.0291H84.3589ZM104.21 45.5447H100.694L93.8506 34.3181V45.5447H90.335V28.4822H93.8506L100.706 39.7322V28.4822H104.21V45.5447ZM121.26 43.3885C120.627 44.1463 119.733 44.7361 118.577 45.158C117.42 45.5721 116.139 45.7791 114.733 45.7791C113.256 45.7791 111.96 45.4588 110.842 44.8181C109.733 44.1697 108.874 43.2322 108.264 42.0056C107.663 40.7791 107.354 39.3377 107.338 37.6814V36.5213C107.338 34.8181 107.624 33.3455 108.194 32.1033C108.772 30.8533 109.6 29.9002 110.678 29.2439C111.764 28.5799 113.034 28.2478 114.487 28.2478C116.51 28.2478 118.092 28.7322 119.233 29.701C120.374 30.6619 121.049 32.0642 121.26 33.908H117.838C117.682 32.9314 117.335 32.2166 116.795 31.7635C116.264 31.3103 115.53 31.0838 114.592 31.0838C113.397 31.0838 112.487 31.533 111.862 32.4314C111.237 33.3299 110.92 34.6658 110.913 36.4392V37.5291C110.913 39.3181 111.252 40.6697 111.932 41.5838C112.612 42.4978 113.608 42.9549 114.92 42.9549C116.241 42.9549 117.182 42.6736 117.745 42.1111V39.1697H114.545V36.5799H121.26V43.3885ZM136.4 38.701L134.572 40.6697V45.5447H131.056V28.4822H134.572V36.2166L136.119 34.0955L140.466 28.4822H144.791L138.732 36.0642L144.966 45.5447H140.783L136.4 38.701ZM152.653 36.1697L156.204 28.4822H160.048L154.446 39.3572V45.5447H150.872V39.3572L145.271 28.4822H149.126L152.653 36.1697ZM153.368 23.9119H157.06L153.814 27.5447H151.06L153.368 23.9119Z" fill="white"/>
<rect y="75.5447" width="61" height="2" rx="1" fill="#DCE4EC"/>
<rect x="49" y="88.5447" width="37" height="2" rx="1" fill="#DCE4EC"/>
<rect x="111" y="52.5447" width="154" height="30" rx="15" fill="#FAFBFC"/>
<path d="M131.133 73.9666H136.297V75.5447H129.156V64.1697H131.133V73.9666ZM143 75.5447C142.916 75.3832 142.843 75.1202 142.781 74.7556C142.177 75.3859 141.437 75.701 140.562 75.701C139.713 75.701 139.021 75.4588 138.484 74.9744C137.948 74.49 137.679 73.8911 137.679 73.1775C137.679 72.2765 138.013 71.5864 138.679 71.1072C139.351 70.6228 140.31 70.3806 141.554 70.3806H142.718V69.826C142.718 69.3885 142.596 69.0395 142.351 68.7791C142.106 68.5135 141.734 68.3806 141.234 68.3806C140.802 68.3806 140.448 68.49 140.172 68.7088C139.896 68.9223 139.757 69.1957 139.757 69.5291H137.859C137.859 69.0655 138.013 68.6332 138.32 68.2322C138.627 67.826 139.044 67.5082 139.57 67.2791C140.101 67.0499 140.692 66.9353 141.343 66.9353C142.333 66.9353 143.122 67.1853 143.711 67.6853C144.299 68.1801 144.601 68.878 144.617 69.7791V73.5916C144.617 74.352 144.724 74.9588 144.937 75.4119V75.5447H143ZM140.914 74.1775C141.289 74.1775 141.64 74.0864 141.968 73.9041C142.302 73.7218 142.552 73.477 142.718 73.1697V71.576H141.695C140.992 71.576 140.463 71.6984 140.109 71.9431C139.755 72.1879 139.578 72.5343 139.578 72.9822C139.578 73.3468 139.698 73.6385 139.937 73.8572C140.182 74.0707 140.507 74.1775 140.914 74.1775ZM142.398 65.9119H140.82L138.711 63.5447H140.875L142.398 65.9119ZM148.71 67.0916L148.765 67.9744C149.359 67.2817 150.171 66.9353 151.202 66.9353C152.333 66.9353 153.106 67.3676 153.523 68.2322C154.137 67.3676 155.002 66.9353 156.117 66.9353C157.049 66.9353 157.742 67.1931 158.195 67.7088C158.653 68.2244 158.887 68.9848 158.898 69.99V75.5447H156.999V70.0447C156.999 69.5082 156.882 69.115 156.648 68.865C156.413 68.615 156.025 68.49 155.484 68.49C155.051 68.49 154.697 68.6072 154.421 68.8416C154.15 69.0707 153.96 69.3728 153.851 69.7478L153.859 75.5447H151.96V69.9822C151.934 68.9874 151.426 68.49 150.437 68.49C149.676 68.49 149.137 68.7999 148.82 69.4197V75.5447H146.921V67.0916H148.71ZM172.21 70.7244H167.632V75.5447H165.655V64.1697H172.882V65.7635H167.632V69.1463H172.21V70.7244ZM178.811 68.826C178.561 68.7843 178.303 68.7635 178.037 68.7635C177.168 68.7635 176.582 69.0968 176.28 69.7635V75.5447H174.381V67.0916H176.194L176.241 68.0369C176.699 67.3025 177.334 66.9353 178.147 66.9353C178.418 66.9353 178.642 66.9718 178.819 67.0447L178.811 68.826ZM183.897 75.701C182.693 75.701 181.717 75.3234 180.967 74.5681C180.222 73.8077 179.85 72.7973 179.85 71.5369V71.3025C179.85 70.4588 180.011 69.7062 180.334 69.0447C180.662 68.378 181.121 67.8598 181.709 67.49C182.298 67.1202 182.954 66.9353 183.678 66.9353C184.829 66.9353 185.717 67.3025 186.342 68.0369C186.972 68.7713 187.287 69.8103 187.287 71.1541V71.9197H181.764C181.821 72.6176 182.053 73.1697 182.459 73.576C182.871 73.9822 183.386 74.1853 184.006 74.1853C184.876 74.1853 185.584 73.8338 186.131 73.1306L187.154 74.1072C186.816 74.6124 186.363 75.0056 185.795 75.2869C185.232 75.5629 184.6 75.701 183.897 75.701ZM183.67 68.4588C183.149 68.4588 182.727 68.6411 182.404 69.0056C182.087 69.3702 181.884 69.878 181.795 70.5291H185.412V70.3885C185.371 69.753 185.201 69.2739 184.904 68.951C184.607 68.6228 184.196 68.4588 183.67 68.4588ZM192.81 75.701C191.607 75.701 190.631 75.3234 189.881 74.5681C189.136 73.8077 188.763 72.7973 188.763 71.5369V71.3025C188.763 70.4588 188.925 69.7062 189.248 69.0447C189.576 68.378 190.034 67.8598 190.623 67.49C191.211 67.1202 191.868 66.9353 192.592 66.9353C193.743 66.9353 194.631 67.3025 195.256 68.0369C195.886 68.7713 196.201 69.8103 196.201 71.1541V71.9197H190.678C190.735 72.6176 190.967 73.1697 191.373 73.576C191.784 73.9822 192.3 74.1853 192.92 74.1853C193.789 74.1853 194.498 73.8338 195.045 73.1306L196.068 74.1072C195.73 74.6124 195.276 75.0056 194.709 75.2869C194.146 75.5629 193.513 75.701 192.81 75.701ZM192.584 68.4588C192.063 68.4588 191.641 68.6411 191.318 69.0056C191 69.3702 190.797 69.878 190.709 70.5291H194.326V70.3885C194.284 69.753 194.115 69.2739 193.818 68.951C193.521 68.6228 193.11 68.4588 192.584 68.4588ZM200.021 75.5447H198.122V63.5447H200.021V75.5447ZM207.466 75.5447C207.383 75.3832 207.31 75.1202 207.247 74.7556C206.643 75.3859 205.903 75.701 205.028 75.701C204.179 75.701 203.487 75.4588 202.95 74.9744C202.414 74.49 202.146 73.8911 202.146 73.1775C202.146 72.2765 202.479 71.5864 203.146 71.1072C203.817 70.6228 204.776 70.3806 206.021 70.3806H207.185V69.826C207.185 69.3885 207.062 69.0395 206.817 68.7791C206.573 68.5135 206.2 68.3806 205.7 68.3806C205.268 68.3806 204.914 68.49 204.638 68.7088C204.362 68.9223 204.224 69.1957 204.224 69.5291H202.325C202.325 69.0655 202.479 68.6332 202.786 68.2322C203.094 67.826 203.51 67.5082 204.036 67.2791C204.567 67.0499 205.159 66.9353 205.81 66.9353C206.799 66.9353 207.588 67.1853 208.177 67.6853C208.765 68.1801 209.067 68.878 209.083 69.7791V73.5916C209.083 74.352 209.19 74.9588 209.403 75.4119V75.5447H207.466ZM205.38 74.1775C205.755 74.1775 206.107 74.0864 206.435 73.9041C206.768 73.7218 207.018 73.477 207.185 73.1697V71.576H206.161C205.458 71.576 204.929 71.6984 204.575 71.9431C204.221 72.1879 204.044 72.5343 204.044 72.9822C204.044 73.3468 204.164 73.6385 204.403 73.8572C204.648 74.0707 204.974 74.1775 205.38 74.1775ZM213.153 67.0916L213.208 68.0681C213.833 67.3129 214.653 66.9353 215.669 66.9353C217.429 66.9353 218.325 67.9431 218.356 69.9588V75.5447H216.458V70.0681C216.458 69.5317 216.341 69.1359 216.106 68.8806C215.877 68.6202 215.499 68.49 214.973 68.49C214.208 68.49 213.637 68.8364 213.262 69.5291V75.5447H211.364V67.0916H213.153ZM224.09 74.1853C224.564 74.1853 224.957 74.0473 225.27 73.7713C225.582 73.4952 225.749 73.1541 225.77 72.7478H227.559C227.538 73.2739 227.374 73.7661 227.067 74.2244C226.76 74.6775 226.343 75.0369 225.817 75.3025C225.291 75.5681 224.723 75.701 224.114 75.701C222.931 75.701 221.994 75.3181 221.301 74.5525C220.609 73.7869 220.262 72.7296 220.262 71.3806V71.1853C220.262 69.8989 220.606 68.8702 221.293 68.0994C221.981 67.3234 222.918 66.9353 224.106 66.9353C225.111 66.9353 225.929 67.2296 226.559 67.8181C227.194 68.4015 227.528 69.1697 227.559 70.1228H225.77C225.749 69.6385 225.582 69.24 225.27 68.9275C224.963 68.615 224.569 68.4588 224.09 68.4588C223.476 68.4588 223.002 68.6827 222.668 69.1306C222.335 69.5734 222.166 70.2478 222.161 71.1541V71.4588C222.161 72.3754 222.325 73.0603 222.653 73.5135C222.986 73.9614 223.465 74.1853 224.09 74.1853ZM233.035 75.701C231.832 75.701 230.856 75.3234 230.106 74.5681C229.361 73.8077 228.988 72.7973 228.988 71.5369V71.3025C228.988 70.4588 229.15 69.7062 229.473 69.0447C229.801 68.378 230.259 67.8598 230.848 67.49C231.436 67.1202 232.093 66.9353 232.817 66.9353C233.968 66.9353 234.856 67.3025 235.481 68.0369C236.111 68.7713 236.426 69.8103 236.426 71.1541V71.9197H230.902C230.96 72.6176 231.192 73.1697 231.598 73.576C232.009 73.9822 232.525 74.1853 233.145 74.1853C234.014 74.1853 234.723 73.8338 235.27 73.1306L236.293 74.1072C235.955 74.6124 235.501 75.0056 234.934 75.2869C234.371 75.5629 233.738 75.701 233.035 75.701ZM232.809 68.4588C232.288 68.4588 231.866 68.6411 231.543 69.0056C231.225 69.3702 231.022 69.878 230.934 70.5291H234.551V70.3885C234.509 69.753 234.34 69.2739 234.043 68.951C233.746 68.6228 233.335 68.4588 232.809 68.4588ZM242.652 68.826C242.402 68.7843 242.144 68.7635 241.879 68.7635C241.009 68.7635 240.423 69.0968 240.121 69.7635V75.5447H238.223V67.0916H240.035L240.082 68.0369C240.54 67.3025 241.176 66.9353 241.988 66.9353C242.259 66.9353 242.483 66.9718 242.66 67.0447L242.652 68.826Z" fill="#5990FF"/>
<rect x="190" y="0.544708" width="78" height="2" rx="1" fill="#5990FF"/>
<rect x="230" y="13.5447" width="65" height="2" rx="1" fill="#5990FF"/>
</svg>
