<svg width="20" height="20" viewBox="0 0 20 20" fill="none" xmlns="http://www.w3.org/2000/svg">
<g clip-path="url(#clip0)">
<path d="M10 0C4.47683 0 0 4.47743 0 10.0005C0 15.5237 4.47683 20 10 20C15.5232 20 19.9997 15.5237 19.9997 10.0005C19.9997 4.47743 15.5232 0 10 0ZM9.12312 2.09097C9.12312 1.60649 9.51593 1.21327 10.001 1.21327C10.4854 1.21327 10.8786 1.60649 10.8786 2.09097V9.6915C10.8786 10.1757 10.4855 10.5688 10.001 10.5688C9.51593 10.5688 9.12312 10.1757 9.12312 9.6915V2.09097ZM10 18.2408C5.65692 18.2408 2.12384 14.7079 2.12384 10.364C2.12384 6.66568 4.69038 3.56225 8.13394 2.7207V4.22754C5.50395 5.02864 3.58443 7.47568 3.58443 10.364C3.58443 13.9015 6.46277 16.7792 9.99968 16.7792C13.5374 16.7792 16.4145 13.9009 16.4145 10.364C16.4145 7.47568 14.4952 5.02864 11.8653 4.22754V2.72075C15.3093 3.5623 17.8762 6.66513 17.8762 10.364C17.8762 14.7079 14.3428 18.2408 10 18.2408Z" fill="#575E66"/>
</g>
<defs>
<clipPath id="clip0">
<rect width="20" height="20" fill="white"/>
</clipPath>
</defs>
</svg>
