<svg width="67" height="67" viewBox="0 0 67 67" fill="none" xmlns="http://www.w3.org/2000/svg">
<rect width="67" height="67" rx="3" fill="#FAFAFA"/>
<path fill-rule="evenodd" clip-rule="evenodd" d="M14.2822 16.6819C16.3382 15.3355 18.6069 13.8539 21.1184 12.2093C23.9185 10.3773 27.0618 8.32081 30.6089 6C30.6089 7.00825 30.6089 8.01342 30.6089 9.01552C27.0618 11.155 23.9155 13.0485 21.1154 14.7361C18.6038 16.2485 16.3352 17.6164 14.2822 18.8552C14.2822 18.1359 14.2822 17.4104 14.2822 16.6819Z" fill="#289ED2"/>
<path fill-rule="evenodd" clip-rule="evenodd" d="M14.2822 19.8572C16.3382 18.6676 18.6069 17.352 21.1154 15.9011C23.9155 14.2811 27.0587 12.4614 30.6089 10.408C30.6089 11.4132 30.6089 12.4183 30.6089 13.4204C27.0618 15.2894 23.9155 16.9462 21.1154 18.4248C18.6038 19.7496 16.3352 20.9454 14.2822 22.0305C14.2822 21.3081 14.2822 20.5827 14.2822 19.8572Z" fill="#289ED2"/>
<path fill-rule="evenodd" clip-rule="evenodd" d="M14.2822 23.0326C16.3382 21.9967 18.6069 20.8563 21.1154 19.5898C23.9155 18.1789 27.0587 16.5958 30.6089 14.8099C30.6089 15.815 30.6089 16.8171 30.6089 17.8192C27.0618 19.4238 23.9155 20.844 21.1154 22.1104C18.6038 23.2447 16.3352 24.2714 14.2822 25.1997C14.2822 24.4774 14.2822 23.755 14.2822 23.0326Z" fill="#289ED2"/>
<path fill-rule="evenodd" clip-rule="evenodd" d="M14.2822 26.2018C16.3382 25.3196 18.6069 24.3483 21.1154 23.2755C23.9155 22.0766 27.0587 20.7302 30.6089 19.2117C30.6089 20.2169 30.6089 21.2221 30.6089 22.2242C27.0618 23.5613 23.9155 24.7448 21.1154 25.7992C18.6038 26.7459 16.3352 27.5974 14.2822 28.3751C14.2822 27.6497 14.2822 26.9273 14.2822 26.2018Z" fill="#289ED2"/>
<path fill-rule="evenodd" clip-rule="evenodd" d="M14.2822 29.3741C16.3382 28.6487 18.6069 27.8495 21.1154 26.9611C23.9155 25.9744 27.0587 24.8647 30.6089 23.6136C30.6089 24.6188 30.6089 25.6209 30.6089 26.623C27.0618 27.6927 23.9155 28.6395 21.1154 29.4817C18.6038 30.2379 16.3352 30.9203 14.2822 31.5412C14.2822 30.8219 14.2822 30.0996 14.2822 29.3741Z" fill="#289ED2"/>
<path fill-rule="evenodd" clip-rule="evenodd" d="M14.2822 32.5433C16.3352 31.9716 18.6069 31.3445 21.1154 30.6467C23.9155 29.869 27.0587 28.996 30.6089 28.0124C30.6089 29.0176 30.6089 30.0227 30.6089 31.0248C27.0618 31.8271 23.9155 32.5372 21.1154 33.1704C18.6038 33.7391 16.3352 34.2494 14.2822 34.7166C14.2822 33.9942 14.2822 33.2688 14.2822 32.5433Z" fill="#289ED2"/>
<path fill-rule="evenodd" clip-rule="evenodd" d="M14.2822 35.7187C16.3352 35.3037 18.6069 34.8457 21.1154 34.3354C23.9155 33.7698 27.0587 33.1335 30.6089 32.4173C30.6089 33.4225 30.6089 34.4246 30.6089 35.4267C27.0618 35.9615 23.9155 36.4349 21.1154 36.856C18.6038 37.2341 16.3352 37.5753 14.2822 37.8858C14.2822 37.1634 14.2822 36.4411 14.2822 35.7187Z" fill="#289ED2"/>
<path fill-rule="evenodd" clip-rule="evenodd" d="M14.2822 38.8879C16.3352 38.6266 18.6038 38.3408 21.1154 38.0211C23.9155 37.6676 27.0587 37.268 30.6089 36.8161C30.6089 37.8213 30.6089 38.8264 30.6089 39.8285C27.0618 40.096 23.9155 40.3327 21.1154 40.5417C18.6038 40.7323 16.3352 40.9013 14.2822 41.055C14.2822 40.3357 14.2822 39.6134 14.2822 38.8879Z" fill="#289ED2"/>
<path fill-rule="evenodd" clip-rule="evenodd" d="M14.2822 42.0602C16.3352 41.9557 18.6038 41.8389 21.1154 41.7098C23.9155 41.5653 27.0587 41.4054 30.6089 41.221C30.6089 42.2262 30.6089 43.2283 30.6089 44.2242C27.0618 44.2242 23.9155 44.2242 21.1154 44.2242C18.6038 44.2242 16.3352 44.2242 14.2822 44.2242C14.2822 43.508 14.2822 42.7856 14.2822 42.0602Z" fill="#289ED2"/>
<path fill-rule="evenodd" clip-rule="evenodd" d="M30.6084 6C32.3789 8.32081 33.9521 10.3742 35.3521 12.2093C36.6064 13.8539 37.7422 15.3386 38.7717 16.685C38.7717 17.4135 38.7717 18.1359 38.7717 18.8582C37.7422 17.6164 36.6064 16.2485 35.3521 14.7361C33.9521 13.0485 32.382 11.155 30.6084 9.01859C30.6084 8.01342 30.6084 7.00825 30.6084 6Z" fill="#29ABE2"/>
<path fill-rule="evenodd" clip-rule="evenodd" d="M30.6084 10.408C32.3789 12.4614 33.9521 14.2781 35.3521 15.9011C36.6064 17.3551 37.7422 18.6676 38.7717 19.8603C38.7717 20.5858 38.7717 21.3081 38.7717 22.0305C37.7422 20.9454 36.6064 19.7466 35.3521 18.4248C33.9521 16.9462 32.382 15.2925 30.6084 13.4204C30.6084 12.4183 30.6084 11.4132 30.6084 10.408Z" fill="#29ABE2"/>
<path fill-rule="evenodd" clip-rule="evenodd" d="M30.6084 14.8099C32.3789 16.5958 33.9521 18.1758 35.3521 19.5868C36.6064 20.8501 37.7422 21.9936 38.7717 23.0295C38.7717 23.755 38.7717 24.4743 38.7717 25.1967C37.7422 24.2653 36.6064 23.2386 35.3521 22.1043C33.9521 20.8378 32.382 19.4177 30.6084 17.8162C30.6084 16.8171 30.6084 15.815 30.6084 14.8099Z" fill="#29ABE2"/>
<path fill-rule="evenodd" clip-rule="evenodd" d="M30.6084 19.2117C32.3789 20.7302 33.9491 22.0736 35.3521 23.2755C36.6064 24.3513 37.7422 25.3227 38.7717 26.2049C38.7717 26.9304 38.7717 27.6527 38.7717 28.3751C37.7422 27.6005 36.6064 26.7459 35.3521 25.7992C33.9521 24.7448 32.382 23.5613 30.6084 22.2273C30.6084 21.2221 30.6084 20.2169 30.6084 19.2117Z" fill="#29ABE2"/>
<path fill-rule="evenodd" clip-rule="evenodd" d="M30.6084 23.6136C32.3789 24.8647 33.9491 25.9713 35.3521 26.9611C36.6094 27.8464 37.7422 28.6487 38.7717 29.3741C38.7717 30.0996 38.7717 30.8189 38.7717 31.5412C37.7422 30.9203 36.6064 30.2379 35.3521 29.4817C33.9521 28.6364 32.382 27.6896 30.6084 26.623C30.6084 25.6209 30.6084 24.6188 30.6084 23.6136Z" fill="#29ABE2"/>
<path fill-rule="evenodd" clip-rule="evenodd" d="M30.6084 28.0154C32.3789 28.9991 33.9491 29.8721 35.3521 30.6467C36.6094 31.3445 37.7422 31.9747 38.7717 32.5433C38.7717 33.2688 38.7717 33.9911 38.7717 34.7135C37.7422 34.2494 36.6064 33.736 35.3521 33.1673C33.9521 32.5341 32.382 31.824 30.6084 31.0248C30.6084 30.0258 30.6084 29.0206 30.6084 28.0154Z" fill="#29ABE2"/>
<path fill-rule="evenodd" clip-rule="evenodd" d="M30.6084 32.4173C32.3789 33.1335 33.9491 33.7698 35.3521 34.3354C36.6094 34.8426 37.7422 35.3006 38.7717 35.7187C38.7717 36.4441 38.7717 37.1634 38.7717 37.8858C37.7422 37.5753 36.6064 37.2341 35.3521 36.856C33.9521 36.4349 32.382 35.9615 30.6084 35.4267C30.6084 34.4246 30.6084 33.4225 30.6084 32.4173Z" fill="#29ABE2"/>
<path fill-rule="evenodd" clip-rule="evenodd" d="M30.6084 36.8161C32.3789 37.2649 33.9491 37.6645 35.3521 38.018C36.6094 38.3377 37.7422 38.6236 38.7717 38.8848C38.7717 39.6103 38.7717 40.3327 38.7717 41.055C37.7422 40.9013 36.6064 40.7292 35.3521 40.5417C33.9521 40.3296 32.382 40.096 30.6084 39.8285C30.6084 38.8295 30.6084 37.8213 30.6084 36.8161Z" fill="#29ABE2"/>
<path fill-rule="evenodd" clip-rule="evenodd" d="M30.6084 41.221C32.3789 41.4024 33.9491 41.5653 35.3521 41.7098C36.6094 41.8389 37.7422 41.9557 38.7717 42.0602C38.7717 42.7856 38.7717 43.5049 38.7717 44.2242C37.7422 44.2242 36.6064 44.2242 35.3521 44.2242C33.9491 44.2242 32.3789 44.2242 30.6084 44.2242C30.6084 43.2283 30.6084 42.2262 30.6084 41.221Z" fill="#29ABE2"/>
<path fill-rule="evenodd" clip-rule="evenodd" d="M39.5986 29.2911C40.7071 28.5657 41.931 27.7664 43.2855 26.8781C44.7949 25.8914 46.4895 24.7817 48.4028 23.5306C48.4028 24.0747 48.4028 24.6157 48.4028 25.1567C46.4895 26.3094 44.7949 27.3299 43.2855 28.2398C41.931 29.0544 40.7102 29.7922 39.6017 30.4623C39.5986 30.075 39.5986 29.6846 39.5986 29.2911Z" fill="#289ED2"/>
<path fill-rule="evenodd" clip-rule="evenodd" d="M39.5986 31.0033C40.7071 30.3609 41.931 29.6539 43.2825 28.87C44.7918 27.997 46.4865 27.0134 48.3997 25.9067C48.3997 26.4477 48.3997 26.9918 48.3997 27.5298C46.4865 28.538 44.7918 29.4325 43.2825 30.2287C41.928 30.9418 40.7071 31.5874 39.5986 32.1714C39.5986 31.7841 39.5986 31.3937 39.5986 31.0033Z" fill="#289ED2"/>
<path fill-rule="evenodd" clip-rule="evenodd" d="M39.5986 32.7155C40.7071 32.156 41.931 31.5412 43.2825 30.8588C44.7918 30.0995 46.4865 29.245 48.3997 28.2829C48.3997 28.8239 48.3997 29.3649 48.3997 29.9059C46.4865 30.7697 44.7918 31.5351 43.2825 32.2175C41.928 32.8292 40.7071 33.3825 39.5986 33.8835C39.5986 33.4932 39.5986 33.1058 39.5986 32.7155Z" fill="#289ED2"/>
<path fill-rule="evenodd" clip-rule="evenodd" d="M39.5986 34.4246C40.7071 33.9481 41.931 33.4255 43.2825 32.8477C44.7918 32.2021 46.4865 31.4767 48.3997 30.6559C48.3997 31.197 48.3997 31.741 48.3997 32.279C46.4865 32.9983 44.7918 33.6377 43.2825 34.2063C41.928 34.7166 40.7071 35.1777 39.5986 35.5957C39.5986 35.2054 39.5986 34.815 39.5986 34.4246Z" fill="#289ED2"/>
<path fill-rule="evenodd" clip-rule="evenodd" d="M39.5986 36.1337C40.7071 35.7433 41.931 35.3098 43.2825 34.8334C44.7918 34.3016 46.4865 33.7022 48.3997 33.029C48.3997 33.57 48.3997 34.111 48.3997 34.652C46.4865 35.2268 44.7918 35.7402 43.2825 36.1951C41.928 36.604 40.7041 36.9728 39.5986 37.3048C39.5986 36.9144 39.5986 36.524 39.5986 36.1337Z" fill="#289ED2"/>
<path fill-rule="evenodd" clip-rule="evenodd" d="M39.5986 37.8428C40.7071 37.5354 41.931 37.1942 43.2825 36.8192C44.7918 36.4011 46.4865 35.9308 48.3997 35.399C48.3997 35.94 48.3997 36.4841 48.3997 37.022C46.4865 37.4555 44.7918 37.8366 43.2825 38.1778C41.928 38.4852 40.7041 38.7588 39.5986 39.0109C39.5986 38.6266 39.5986 38.2332 39.5986 37.8428Z" fill="#289ED2"/>
<path fill-rule="evenodd" clip-rule="evenodd" d="M39.5986 39.555C40.7071 39.3306 41.931 39.0846 43.2825 38.8111C44.7918 38.5068 46.4865 38.1625 48.3997 37.7782C48.3997 38.3192 48.3997 38.8603 48.3997 39.4013C46.4865 39.6902 44.7918 39.9453 43.2825 40.1728C41.928 40.3757 40.7041 40.5601 39.5986 40.7292C39.5986 40.3357 39.5986 39.9454 39.5986 39.555Z" fill="#289ED2"/>
<path fill-rule="evenodd" clip-rule="evenodd" d="M39.5986 41.264C40.7071 41.1226 41.928 40.9689 43.2825 40.7968C44.7918 40.6062 46.4865 40.391 48.3997 40.1482C48.3997 40.6892 48.3997 41.2333 48.3997 41.7712C46.4865 41.9157 44.7918 42.0417 43.2825 42.1555C41.928 42.2569 40.7041 42.3491 39.5986 42.4321C39.5986 42.0448 39.5986 41.6544 39.5986 41.264Z" fill="#289ED2"/>
<path fill-rule="evenodd" clip-rule="evenodd" d="M39.5986 42.9762C40.7071 42.9178 41.928 42.8563 43.2825 42.7856C44.7918 42.7088 46.4865 42.6196 48.3997 42.5213C48.3997 43.0623 48.3997 43.6033 48.3997 44.1412C46.4865 44.1412 44.7918 44.1412 43.2825 44.1412C41.928 44.1412 40.7041 44.1412 39.5986 44.1412C39.5986 43.7539 39.5986 43.3666 39.5986 42.9762Z" fill="#289ED2"/>
<path fill-rule="evenodd" clip-rule="evenodd" d="M48.3994 23.5306C49.353 24.7817 50.2003 25.8883 50.9565 26.8781C51.6338 27.7634 52.2442 28.5657 52.8 29.2911C52.8 29.6846 52.8 30.075 52.8 30.4623C52.2442 29.7922 51.6338 29.0544 50.9565 28.2398C50.2003 27.3299 49.353 26.3094 48.3994 25.1567C48.3994 24.6187 48.3994 24.0747 48.3994 23.5306Z" fill="#29ABE2"/>
<path fill-rule="evenodd" clip-rule="evenodd" d="M48.3994 25.9067C49.353 27.0134 50.2003 27.9939 50.9565 28.8669C51.6338 29.6508 52.2442 30.3578 52.8 31.0002C52.8 31.3906 52.8 31.781 52.8 32.1714C52.2442 31.5874 51.6338 30.9418 50.9565 30.2256C50.2003 29.4295 49.353 28.5349 48.3994 27.5267C48.3994 26.9918 48.3994 26.4508 48.3994 25.9067Z" fill="#29ABE2"/>
<path fill-rule="evenodd" clip-rule="evenodd" d="M48.3994 28.2829C49.353 29.245 50.2003 30.0995 50.9565 30.8588C51.6338 31.5412 52.2442 32.156 52.8 32.7155C52.8 33.1058 52.8 33.4962 52.8 33.8835C52.2442 33.3825 51.6338 32.8292 50.9565 32.2175C50.2003 31.5351 49.353 30.7697 48.3994 29.9059C48.3994 29.3649 48.3994 28.8239 48.3994 28.2829Z" fill="#29ABE2"/>
<path fill-rule="evenodd" clip-rule="evenodd" d="M48.3994 30.6559C49.353 31.4736 50.2003 32.1991 50.9565 32.8477C51.6338 33.4286 52.2472 33.9512 52.8 34.4276C52.8 34.818 52.8 35.2084 52.8 35.5988C52.2442 35.1808 51.6338 34.7197 50.9565 34.2094C50.2003 33.6407 49.353 33.0013 48.3994 32.2821C48.3994 31.738 48.3994 31.197 48.3994 30.6559Z" fill="#29ABE2"/>
<path fill-rule="evenodd" clip-rule="evenodd" d="M48.3994 33.029C49.353 33.7022 50.2003 34.3016 50.9565 34.8334C51.6338 35.3098 52.2472 35.7433 52.8 36.1337C52.8 36.524 52.8 36.9144 52.8 37.3017C52.2442 36.9667 51.6338 36.5978 50.9565 36.1921C50.2003 35.7371 49.353 35.2268 48.3994 34.652C48.3994 34.111 48.3994 33.57 48.3994 33.029Z" fill="#29ABE2"/>
<path fill-rule="evenodd" clip-rule="evenodd" d="M48.3994 35.4021C49.353 35.9339 50.2003 36.4011 50.9565 36.8222C51.6338 37.1973 52.2472 37.5385 52.8 37.8459C52.8 38.2362 52.8 38.6266 52.8 39.017C52.2442 38.765 51.6338 38.4883 50.9565 38.184C50.2003 37.8428 49.353 37.4585 48.3994 37.0282C48.3994 36.4841 48.3994 35.9431 48.3994 35.4021Z" fill="#29ABE2"/>
<path fill-rule="evenodd" clip-rule="evenodd" d="M48.3994 37.7751C49.353 38.1624 50.2003 38.5037 50.9565 38.808C51.6338 39.0815 52.2472 39.3305 52.8 39.5549C52.8 39.9453 52.8 40.3357 52.8 40.723C52.2442 40.557 51.6338 40.3726 50.9565 40.1666C50.2003 39.9392 49.353 39.684 48.3994 39.3951C48.3994 38.8572 48.3994 38.3192 48.3994 37.7751Z" fill="#29ABE2"/>
<path fill-rule="evenodd" clip-rule="evenodd" d="M48.3994 40.1482C49.353 40.391 50.2003 40.6062 50.9565 40.7968C51.6338 40.9689 52.2472 41.1226 52.8 41.264C52.8 41.6544 52.8 42.0448 52.8 42.4352C52.2442 42.3522 51.6338 42.26 50.9565 42.1586C50.2003 42.0448 49.353 41.9188 48.3994 41.7743C48.3994 41.2333 48.3994 40.6892 48.3994 40.1482Z" fill="#29ABE2"/>
<path fill-rule="evenodd" clip-rule="evenodd" d="M48.3994 42.5213C49.353 42.6196 50.2003 42.7057 50.9565 42.7856C51.6338 42.8563 52.2472 42.9178 52.8 42.9762C52.8 43.3666 52.8 43.757 52.8 44.1443C52.2442 44.1443 51.6338 44.1443 50.9565 44.1443C50.2003 44.1443 49.353 44.1443 48.3994 44.1443C48.3994 43.6033 48.3994 43.0653 48.3994 42.5213Z" fill="#29ABE2"/>
<path fill-rule="evenodd" clip-rule="evenodd" d="M54.8286 44.2734C56.2225 44.5193 57 44.7929 57 45.0788C57 46.1393 46.4769 46.9969 33.5 46.9969C20.52 46.9969 10 46.1362 10 45.0788C10 44.7683 10.902 44.4763 12.5025 44.215C16.2349 44.8728 24.38 45.3278 33.831 45.3278C43.0118 45.3309 50.9625 44.9005 54.8286 44.2734Z" fill="#F8971C"/>
<path d="M8.55664 57H7.49707V52.8848H6.14014V52.0029H9.91357V52.8848H8.55664V57ZM10.5562 52.1909C10.5562 51.8514 10.7453 51.6816 11.1235 51.6816C11.5018 51.6816 11.6909 51.8514 11.6909 52.1909C11.6909 52.3527 11.6431 52.4792 11.5474 52.5703C11.4539 52.6592 11.3127 52.7036 11.1235 52.7036C10.7453 52.7036 10.5562 52.5327 10.5562 52.1909ZM11.6431 57H10.6006V53.1787H11.6431V57ZM16.1616 57H15.1191V54.7681C15.1191 54.4924 15.0724 54.2861 14.979 54.1494C14.8879 54.0104 14.7432 53.9409 14.5449 53.9409C14.2783 53.9409 14.0846 54.0389 13.9639 54.2349C13.8431 54.4308 13.7827 54.7533 13.7827 55.2021V57H12.7402V53.1787H13.5366L13.6768 53.6675H13.7349C13.8374 53.492 13.9855 53.3553 14.1792 53.2573C14.3729 53.1571 14.5951 53.1069 14.8457 53.1069C15.4176 53.1069 15.805 53.2938 16.0078 53.6675H16.1001C16.2026 53.4897 16.353 53.3519 16.5513 53.2539C16.7518 53.1559 16.9774 53.1069 17.228 53.1069C17.661 53.1069 17.988 53.2186 18.209 53.4419C18.4323 53.6629 18.5439 54.0184 18.5439 54.5083V57H17.498V54.7681C17.498 54.4924 17.4513 54.2861 17.3579 54.1494C17.2668 54.0104 17.1221 53.9409 16.9238 53.9409C16.6686 53.9409 16.4772 54.0321 16.3496 54.2144C16.2243 54.3966 16.1616 54.686 16.1616 55.0825V57ZM20.5264 57L19.0703 53.1787H20.1606L20.8989 55.356C20.981 55.6317 21.0322 55.8926 21.0527 56.1387H21.0732C21.0846 55.9199 21.1359 55.659 21.2271 55.356L21.9619 53.1787H23.0522L21.5962 57H20.5264ZM23.5581 52.1909C23.5581 51.8514 23.7472 51.6816 24.1255 51.6816C24.5037 51.6816 24.6929 51.8514 24.6929 52.1909C24.6929 52.3527 24.645 52.4792 24.5493 52.5703C24.4559 52.6592 24.3146 52.7036 24.1255 52.7036C23.7472 52.7036 23.5581 52.5327 23.5581 52.1909ZM24.645 57H23.6025V53.1787H24.645V57ZM27.3247 53.8486C27.1037 53.8486 26.9305 53.9193 26.8052 54.0605C26.6799 54.1995 26.6081 54.3978 26.5898 54.6553H28.0527C28.0482 54.3978 27.981 54.1995 27.8511 54.0605C27.7212 53.9193 27.5457 53.8486 27.3247 53.8486ZM27.4717 57.0684C26.8564 57.0684 26.3757 56.8986 26.0293 56.5591C25.6829 56.2196 25.5098 55.7388 25.5098 55.1167C25.5098 54.4764 25.6693 53.9819 25.9883 53.6333C26.3096 53.2824 26.7528 53.1069 27.3179 53.1069C27.8579 53.1069 28.2783 53.2607 28.5791 53.5684C28.8799 53.876 29.0303 54.3009 29.0303 54.8433V55.3491H26.5659C26.5773 55.6453 26.665 55.8766 26.8291 56.043C26.9932 56.2093 27.2233 56.2925 27.5195 56.2925C27.7497 56.2925 27.9673 56.2686 28.1724 56.2207C28.3774 56.1729 28.5916 56.0965 28.8149 55.9917V56.7983C28.6326 56.8895 28.4378 56.9567 28.2305 57C28.0231 57.0456 27.7702 57.0684 27.4717 57.0684ZM31.4297 57.0684C30.2402 57.0684 29.6455 56.4155 29.6455 55.1099C29.6455 54.4604 29.8073 53.9648 30.1309 53.623C30.4544 53.279 30.9181 53.1069 31.522 53.1069C31.964 53.1069 32.3605 53.1935 32.7114 53.3667L32.4038 54.1733C32.2397 54.1073 32.0871 54.0537 31.9458 54.0127C31.8045 53.9694 31.6632 53.9478 31.522 53.9478C30.9797 53.9478 30.7085 54.3328 30.7085 55.103C30.7085 55.8504 30.9797 56.2241 31.522 56.2241C31.7225 56.2241 31.9082 56.1979 32.0791 56.1455C32.25 56.0908 32.4209 56.0065 32.5918 55.8926V56.7847C32.4232 56.8918 32.2523 56.9658 32.0791 57.0068C31.9082 57.0479 31.6917 57.0684 31.4297 57.0684ZM36.5122 53.1206C36.5122 53.4328 36.4176 53.6982 36.2285 53.917C36.0394 54.1357 35.7739 54.2861 35.4321 54.3682V54.3887C35.8354 54.4388 36.1408 54.5618 36.3481 54.7578C36.5555 54.9515 36.6592 55.2135 36.6592 55.5439C36.6592 56.0247 36.4849 56.3996 36.1362 56.6685C35.7876 56.9351 35.2897 57.0684 34.6426 57.0684C34.1003 57.0684 33.6195 56.9784 33.2002 56.7983V55.8994C33.3939 55.9974 33.6069 56.0771 33.8394 56.1387C34.0718 56.2002 34.3019 56.231 34.5298 56.231C34.8784 56.231 35.1359 56.1717 35.3022 56.0532C35.4686 55.9347 35.5518 55.7445 35.5518 55.4824C35.5518 55.2477 35.4561 55.0814 35.2646 54.9834C35.0732 54.8854 34.7679 54.8364 34.3486 54.8364H33.9692V54.0264H34.3555C34.7428 54.0264 35.0254 53.9762 35.2031 53.876C35.3831 53.7734 35.4731 53.5991 35.4731 53.353C35.4731 52.9748 35.2362 52.7856 34.7622 52.7856C34.5981 52.7856 34.4307 52.813 34.2598 52.8677C34.0911 52.9224 33.9032 53.0169 33.6958 53.1514L33.207 52.4233C33.6628 52.0952 34.2062 51.9312 34.8374 51.9312C35.3547 51.9312 35.7625 52.036 36.061 52.2456C36.3618 52.4552 36.5122 52.7469 36.5122 53.1206ZM37.1787 54.8774C37.1787 53.8885 37.3872 53.1525 37.8042 52.6694C38.2235 52.1864 38.8501 51.9448 39.6841 51.9448C39.9689 51.9448 40.1922 51.9619 40.354 51.9961V52.8403C40.1512 52.7948 39.9507 52.772 39.7524 52.772C39.3901 52.772 39.0939 52.8267 38.8638 52.936C38.6359 53.0454 38.465 53.2072 38.3511 53.4214C38.2371 53.6356 38.1699 53.9398 38.1494 54.334H38.1938C38.4194 53.9466 38.7806 53.7529 39.2773 53.7529C39.724 53.7529 40.0737 53.8931 40.3267 54.1733C40.5796 54.4536 40.7061 54.841 40.7061 55.3354C40.7061 55.8687 40.5557 56.2913 40.2549 56.6035C39.9541 56.9134 39.5371 57.0684 39.0039 57.0684C38.6348 57.0684 38.3123 56.9829 38.0366 56.812C37.7632 56.6411 37.5513 56.3916 37.4009 56.0635C37.2528 55.7354 37.1787 55.34 37.1787 54.8774ZM38.9834 56.2241C39.209 56.2241 39.3822 56.1489 39.5029 55.9985C39.6237 55.8459 39.6841 55.6294 39.6841 55.3491C39.6841 55.1053 39.6271 54.9139 39.5132 54.7749C39.4015 54.6336 39.2318 54.563 39.0039 54.563C38.7897 54.563 38.6063 54.6325 38.4536 54.7715C38.3032 54.9105 38.228 55.0723 38.228 55.2568C38.228 55.528 38.2987 55.757 38.4399 55.9438C38.5835 56.1307 38.7646 56.2241 38.9834 56.2241ZM43.0303 53.8076C43.5133 53.8076 43.8973 53.9432 44.1821 54.2144C44.4692 54.4855 44.6128 54.8569 44.6128 55.3286C44.6128 55.8869 44.4408 56.3164 44.0967 56.6172C43.7526 56.918 43.2604 57.0684 42.6201 57.0684C42.0641 57.0684 41.6152 56.9784 41.2734 56.7983V55.8857C41.4535 55.9814 41.6631 56.0601 41.9023 56.1216C42.1416 56.1808 42.3683 56.2104 42.5825 56.2104C43.2274 56.2104 43.5498 55.9461 43.5498 55.4175C43.5498 54.9139 43.216 54.6621 42.5483 54.6621C42.4276 54.6621 42.2943 54.6746 42.1484 54.6997C42.0026 54.7225 41.8841 54.7476 41.793 54.7749L41.3726 54.5493L41.5605 52.0029H44.271V52.8984H42.4868L42.3945 53.8794L42.5142 53.8555C42.6532 53.8236 42.8252 53.8076 43.0303 53.8076ZM45.3306 56.5112C45.3306 56.3198 45.3818 56.1751 45.4844 56.0771C45.5869 55.9792 45.7362 55.9302 45.9321 55.9302C46.1213 55.9302 46.2671 55.9803 46.3696 56.0806C46.4744 56.1808 46.5269 56.3244 46.5269 56.5112C46.5269 56.6912 46.4744 56.8337 46.3696 56.9385C46.2648 57.041 46.119 57.0923 45.9321 57.0923C45.7407 57.0923 45.5926 57.0422 45.4878 56.9419C45.383 56.8394 45.3306 56.6958 45.3306 56.5112ZM49.0254 57.0684C47.8359 57.0684 47.2412 56.4155 47.2412 55.1099C47.2412 54.4604 47.403 53.9648 47.7266 53.623C48.0501 53.279 48.5138 53.1069 49.1177 53.1069C49.5597 53.1069 49.9562 53.1935 50.3071 53.3667L49.9995 54.1733C49.8354 54.1073 49.6828 54.0537 49.5415 54.0127C49.4002 53.9694 49.259 53.9478 49.1177 53.9478C48.5754 53.9478 48.3042 54.3328 48.3042 55.103C48.3042 55.8504 48.5754 56.2241 49.1177 56.2241C49.3182 56.2241 49.5039 56.1979 49.6748 56.1455C49.8457 56.0908 50.0166 56.0065 50.1875 55.8926V56.7847C50.0189 56.8918 49.848 56.9658 49.6748 57.0068C49.5039 57.0479 49.2874 57.0684 49.0254 57.0684ZM51.9067 55.0825C51.9067 55.4608 51.9683 55.7467 52.0913 55.9404C52.2166 56.1341 52.4194 56.231 52.6997 56.231C52.9777 56.231 53.1771 56.1353 53.2979 55.9438C53.4209 55.7502 53.4824 55.4631 53.4824 55.0825C53.4824 54.7043 53.4209 54.4206 53.2979 54.2314C53.1748 54.0423 52.9731 53.9478 52.6929 53.9478C52.4149 53.9478 52.2144 54.0423 52.0913 54.2314C51.9683 54.4183 51.9067 54.702 51.9067 55.0825ZM54.5488 55.0825C54.5488 55.7046 54.3848 56.1911 54.0566 56.542C53.7285 56.8929 53.2716 57.0684 52.686 57.0684C52.3192 57.0684 51.9956 56.9886 51.7153 56.8291C51.4351 56.6673 51.2197 56.436 51.0693 56.1353C50.9189 55.8345 50.8438 55.4836 50.8438 55.0825C50.8438 54.4582 51.0067 53.9728 51.3325 53.6265C51.6584 53.2801 52.1164 53.1069 52.7065 53.1069C53.0734 53.1069 53.397 53.1867 53.6772 53.3462C53.9575 53.5057 54.1729 53.7347 54.3232 54.0332C54.4736 54.3317 54.5488 54.6815 54.5488 55.0825ZM58.8315 57H57.7891V54.7681C57.7891 54.4924 57.7424 54.2861 57.6489 54.1494C57.5578 54.0104 57.4131 53.9409 57.2148 53.9409C56.9482 53.9409 56.7546 54.0389 56.6338 54.2349C56.513 54.4308 56.4526 54.7533 56.4526 55.2021V57H55.4102V53.1787H56.2065L56.3467 53.6675H56.4048C56.5073 53.492 56.6554 53.3553 56.8491 53.2573C57.0428 53.1571 57.265 53.1069 57.5156 53.1069C58.0876 53.1069 58.4749 53.2938 58.6777 53.6675H58.77C58.8726 53.4897 59.0229 53.3519 59.2212 53.2539C59.4217 53.1559 59.6473 53.1069 59.8979 53.1069C60.3309 53.1069 60.6579 53.2186 60.8789 53.4419C61.1022 53.6629 61.2139 54.0184 61.2139 54.5083V57H60.168V54.7681C60.168 54.4924 60.1213 54.2861 60.0278 54.1494C59.9367 54.0104 59.792 53.9409 59.5938 53.9409C59.3385 53.9409 59.1471 54.0321 59.0195 54.2144C58.8942 54.3966 58.8315 54.686 58.8315 55.0825V57Z" fill="#3980D4"/>
</svg>
