<svg width="67" height="67" viewBox="0 0 67 67" fill="none" xmlns="http://www.w3.org/2000/svg">
<rect x="0.5" y="0.5" width="66" height="66" rx="33" fill="#FAFAFA" stroke="#E0E0E0"/>
<g clip-path="url(#clip0)">
<path fill-rule="evenodd" clip-rule="evenodd" d="M18.4893 14.7038C20.1645 13.6067 22.013 12.3995 24.0595 11.0595C26.341 9.56666 28.9022 7.89103 31.7925 6C31.7925 6.82153 31.7925 7.64056 31.7925 8.45709C28.9022 10.2003 26.3386 11.7432 24.057 13.1183C22.0106 14.3506 20.1621 15.4652 18.4893 16.4746C18.4893 15.8885 18.4893 15.2974 18.4893 14.7038Z" fill="#289ED2"/>
<path fill-rule="evenodd" clip-rule="evenodd" d="M18.4893 17.2911C20.1645 16.3218 22.013 15.2498 24.057 14.0676C26.3386 12.7476 28.8997 11.2648 31.7925 9.59171C31.7925 10.4107 31.7925 11.2298 31.7925 12.0463C28.9022 13.5691 26.3386 14.9192 24.057 16.1239C22.0106 17.2034 20.1621 18.1777 18.4893 19.0619C18.4893 18.4733 18.4893 17.8822 18.4893 17.2911Z" fill="#289ED2"/>
<path fill-rule="evenodd" clip-rule="evenodd" d="M18.4893 19.8785C20.1645 19.0344 22.013 18.1051 24.057 17.0732C26.3386 15.9236 28.8997 14.6337 31.7925 13.1784C31.7925 13.9975 31.7925 14.814 31.7925 15.6305C28.9022 16.938 26.3386 18.0951 24.057 19.127C22.0106 20.0513 20.1621 20.8878 18.4893 21.6443C18.4893 21.0557 18.4893 20.4671 18.4893 19.8785Z" fill="#289ED2"/>
<path fill-rule="evenodd" clip-rule="evenodd" d="M18.4893 22.4607C20.1645 21.7419 22.013 20.9504 24.057 20.0763C26.3386 19.0995 28.8997 18.0024 31.7925 16.7651C31.7925 17.5841 31.7925 18.4032 31.7925 19.2197C28.9022 20.3092 26.3386 21.2735 24.057 22.1326C22.0106 22.9041 20.1621 23.5979 18.4893 24.2316C18.4893 23.6405 18.4893 23.0519 18.4893 22.4607Z" fill="#289ED2"/>
<path fill-rule="evenodd" clip-rule="evenodd" d="M18.4893 25.0456C20.1645 24.4545 22.013 23.8033 24.057 23.0794C26.3386 22.2754 28.8997 21.3712 31.7925 20.3518C31.7925 21.1708 31.7925 21.9874 31.7925 22.8039C28.9022 23.6755 26.3386 24.447 24.057 25.1332C22.0106 25.7494 20.1621 26.3054 18.4893 26.8114C18.4893 26.2253 18.4893 25.6367 18.4893 25.0456Z" fill="#289ED2"/>
<path fill-rule="evenodd" clip-rule="evenodd" d="M18.4893 27.6279C20.1621 27.162 22.013 26.6511 24.057 26.0825C26.3386 25.4488 28.8997 24.7375 31.7925 23.936C31.7925 24.755 31.7925 25.5741 31.7925 26.3906C28.9022 27.0443 26.3386 27.6229 24.057 28.1388C22.0106 28.6022 20.1621 29.018 18.4893 29.3987C18.4893 28.8101 18.4893 28.219 18.4893 27.6279Z" fill="#289ED2"/>
<path fill-rule="evenodd" clip-rule="evenodd" d="M18.4893 30.2152C20.1621 29.8771 22.013 29.5039 24.057 29.0881C26.3386 28.6273 28.8997 28.1088 31.7925 27.5252C31.7925 28.3442 31.7925 29.1608 31.7925 29.9773C28.9022 30.4131 26.3386 30.7988 24.057 31.142C22.0106 31.45 20.1621 31.7281 18.4893 31.981C18.4893 31.3924 18.4893 30.8038 18.4893 30.2152Z" fill="#289ED2"/>
<path fill-rule="evenodd" clip-rule="evenodd" d="M18.4893 32.7976C20.1621 32.5847 22.0106 32.3517 24.057 32.0912C26.3386 31.8032 28.8997 31.4776 31.7925 31.1094C31.7925 31.9284 31.7925 32.7475 31.7925 33.564C28.9022 33.7819 26.3386 33.9748 24.057 34.1451C22.0106 34.3004 20.1621 34.4381 18.4893 34.5634C18.4893 33.9773 18.4893 33.3887 18.4893 32.7976Z" fill="#289ED2"/>
<path fill-rule="evenodd" clip-rule="evenodd" d="M18.4893 35.3824C20.1621 35.2972 22.0106 35.202 24.057 35.0969C26.3386 34.9791 28.8997 34.8489 31.7925 34.6986C31.7925 35.5176 31.7925 36.3342 31.7925 37.1457C28.9022 37.1457 26.3386 37.1457 24.057 37.1457C22.0106 37.1457 20.1621 37.1457 18.4893 37.1457C18.4893 36.5621 18.4893 35.9735 18.4893 35.3824Z" fill="#289ED2"/>
<path fill-rule="evenodd" clip-rule="evenodd" d="M31.792 6C33.2347 7.89103 34.5165 9.56416 35.6573 11.0595C36.6792 12.3995 37.6047 13.6092 38.4436 14.7063C38.4436 15.2999 38.4436 15.8885 38.4436 16.4771C37.6047 15.4652 36.6792 14.3506 35.6573 13.1183C34.5165 11.7432 33.2371 10.2003 31.792 8.45959C31.792 7.64056 31.792 6.82153 31.792 6Z" fill="#29ABE2"/>
<path fill-rule="evenodd" clip-rule="evenodd" d="M31.792 9.59171C33.2347 11.2648 34.5165 12.7451 35.6573 14.0676C36.6792 15.2523 37.6047 16.3218 38.4436 17.2936C38.4436 17.8847 38.4436 18.4733 38.4436 19.0619C37.6047 18.1777 36.6792 17.2009 35.6573 16.1239C34.5165 14.9192 33.2371 13.5716 31.792 12.0463C31.792 11.2298 31.792 10.4107 31.792 9.59171Z" fill="#29ABE2"/>
<path fill-rule="evenodd" clip-rule="evenodd" d="M31.792 13.1784C33.2347 14.6337 34.5165 15.9211 35.6573 17.0707C36.6792 18.1001 37.6047 19.0319 38.4436 19.8759C38.4436 20.4671 38.4436 21.0531 38.4436 21.6417C37.6047 20.8828 36.6792 20.0463 35.6573 19.122C34.5165 18.0901 33.2371 16.9329 31.792 15.628C31.792 14.814 31.792 13.9975 31.792 13.1784Z" fill="#29ABE2"/>
<path fill-rule="evenodd" clip-rule="evenodd" d="M31.792 16.7651C33.2347 18.0024 34.514 19.097 35.6573 20.0763C36.6792 20.9529 37.6047 21.7444 38.4436 22.4633C38.4436 23.0544 38.4436 23.643 38.4436 24.2316C37.6047 23.6004 36.6792 22.9041 35.6573 22.1326C34.5165 21.2735 33.2371 20.3092 31.792 19.2222C31.792 18.4032 31.792 17.5841 31.792 16.7651Z" fill="#29ABE2"/>
<path fill-rule="evenodd" clip-rule="evenodd" d="M31.792 20.3518C33.2347 21.3712 34.514 22.2729 35.6573 23.0794C36.6817 23.8008 37.6047 24.4545 38.4436 25.0456C38.4436 25.6367 38.4436 26.2228 38.4436 26.8114C37.6047 26.3054 36.6792 25.7494 35.6573 25.1332C34.5165 24.4445 33.2371 23.673 31.792 22.8039C31.792 21.9874 31.792 21.1708 31.792 20.3518Z" fill="#29ABE2"/>
<path fill-rule="evenodd" clip-rule="evenodd" d="M31.792 23.9385C33.2347 24.74 34.514 25.4513 35.6573 26.0825C36.6817 26.6511 37.6047 27.1645 38.4436 27.6279C38.4436 28.219 38.4436 28.8076 38.4436 29.3962C37.6047 29.018 36.6792 28.5997 35.6573 28.1363C34.5165 27.6204 33.2371 27.0418 31.792 26.3906C31.792 25.5766 31.792 24.7575 31.792 23.9385Z" fill="#29ABE2"/>
<path fill-rule="evenodd" clip-rule="evenodd" d="M31.792 27.5252C33.2347 28.1088 34.514 28.6273 35.6573 29.0881C36.6817 29.5014 37.6047 29.8746 38.4436 30.2152C38.4436 30.8063 38.4436 31.3924 38.4436 31.981C37.6047 31.7281 36.6792 31.45 35.6573 31.142C34.5165 30.7988 33.2371 30.4131 31.792 29.9773C31.792 29.1608 31.792 28.3442 31.792 27.5252Z" fill="#29ABE2"/>
<path fill-rule="evenodd" clip-rule="evenodd" d="M31.792 31.1094C33.2347 31.4751 34.514 31.8007 35.6573 32.0887C36.6817 32.3492 37.6047 32.5822 38.4436 32.7951C38.4436 33.3862 38.4436 33.9748 38.4436 34.5634C37.6047 34.4381 36.6792 34.2979 35.6573 34.1451C34.5165 33.9723 33.2371 33.7819 31.792 33.564C31.792 32.75 31.792 31.9284 31.792 31.1094Z" fill="#29ABE2"/>
<path fill-rule="evenodd" clip-rule="evenodd" d="M31.792 34.6986C33.2347 34.8464 34.514 34.9791 35.6573 35.0969C36.6817 35.202 37.6047 35.2972 38.4436 35.3824C38.4436 35.9735 38.4436 36.5596 38.4436 37.1457C37.6047 37.1457 36.6792 37.1457 35.6573 37.1457C34.514 37.1457 33.2347 37.1457 31.792 37.1457C31.792 36.3342 31.792 35.5176 31.792 34.6986Z" fill="#29ABE2"/>
<path fill-rule="evenodd" clip-rule="evenodd" d="M39.1172 24.9779C40.0204 24.3868 41.0176 23.7356 42.1213 23.0118C43.3512 22.2078 44.732 21.3036 46.2909 20.2842C46.2909 20.7275 46.2909 21.1683 46.2909 21.6092C44.732 22.5484 43.3512 23.38 42.1213 24.1213C41.0176 24.7851 40.0229 25.3862 39.1197 25.9322C39.1172 25.6166 39.1172 25.2985 39.1172 24.9779Z" fill="#289ED2"/>
<path fill-rule="evenodd" clip-rule="evenodd" d="M39.1172 26.3731C40.0204 25.8496 41.0176 25.2735 42.1188 24.6348C43.3487 23.9235 44.7295 23.122 46.2885 22.2203C46.2885 22.6611 46.2885 23.1045 46.2885 23.5428C44.7295 24.3643 43.3487 25.0932 42.1188 25.7419C41.0152 26.323 40.0204 26.849 39.1172 27.3248C39.1172 27.0093 39.1172 26.6912 39.1172 26.3731Z" fill="#289ED2"/>
<path fill-rule="evenodd" clip-rule="evenodd" d="M39.1172 27.7682C40.0204 27.3123 41.0176 26.8114 42.1188 26.2553C43.3487 25.6367 44.7295 24.9404 46.2885 24.1564C46.2885 24.5972 46.2885 25.038 46.2885 25.4789C44.7295 26.1827 43.3487 26.8064 42.1188 27.3624C41.0152 27.8608 40.0204 28.3117 39.1172 28.7199C39.1172 28.4018 39.1172 28.0862 39.1172 27.7682Z" fill="#289ED2"/>
<path fill-rule="evenodd" clip-rule="evenodd" d="M39.1172 29.1608C40.0204 28.7725 41.0176 28.3467 42.1188 27.8759C43.3487 27.3499 44.7295 26.7588 46.2885 26.09C46.2885 26.5309 46.2885 26.9742 46.2885 27.4125C44.7295 27.9986 43.3487 28.5196 42.1188 28.9829C41.0152 29.3987 40.0204 29.7744 39.1172 30.115C39.1172 29.797 39.1172 29.4789 39.1172 29.1608Z" fill="#289ED2"/>
<path fill-rule="evenodd" clip-rule="evenodd" d="M39.1172 30.5533C40.0204 30.2353 41.0176 29.8821 42.1188 29.4939C43.3487 29.0606 44.7295 28.5721 46.2885 28.0236C46.2885 28.4644 46.2885 28.9053 46.2885 29.3461C44.7295 29.8145 43.3487 30.2327 42.1188 30.6034C41.0152 30.9366 40.0179 31.2371 39.1172 31.5076C39.1172 31.1895 39.1172 30.8714 39.1172 30.5533Z" fill="#289ED2"/>
<path fill-rule="evenodd" clip-rule="evenodd" d="M39.1172 31.946C40.0204 31.6955 41.0176 31.4175 42.1188 31.1119C43.3487 30.7713 44.7295 30.3881 46.2885 29.9547C46.2885 30.3956 46.2885 30.8389 46.2885 31.2772C44.7295 31.6304 43.3487 31.941 42.1188 32.219C41.0152 32.4694 40.0179 32.6924 39.1172 32.8977C39.1172 32.5847 39.1172 32.2641 39.1172 31.946Z" fill="#289ED2"/>
<path fill-rule="evenodd" clip-rule="evenodd" d="M39.1172 33.3411C40.0204 33.1582 41.0176 32.9579 42.1188 32.7349C43.3487 32.487 44.7295 32.2065 46.2885 31.8934C46.2885 32.3342 46.2885 32.775 46.2885 33.2158C44.7295 33.4513 43.3487 33.6592 42.1188 33.8445C41.0152 34.0098 40.0179 34.1601 39.1172 34.2979C39.1172 33.9773 39.1172 33.6592 39.1172 33.3411Z" fill="#289ED2"/>
<path fill-rule="evenodd" clip-rule="evenodd" d="M39.1172 34.7337C40.0204 34.6184 41.0152 34.4932 42.1188 34.353C43.3487 34.1977 44.7295 34.0223 46.2885 33.8245C46.2885 34.2653 46.2885 34.7086 46.2885 35.1469C44.7295 35.2647 43.3487 35.3673 42.1188 35.46C41.0152 35.5427 40.0179 35.6178 39.1172 35.6854C39.1172 35.3699 39.1172 35.0518 39.1172 34.7337Z" fill="#289ED2"/>
<path fill-rule="evenodd" clip-rule="evenodd" d="M39.1172 36.1288C40.0204 36.0812 41.0152 36.0311 42.1188 35.9735C43.3487 35.9108 44.7295 35.8382 46.2885 35.7581C46.2885 36.1989 46.2885 36.6397 46.2885 37.078C44.7295 37.078 43.3487 37.078 42.1188 37.078C41.0152 37.078 40.0179 37.078 39.1172 37.078C39.1172 36.7624 39.1172 36.4468 39.1172 36.1288Z" fill="#289ED2"/>
<path fill-rule="evenodd" clip-rule="evenodd" d="M46.2881 20.2842C47.0651 21.3036 47.7555 22.2053 48.3717 23.0118C48.9235 23.7331 49.4209 24.3868 49.8737 24.9779C49.8737 25.2985 49.8737 25.6166 49.8737 25.9322C49.4209 25.3862 48.9235 24.7851 48.3717 24.1213C47.7555 23.38 47.0651 22.5484 46.2881 21.6092C46.2881 21.1708 46.2881 20.7275 46.2881 20.2842Z" fill="#29ABE2"/>
<path fill-rule="evenodd" clip-rule="evenodd" d="M46.2881 22.2203C47.0651 23.122 47.7555 23.921 48.3717 24.6323C48.9235 25.271 49.4209 25.8471 49.8737 26.3706C49.8737 26.6887 49.8737 27.0067 49.8737 27.3248C49.4209 26.849 48.9235 26.323 48.3717 25.7394C47.7555 25.0907 47.0651 24.3618 46.2881 23.5403C46.2881 23.1045 46.2881 22.6636 46.2881 22.2203Z" fill="#29ABE2"/>
<path fill-rule="evenodd" clip-rule="evenodd" d="M46.2881 24.1564C47.0651 24.9404 47.7555 25.6367 48.3717 26.2553C48.9235 26.8114 49.4209 27.3123 49.8737 27.7682C49.8737 28.0862 49.8737 28.4043 49.8737 28.7199C49.4209 28.3117 48.9235 27.8608 48.3717 27.3624C47.7555 26.8064 47.0651 26.1827 46.2881 25.4789C46.2881 25.038 46.2881 24.5972 46.2881 24.1564Z" fill="#29ABE2"/>
<path fill-rule="evenodd" clip-rule="evenodd" d="M46.2881 26.09C47.0651 26.7563 47.7555 27.3474 48.3717 27.8759C48.9235 28.3492 49.4234 28.775 49.8737 29.1633C49.8737 29.4814 49.8737 29.7995 49.8737 30.1175C49.4209 29.7769 48.9235 29.4012 48.3717 28.9854C47.7555 28.5221 47.0651 28.0011 46.2881 27.415C46.2881 26.9717 46.2881 26.5309 46.2881 26.09Z" fill="#29ABE2"/>
<path fill-rule="evenodd" clip-rule="evenodd" d="M46.2881 28.0236C47.0651 28.5721 47.7555 29.0606 48.3717 29.4939C48.9235 29.8821 49.4234 30.2353 49.8737 30.5533C49.8737 30.8714 49.8737 31.1895 49.8737 31.5051C49.4209 31.2321 48.9235 30.9316 48.3717 30.6009C47.7555 30.2302 47.0651 29.8145 46.2881 29.3461C46.2881 28.9053 46.2881 28.4644 46.2881 28.0236Z" fill="#29ABE2"/>
<path fill-rule="evenodd" clip-rule="evenodd" d="M46.2881 29.9572C47.0651 30.3906 47.7555 30.7713 48.3717 31.1144C48.9235 31.42 49.4234 31.698 49.8737 31.9485C49.8737 32.2666 49.8737 32.5847 49.8737 32.9027C49.4209 32.6974 48.9235 32.4719 48.3717 32.224C47.7555 31.946 47.0651 31.6329 46.2881 31.2822C46.2881 30.8389 46.2881 30.3981 46.2881 29.9572Z" fill="#29ABE2"/>
<path fill-rule="evenodd" clip-rule="evenodd" d="M46.2881 31.8908C47.0651 32.2064 47.7555 32.4844 48.3717 32.7324C48.9235 32.9553 49.4234 33.1582 49.8737 33.341C49.8737 33.6591 49.8737 33.9772 49.8737 34.2928C49.4209 34.1576 48.9235 34.0073 48.3717 33.8395C47.7555 33.6541 47.0651 33.4462 46.2881 33.2108C46.2881 32.7725 46.2881 32.3342 46.2881 31.8908Z" fill="#29ABE2"/>
<path fill-rule="evenodd" clip-rule="evenodd" d="M46.2881 33.8245C47.0651 34.0223 47.7555 34.1977 48.3717 34.353C48.9235 34.4932 49.4234 34.6184 49.8737 34.7337C49.8737 35.0518 49.8737 35.3699 49.8737 35.6879C49.4209 35.6203 48.9235 35.5452 48.3717 35.4625C47.7555 35.3698 47.0651 35.2672 46.2881 35.1494C46.2881 34.7086 46.2881 34.2653 46.2881 33.8245Z" fill="#29ABE2"/>
<path fill-rule="evenodd" clip-rule="evenodd" d="M46.2881 35.7581C47.0651 35.8382 47.7555 35.9083 48.3717 35.9735C48.9235 36.0311 49.4234 36.0812 49.8737 36.1288C49.8737 36.4468 49.8737 36.7649 49.8737 37.0805C49.4209 37.0805 48.9235 37.0805 48.3717 37.0805C47.7555 37.0805 47.0651 37.0805 46.2881 37.0805C46.2881 36.6397 46.2881 36.2014 46.2881 35.7581Z" fill="#29ABE2"/>
<path fill-rule="evenodd" clip-rule="evenodd" d="M51.527 37.1857C52.6628 37.3861 53.2963 37.609 53.2963 37.842C53.2963 38.7061 44.7219 39.4049 34.1481 39.4049C23.5719 39.4049 15 38.7036 15 37.842C15 37.589 15.7349 37.3511 17.039 37.1382C20.0803 37.6742 26.717 38.0448 34.4179 38.0448C41.8985 38.0473 48.3769 37.6967 51.527 37.1857Z" fill="#F8971C"/>
</g>
<path d="M8.55664 49H7.49707V44.8848H6.14014V44.0029H9.91357V44.8848H8.55664V49ZM10.5562 44.1909C10.5562 43.8514 10.7453 43.6816 11.1235 43.6816C11.5018 43.6816 11.6909 43.8514 11.6909 44.1909C11.6909 44.3527 11.6431 44.4792 11.5474 44.5703C11.4539 44.6592 11.3127 44.7036 11.1235 44.7036C10.7453 44.7036 10.5562 44.5327 10.5562 44.1909ZM11.6431 49H10.6006V45.1787H11.6431V49ZM16.1616 49H15.1191V46.7681C15.1191 46.4924 15.0724 46.2861 14.979 46.1494C14.8879 46.0104 14.7432 45.9409 14.5449 45.9409C14.2783 45.9409 14.0846 46.0389 13.9639 46.2349C13.8431 46.4308 13.7827 46.7533 13.7827 47.2021V49H12.7402V45.1787H13.5366L13.6768 45.6675H13.7349C13.8374 45.492 13.9855 45.3553 14.1792 45.2573C14.3729 45.1571 14.5951 45.1069 14.8457 45.1069C15.4176 45.1069 15.805 45.2938 16.0078 45.6675H16.1001C16.2026 45.4897 16.353 45.3519 16.5513 45.2539C16.7518 45.1559 16.9774 45.1069 17.228 45.1069C17.661 45.1069 17.988 45.2186 18.209 45.4419C18.4323 45.6629 18.5439 46.0184 18.5439 46.5083V49H17.498V46.7681C17.498 46.4924 17.4513 46.2861 17.3579 46.1494C17.2668 46.0104 17.1221 45.9409 16.9238 45.9409C16.6686 45.9409 16.4772 46.0321 16.3496 46.2144C16.2243 46.3966 16.1616 46.686 16.1616 47.0825V49ZM20.5264 49L19.0703 45.1787H20.1606L20.8989 47.356C20.981 47.6317 21.0322 47.8926 21.0527 48.1387H21.0732C21.0846 47.9199 21.1359 47.659 21.2271 47.356L21.9619 45.1787H23.0522L21.5962 49H20.5264ZM23.5581 44.1909C23.5581 43.8514 23.7472 43.6816 24.1255 43.6816C24.5037 43.6816 24.6929 43.8514 24.6929 44.1909C24.6929 44.3527 24.645 44.4792 24.5493 44.5703C24.4559 44.6592 24.3146 44.7036 24.1255 44.7036C23.7472 44.7036 23.5581 44.5327 23.5581 44.1909ZM24.645 49H23.6025V45.1787H24.645V49ZM27.3247 45.8486C27.1037 45.8486 26.9305 45.9193 26.8052 46.0605C26.6799 46.1995 26.6081 46.3978 26.5898 46.6553H28.0527C28.0482 46.3978 27.981 46.1995 27.8511 46.0605C27.7212 45.9193 27.5457 45.8486 27.3247 45.8486ZM27.4717 49.0684C26.8564 49.0684 26.3757 48.8986 26.0293 48.5591C25.6829 48.2196 25.5098 47.7388 25.5098 47.1167C25.5098 46.4764 25.6693 45.9819 25.9883 45.6333C26.3096 45.2824 26.7528 45.1069 27.3179 45.1069C27.8579 45.1069 28.2783 45.2607 28.5791 45.5684C28.8799 45.876 29.0303 46.3009 29.0303 46.8433V47.3491H26.5659C26.5773 47.6453 26.665 47.8766 26.8291 48.043C26.9932 48.2093 27.2233 48.2925 27.5195 48.2925C27.7497 48.2925 27.9673 48.2686 28.1724 48.2207C28.3774 48.1729 28.5916 48.0965 28.8149 47.9917V48.7983C28.6326 48.8895 28.4378 48.9567 28.2305 49C28.0231 49.0456 27.7702 49.0684 27.4717 49.0684ZM31.4297 49.0684C30.2402 49.0684 29.6455 48.4155 29.6455 47.1099C29.6455 46.4604 29.8073 45.9648 30.1309 45.623C30.4544 45.279 30.9181 45.1069 31.522 45.1069C31.964 45.1069 32.3605 45.1935 32.7114 45.3667L32.4038 46.1733C32.2397 46.1073 32.0871 46.0537 31.9458 46.0127C31.8045 45.9694 31.6632 45.9478 31.522 45.9478C30.9797 45.9478 30.7085 46.3328 30.7085 47.103C30.7085 47.8504 30.9797 48.2241 31.522 48.2241C31.7225 48.2241 31.9082 48.1979 32.0791 48.1455C32.25 48.0908 32.4209 48.0065 32.5918 47.8926V48.7847C32.4232 48.8918 32.2523 48.9658 32.0791 49.0068C31.9082 49.0479 31.6917 49.0684 31.4297 49.0684ZM36.5122 45.1206C36.5122 45.4328 36.4176 45.6982 36.2285 45.917C36.0394 46.1357 35.7739 46.2861 35.4321 46.3682V46.3887C35.8354 46.4388 36.1408 46.5618 36.3481 46.7578C36.5555 46.9515 36.6592 47.2135 36.6592 47.5439C36.6592 48.0247 36.4849 48.3996 36.1362 48.6685C35.7876 48.9351 35.2897 49.0684 34.6426 49.0684C34.1003 49.0684 33.6195 48.9784 33.2002 48.7983V47.8994C33.3939 47.9974 33.6069 48.0771 33.8394 48.1387C34.0718 48.2002 34.3019 48.231 34.5298 48.231C34.8784 48.231 35.1359 48.1717 35.3022 48.0532C35.4686 47.9347 35.5518 47.7445 35.5518 47.4824C35.5518 47.2477 35.4561 47.0814 35.2646 46.9834C35.0732 46.8854 34.7679 46.8364 34.3486 46.8364H33.9692V46.0264H34.3555C34.7428 46.0264 35.0254 45.9762 35.2031 45.876C35.3831 45.7734 35.4731 45.5991 35.4731 45.353C35.4731 44.9748 35.2362 44.7856 34.7622 44.7856C34.5981 44.7856 34.4307 44.813 34.2598 44.8677C34.0911 44.9224 33.9032 45.0169 33.6958 45.1514L33.207 44.4233C33.6628 44.0952 34.2062 43.9312 34.8374 43.9312C35.3547 43.9312 35.7625 44.036 36.061 44.2456C36.3618 44.4552 36.5122 44.7469 36.5122 45.1206ZM37.1787 46.8774C37.1787 45.8885 37.3872 45.1525 37.8042 44.6694C38.2235 44.1864 38.8501 43.9448 39.6841 43.9448C39.9689 43.9448 40.1922 43.9619 40.354 43.9961V44.8403C40.1512 44.7948 39.9507 44.772 39.7524 44.772C39.3901 44.772 39.0939 44.8267 38.8638 44.936C38.6359 45.0454 38.465 45.2072 38.3511 45.4214C38.2371 45.6356 38.1699 45.9398 38.1494 46.334H38.1938C38.4194 45.9466 38.7806 45.7529 39.2773 45.7529C39.724 45.7529 40.0737 45.8931 40.3267 46.1733C40.5796 46.4536 40.7061 46.841 40.7061 47.3354C40.7061 47.8687 40.5557 48.2913 40.2549 48.6035C39.9541 48.9134 39.5371 49.0684 39.0039 49.0684C38.6348 49.0684 38.3123 48.9829 38.0366 48.812C37.7632 48.6411 37.5513 48.3916 37.4009 48.0635C37.2528 47.7354 37.1787 47.34 37.1787 46.8774ZM38.9834 48.2241C39.209 48.2241 39.3822 48.1489 39.5029 47.9985C39.6237 47.8459 39.6841 47.6294 39.6841 47.3491C39.6841 47.1053 39.6271 46.9139 39.5132 46.7749C39.4015 46.6336 39.2318 46.563 39.0039 46.563C38.7897 46.563 38.6063 46.6325 38.4536 46.7715C38.3032 46.9105 38.228 47.0723 38.228 47.2568C38.228 47.528 38.2987 47.757 38.4399 47.9438C38.5835 48.1307 38.7646 48.2241 38.9834 48.2241ZM43.0303 45.8076C43.5133 45.8076 43.8973 45.9432 44.1821 46.2144C44.4692 46.4855 44.6128 46.8569 44.6128 47.3286C44.6128 47.8869 44.4408 48.3164 44.0967 48.6172C43.7526 48.918 43.2604 49.0684 42.6201 49.0684C42.0641 49.0684 41.6152 48.9784 41.2734 48.7983V47.8857C41.4535 47.9814 41.6631 48.0601 41.9023 48.1216C42.1416 48.1808 42.3683 48.2104 42.5825 48.2104C43.2274 48.2104 43.5498 47.9461 43.5498 47.4175C43.5498 46.9139 43.216 46.6621 42.5483 46.6621C42.4276 46.6621 42.2943 46.6746 42.1484 46.6997C42.0026 46.7225 41.8841 46.7476 41.793 46.7749L41.3726 46.5493L41.5605 44.0029H44.271V44.8984H42.4868L42.3945 45.8794L42.5142 45.8555C42.6532 45.8236 42.8252 45.8076 43.0303 45.8076ZM45.3306 48.5112C45.3306 48.3198 45.3818 48.1751 45.4844 48.0771C45.5869 47.9792 45.7362 47.9302 45.9321 47.9302C46.1213 47.9302 46.2671 47.9803 46.3696 48.0806C46.4744 48.1808 46.5269 48.3244 46.5269 48.5112C46.5269 48.6912 46.4744 48.8337 46.3696 48.9385C46.2648 49.041 46.119 49.0923 45.9321 49.0923C45.7407 49.0923 45.5926 49.0422 45.4878 48.9419C45.383 48.8394 45.3306 48.6958 45.3306 48.5112ZM49.0254 49.0684C47.8359 49.0684 47.2412 48.4155 47.2412 47.1099C47.2412 46.4604 47.403 45.9648 47.7266 45.623C48.0501 45.279 48.5138 45.1069 49.1177 45.1069C49.5597 45.1069 49.9562 45.1935 50.3071 45.3667L49.9995 46.1733C49.8354 46.1073 49.6828 46.0537 49.5415 46.0127C49.4002 45.9694 49.259 45.9478 49.1177 45.9478C48.5754 45.9478 48.3042 46.3328 48.3042 47.103C48.3042 47.8504 48.5754 48.2241 49.1177 48.2241C49.3182 48.2241 49.5039 48.1979 49.6748 48.1455C49.8457 48.0908 50.0166 48.0065 50.1875 47.8926V48.7847C50.0189 48.8918 49.848 48.9658 49.6748 49.0068C49.5039 49.0479 49.2874 49.0684 49.0254 49.0684ZM51.9067 47.0825C51.9067 47.4608 51.9683 47.7467 52.0913 47.9404C52.2166 48.1341 52.4194 48.231 52.6997 48.231C52.9777 48.231 53.1771 48.1353 53.2979 47.9438C53.4209 47.7502 53.4824 47.4631 53.4824 47.0825C53.4824 46.7043 53.4209 46.4206 53.2979 46.2314C53.1748 46.0423 52.9731 45.9478 52.6929 45.9478C52.4149 45.9478 52.2144 46.0423 52.0913 46.2314C51.9683 46.4183 51.9067 46.702 51.9067 47.0825ZM54.5488 47.0825C54.5488 47.7046 54.3848 48.1911 54.0566 48.542C53.7285 48.8929 53.2716 49.0684 52.686 49.0684C52.3192 49.0684 51.9956 48.9886 51.7153 48.8291C51.4351 48.6673 51.2197 48.436 51.0693 48.1353C50.9189 47.8345 50.8438 47.4836 50.8438 47.0825C50.8438 46.4582 51.0067 45.9728 51.3325 45.6265C51.6584 45.2801 52.1164 45.1069 52.7065 45.1069C53.0734 45.1069 53.397 45.1867 53.6772 45.3462C53.9575 45.5057 54.1729 45.7347 54.3232 46.0332C54.4736 46.3317 54.5488 46.6815 54.5488 47.0825ZM58.8315 49H57.7891V46.7681C57.7891 46.4924 57.7424 46.2861 57.6489 46.1494C57.5578 46.0104 57.4131 45.9409 57.2148 45.9409C56.9482 45.9409 56.7546 46.0389 56.6338 46.2349C56.513 46.4308 56.4526 46.7533 56.4526 47.2021V49H55.4102V45.1787H56.2065L56.3467 45.6675H56.4048C56.5073 45.492 56.6554 45.3553 56.8491 45.2573C57.0428 45.1571 57.265 45.1069 57.5156 45.1069C58.0876 45.1069 58.4749 45.2938 58.6777 45.6675H58.77C58.8726 45.4897 59.0229 45.3519 59.2212 45.2539C59.4217 45.1559 59.6473 45.1069 59.8979 45.1069C60.3309 45.1069 60.6579 45.2186 60.8789 45.4419C61.1022 45.6629 61.2139 46.0184 61.2139 46.5083V49H60.168V46.7681C60.168 46.4924 60.1213 46.2861 60.0278 46.1494C59.9367 46.0104 59.792 45.9409 59.5938 45.9409C59.3385 45.9409 59.1471 46.0321 59.0195 46.2144C58.8942 46.3966 58.8315 46.686 58.8315 47.0825V49Z" fill="#3980D4"/>
<defs>
<clipPath id="clip0">
<rect x="15" y="6" width="38.2963" height="33.4074" rx="16.7037" fill="white"/>
</clipPath>
</defs>
</svg>
