<svg width="20" height="20" viewBox="0 0 20 20" fill="none" xmlns="http://www.w3.org/2000/svg">
<g clip-path="url(#clip0)">
<path d="M4.16667 0H0.833333C0.373333 0 0 0.373333 0 0.833333V4.16667C0 4.62667 0.373333 5 0.833333 5H4.16667C4.62667 5 5 4.62667 5 4.16667V0.833333C5 0.373333 4.62667 0 4.16667 0Z" fill="white"/>
<path d="M4.16667 7.5H0.833333C0.373333 7.5 0 7.87333 0 8.33333V11.6667C0 12.1267 0.373333 12.5 0.833333 12.5H4.16667C4.62667 12.5 5 12.1267 5 11.6667V8.33333C5 7.87333 4.62667 7.5 4.16667 7.5Z" fill="white"/>
<path d="M4.16667 15H0.833333C0.373333 15 0 15.3733 0 15.8333V19.1667C0 19.6267 0.373333 20 0.833333 20H4.16667C4.62667 20 5 19.6267 5 19.1667V15.8333C5 15.3733 4.62667 15 4.16667 15Z" fill="white"/>
<path d="M11.6667 0H8.33333C7.87333 0 7.5 0.373333 7.5 0.833333V4.16667C7.5 4.62667 7.87333 5 8.33333 5H11.6667C12.1267 5 12.5 4.62667 12.5 4.16667V0.833333C12.5 0.373333 12.1267 0 11.6667 0Z" fill="white"/>
<path d="M11.6667 7.5H8.33333C7.87333 7.5 7.5 7.87333 7.5 8.33333V11.6667C7.5 12.1267 7.87333 12.5 8.33333 12.5H11.6667C12.1267 12.5 12.5 12.1267 12.5 11.6667V8.33333C12.5 7.87333 12.1267 7.5 11.6667 7.5Z" fill="white"/>
<path d="M11.6667 15H8.33333C7.87333 15 7.5 15.3733 7.5 15.8333V19.1667C7.5 19.6267 7.87333 20 8.33333 20H11.6667C12.1267 20 12.5 19.6267 12.5 19.1667V15.8333C12.5 15.3733 12.1267 15 11.6667 15Z" fill="white"/>
<path d="M19.1667 0H15.8333C15.3733 0 15 0.373333 15 0.833333V4.16667C15 4.62667 15.3733 5 15.8333 5H19.1667C19.6267 5 20 4.62667 20 4.16667V0.833333C20 0.373333 19.6267 0 19.1667 0Z" fill="white"/>
<path d="M19.1667 7.5H15.8333C15.3733 7.5 15 7.87333 15 8.33333V11.6667C15 12.1267 15.3733 12.5 15.8333 12.5H19.1667C19.6267 12.5 20 12.1267 20 11.6667V8.33333C20 7.87333 19.6267 7.5 19.1667 7.5Z" fill="white"/>
<path d="M19.1667 15H15.8333C15.3733 15 15 15.3733 15 15.8333V19.1667C15 19.6267 15.3733 20 15.8333 20H19.1667C19.6267 20 20 19.6267 20 19.1667V15.8333C20 15.3733 19.6267 15 19.1667 15Z" fill="white"/>
</g>
<defs>
<clipPath id="clip0">
<rect width="20" height="20" fill="white"/>
</clipPath>
</defs>
</svg>
