<svg width="20" height="20" viewBox="0 0 20 20" fill="none" xmlns="http://www.w3.org/2000/svg">
<g clip-path="url(#clip0)">
<path d="M11.3116 5.80514C11.1979 5.67944 10.9967 5.67944 10.8831 5.80514L5.1193 12.181C5.05035 12.2573 5.01899 12.3653 5.03436 12.4717C5.05004 12.5781 5.111 12.6697 5.19799 12.7179L5.67117 12.9797V13.8604L4.22143 14.3189L2.75809 12.7002L3.17258 11.0965H3.96874L4.20547 11.6199C4.24896 11.7161 4.33183 11.7836 4.428 11.8009C4.44427 11.8039 4.46055 11.8051 4.47652 11.8051C4.55612 11.8051 4.63365 11.7704 4.69078 11.7069L10.4546 5.3311C10.5114 5.26824 10.5433 5.18315 10.5433 5.0941C10.5433 5.00505 10.5114 4.91996 10.4546 4.8571L9.3401 3.62426C9.28328 3.5614 9.20635 3.52605 9.12584 3.52605H9.12524C9.04445 3.52636 8.9672 3.56206 8.9107 3.62524L2.7288 10.5252C2.72582 10.5286 2.72596 10.5337 2.72309 10.5371C2.69198 10.5743 2.66602 10.6172 2.65244 10.6693L2.12628 12.7057L1.44034 15.3622C1.41014 15.4791 1.43975 15.6052 1.51759 15.6913C1.57528 15.7551 1.65253 15.7895 1.73185 15.7895C1.75966 15.7895 1.78747 15.7852 1.815 15.7767L4.21643 15.0179L6.05739 14.4358C6.06293 14.4341 6.06674 14.4295 6.07216 14.4274C6.09128 14.4201 6.10801 14.4082 6.1256 14.3967C6.14287 14.3854 6.16014 14.3753 6.17475 14.3607C6.17867 14.3569 6.18381 14.3555 6.18759 14.3514L12.4251 7.51295C12.4822 7.45043 12.5145 7.36499 12.5148 7.27563C12.5151 7.18658 12.4831 7.10114 12.426 7.03797L11.3116 5.80514Z" fill="#575E66"/>
<path d="M14.4068 3.44425L12.5886 1.433C12.1305 0.926243 11.3336 0.92527 10.8737 1.43397L9.76367 2.67302C9.6462 2.8043 9.64648 3.01543 9.76455 3.14605L12.8582 6.5682C12.9173 6.63367 12.9949 6.66642 13.0724 6.66642C13.1497 6.66642 13.2266 6.63402 13.2858 6.56921L14.4067 5.34033C14.6358 5.08697 14.7619 4.75043 14.7619 4.39232C14.7619 4.03421 14.6358 3.69761 14.4068 3.44425Z" fill="#575E66"/>
<path d="M1 17.5C1.66667 16.6667 4.3 15.5 9.5 17.5C14.7 19.5 18.6667 17.3333 20 16" stroke="#575E66"/>
</g>
<defs>
<clipPath id="clip0">
<rect width="20" height="20" fill="white"/>
</clipPath>
</defs>
</svg>
