<svg width="19" height="21" viewBox="0 0 19 21" fill="none" xmlns="http://www.w3.org/2000/svg">
<path d="M8.43848 3.85735L10.3065 2.09026L10.3835 2.01744L10.3063 1.9448L9.2254 0.927189L9.15668 0.862502L9.08813 0.927355L5.19897 4.60646L5.12272 4.67859L5.19846 4.75126L9.03692 8.43411L9.10502 8.49945L9.17419 8.43524L10.2627 7.42476L10.3403 7.35267L10.2639 7.27931L8.40749 5.49822H9.5C13.2953 5.49822 16.3731 8.41093 16.3731 11.9788C16.3731 15.5466 13.2953 18.4591 9.5 18.4591C5.70467 18.4591 2.62687 15.5466 2.62687 11.9786V11.2581V11.1581L2.52686 11.1581L0.999988 11.1583L0.9 11.1583V11.2583V11.9788C0.9 16.4624 4.76332 20.1 9.5 20.1C14.2367 20.1 18.1 16.4624 18.1 11.9788C18.1 7.49517 14.2367 3.85735 9.5 3.85735H8.43848Z" fill="#3980D4" stroke="#3980D4" stroke-width="0.2"/>
</svg>
