<svg width="9" height="10" viewBox="0 0 9 10" fill="none" xmlns="http://www.w3.org/2000/svg">
<path d="M5.32454 4.90891L8.82897 1.40438C9.05703 1.17643 9.05703 0.807857 8.82897 0.579902C8.60101 0.351947 8.23244 0.351947 8.00448 0.579902L4.49995 4.08443L0.995529 0.579902C0.767467 0.351947 0.399002 0.351947 0.171046 0.579902C-0.0570155 0.807857 -0.0570155 1.17643 0.171046 1.40438L3.67547 4.90891L0.171046 8.41344C-0.0570155 8.6414 -0.0570155 9.00997 0.171046 9.23792C0.28465 9.35163 0.434022 9.40876 0.583288 9.40876C0.732553 9.40876 0.881818 9.35163 0.995529 9.23792L4.49995 5.73339L8.00448 9.23792C8.11819 9.35163 8.26746 9.40876 8.41673 9.40876C8.56599 9.40876 8.71526 9.35163 8.82897 9.23792C9.05703 9.00997 9.05703 8.6414 8.82897 8.41344L5.32454 4.90891Z" fill="#4D5B69"/>
</svg>
