<svg width="20" height="20" viewBox="0 0 20 20" fill="none" xmlns="http://www.w3.org/2000/svg">
<g clip-path="url(#clip0)">
<path d="M7.29297 14.6767V18.5417C7.29297 18.8117 7.4663 19.0508 7.72297 19.1358C7.78713 19.1567 7.85297 19.1667 7.91797 19.1667C8.11297 19.1667 8.3013 19.075 8.4213 18.9117L10.6821 15.835L7.29297 14.6767Z" fill="#575E66"/>
<path d="M19.7375 0.115022C19.5459 -0.0208112 19.2942 -0.0391445 19.0859 0.0700222L0.33587 9.86169C0.114204 9.97752 -0.0166296 10.2142 0.00170373 10.4634C0.0208704 10.7134 0.186704 10.9267 0.422537 11.0075L5.63504 12.7892L16.7359 3.29752L8.14587 13.6467L16.8817 16.6325C16.9467 16.6542 17.015 16.6659 17.0834 16.6659C17.1967 16.6659 17.3092 16.635 17.4084 16.575C17.5667 16.4784 17.6742 16.3159 17.7017 16.1334L19.9934 0.716689C20.0275 0.483355 19.9292 0.251689 19.7375 0.115022Z" fill="#575E66"/>
</g>
<defs>
<clipPath id="clip0">
<rect width="20" height="20" fill="white"/>
</clipPath>
</defs>
</svg>
