<svg width="20" height="20" viewBox="0 0 20 20" fill="none" xmlns="http://www.w3.org/2000/svg">
<path d="M10.5859 15.3193V10.5859H15.3193C15.0476 13.0696 13.0696 15.0476 10.5859 15.3193Z" fill="#575E66"/>
<path d="M10.2422 9.41406L6.6543 5.82613C7.57125 5.08977 8.73473 4.64844 9.99953 4.64844C12.7524 4.64844 15.0261 6.73785 15.3189 9.41406H10.2422Z" fill="#575E66"/>
<path d="M4.64844 10C4.64844 8.7352 5.08977 7.57172 5.82613 6.65477L9.41406 10.2427V15.3193C6.73785 15.0266 4.64844 12.7529 4.64844 10Z" fill="#575E66"/>
<path d="M20 7.99762V12.0024L18.1034 12.5537C17.9544 13.0257 17.764 13.4842 17.535 13.9229L18.487 15.6552L15.6552 18.487L13.9229 17.535C13.4842 17.7641 13.0258 17.9544 12.5537 18.1034L12.0024 20H7.99762L7.44629 18.1034C6.97422 17.9544 6.51578 17.764 6.07715 17.535L4.3448 18.487L1.51301 15.6552L2.46504 13.9229C2.23594 13.4842 2.04562 13.0258 1.8966 12.5537L0 12.0024V7.99766L1.8966 7.44633C2.04562 6.9743 2.23598 6.51586 2.46504 6.07719L1.51301 4.34484L4.3448 1.51305L6.07715 2.46508C6.51582 2.23598 6.97422 2.04566 7.44629 1.89664L7.99762 0H12.0023L12.5537 1.8966C13.0257 2.04563 13.4841 2.23598 13.9228 2.46504L15.6552 1.51301L18.487 4.3448L17.5349 6.07715C17.764 6.51582 17.9543 6.97422 18.1034 7.44629L20 7.99762ZM10 3.47656C6.40297 3.47656 3.47656 6.40297 3.47656 10C3.47656 13.597 6.40297 16.5234 10 16.5234C13.597 16.5234 16.5234 13.597 16.5234 10C16.5234 6.40297 13.597 3.47656 10 3.47656Z" fill="#575E66"/>
</svg>
