<svg width="20" height="20" viewBox="0 0 20 20" fill="none" xmlns="http://www.w3.org/2000/svg">
<path d="M15.7063 3.91748C14.1324 2.34355 12.0397 1.47675 9.81376 1.47675C7.58786 1.47675 5.49517 2.34355 3.9212 3.91752C2.34727 5.49146 1.48047 7.58415 1.48047 9.81006C1.48047 12.036 2.34727 14.1287 3.92124 15.7026C5.49521 17.2766 7.58786 18.1434 9.8138 18.1434C12.0397 18.1434 14.1324 17.2766 15.7064 15.7026C17.2803 14.1287 18.1471 12.036 18.1471 9.81006C18.1471 7.58411 17.2803 5.49146 15.7063 3.91748ZM9.81376 16.9088C5.89324 16.9088 2.71502 13.7306 2.71502 9.81006C2.71502 5.88953 5.89324 2.7113 9.81376 2.7113C13.7343 2.7113 16.9125 5.88953 16.9125 9.81006C16.9125 13.7306 13.7343 16.9088 9.81376 16.9088Z" fill="#575E66"/>
<ellipse cx="9.80942" cy="9.81006" rx="7.33286" ry="7.33287" fill="#575E66"/>
<path d="M10.0023 10.3157C11.0919 10.3157 11.9752 9.43233 11.9752 8.34269C11.9752 7.25305 11.0919 6.36972 10.0023 6.36972C8.91263 6.36972 8.0293 7.25305 8.0293 8.34269C8.0293 9.43233 8.91263 10.3157 10.0023 10.3157Z" fill="white"/>
<path d="M6.6875 11.8941V13.6303H13.3167V11.8941C13.3167 11.0223 12.61 10.3157 11.7383 10.3157H8.26586C7.39418 10.3157 6.6875 11.0223 6.6875 11.8941Z" fill="white"/>
<path d="M9.37109 0.833328H10.6338V4.2389H9.37109V0.833328Z" fill="white"/>
<path d="M19.1641 9.36862V10.6313H15.7591V9.36862H19.1641Z" fill="white"/>
<path d="M10.6328 19.1667H9.37012V15.7611H10.6328V19.1667Z" fill="white"/>
<path d="M0.832031 10.6313V9.36862H4.2376V10.6313H0.832031Z" fill="white"/>
</svg>
