<svg width="15" height="15" viewBox="0 0 15 15" fill="none" xmlns="http://www.w3.org/2000/svg">
<path d="M8.74884 0.905457H6.2419V1.32729H5.33656V0.846405C5.33644 0.379715 5.71593 0 6.18239 0H8.80835C9.27481 0 9.6543 0.379715 9.6543 0.846405V1.32729H8.74884V0.905457Z" fill="white"/>
<path d="M3.24646 4.91455H11.7458C11.9786 4.91455 12.162 5.11322 12.1432 5.34542L11.4326 14.1317C11.393 14.6222 10.9839 15 10.4924 15H4.49993C4.0084 15 3.59928 14.6222 3.55968 14.1316L2.84912 5.34542C2.83024 5.11322 3.01357 4.91455 3.24646 4.91455ZM9.68776 14.0628C9.69726 14.0634 9.70676 14.0638 9.71615 14.0638C9.9535 14.0638 10.1527 13.8789 10.1675 13.6388L10.6128 6.42574C10.6281 6.17615 10.4383 5.96134 10.1888 5.94601C9.94011 5.9309 9.72439 6.1203 9.70905 6.37001L9.26388 13.5831C9.24843 13.8327 9.43828 14.0474 9.68776 14.0628ZM7.03834 13.611C7.03834 13.861 7.24102 14.0636 7.49107 14.0636C7.74112 14.0636 7.9438 13.861 7.9438 13.611V6.39782C7.9438 6.14777 7.74112 5.94509 7.49107 5.94509C7.24113 5.94509 7.03834 6.14777 7.03834 6.39782V13.611ZM4.37942 6.42448L4.80457 13.6376C4.81865 13.8781 5.01823 14.0636 5.25604 14.0636C5.26497 14.0636 5.27401 14.0634 5.28305 14.063C5.53264 14.0482 5.72307 13.834 5.70831 13.5844L5.28328 6.37115C5.26863 6.12156 5.05508 5.93113 4.8048 5.94589C4.5552 5.96054 4.36477 6.17489 4.37942 6.42448Z" fill="white"/>
<path d="M1.68024 3.51747L1.97755 2.62621C2.05595 2.39126 2.2759 2.23276 2.52367 2.23276H12.4673C12.715 2.23276 12.935 2.39126 13.0133 2.62621L13.3106 3.51747C13.368 3.68936 13.2934 3.86469 13.1541 3.95212C13.0973 3.98771 13.0301 4.00911 12.9563 4.00911H2.03455C1.96073 4.00911 1.89344 3.98771 1.83679 3.952C1.69752 3.86457 1.6229 3.68925 1.68024 3.51747Z" fill="white"/>
</svg>
