<svg width="22" height="22" viewBox="0 0 22 22" fill="none" xmlns="http://www.w3.org/2000/svg">
<path d="M15.0967 1.44709L15.097 1.44677C15.8259 0.717304 17.0846 0.718621 17.8108 1.44545L20.5381 4.17501C20.9004 4.5376 21.1 5.0198 21.1 5.53231C21.1 6.04483 20.9004 6.52698 20.5381 6.88958L20.5378 6.88989L8.20877 19.1192C8.14213 19.1853 8.06037 19.233 7.97079 19.2589L7.97051 19.259L1.60692 21.0787L1.60665 21.0788C1.55696 21.0928 1.50561 21.0999 1.4547 21.0999C1.30955 21.0999 1.16813 21.0429 1.06257 20.9373M15.0967 1.44709L1.13331 20.8666M15.0967 1.44709L2.87912 13.7852L2.95008 13.8555L2.87908 13.7852C2.81297 13.8519 2.7654 13.9338 2.73952 14.0233L2.73943 14.0236L0.921291 20.3926M15.0967 1.44709L0.921291 20.3926M1.06257 20.9373L1.13331 20.8666M1.06257 20.9373C1.06257 20.9373 1.06257 20.9373 1.06258 20.9373L1.13331 20.8666M1.06257 20.9373C0.920211 20.7948 0.866006 20.5862 0.921287 20.3926L1.01745 20.4201M1.13331 20.8666C1.01655 20.7498 0.972148 20.5787 1.01745 20.4201M1.01745 20.4201L0.921291 20.3926M1.01745 20.4201L0.921291 20.3926M4.60301 13.6272L13.1873 4.96565L14.7187 6.49708L6.15198 15.0639L5.58709 13.9337L5.58703 13.9336C5.49286 13.7458 5.30121 13.6272 5.09103 13.6272H4.60301ZM5.21806 18.8934L3.10655 16.7819L3.69093 14.7362H4.74819L5.50399 16.2479C5.50399 16.2479 5.50399 16.2479 5.504 16.2479C5.55761 16.3552 5.64476 16.4423 5.75203 16.4959C5.75203 16.4959 5.75204 16.4959 5.75204 16.4959L7.26368 17.2517V18.309L5.21806 18.8934ZM8.0663 16.4129L6.93614 15.848L15.5029 7.28128L17.0343 8.81271L8.37284 17.397V16.909C8.37284 16.6988 8.25419 16.5071 8.06642 16.413L8.0663 16.4129ZM2.26212 19.7379L2.75807 18.0018L3.99818 19.2419L2.26212 19.7379ZM19.7552 6.1161L17.822 8.03204L13.9679 4.17796L15.8825 2.24611C15.8826 2.24604 15.8827 2.24596 15.8828 2.24589C16.1873 1.94158 16.7222 1.94165 17.0266 2.24611L19.7539 4.97337C19.9069 5.12641 19.9909 5.32913 19.9909 5.5454C19.9909 5.76172 19.9069 5.96437 19.7553 6.116C19.7553 6.11603 19.7552 6.11607 19.7552 6.1161Z" fill="#F8971C" stroke="#F8971C" stroke-width="0.2"/>
</svg>
