<svg width="41" height="41" viewBox="0 0 41 41" fill="none" xmlns="http://www.w3.org/2000/svg">
<circle cx="20.5" cy="20.5" r="20.5" fill="#F8971C"/>
<path d="M22.4688 25.0156H18.7188L18.1875 9.25H23L22.4688 25.0156ZM20.5938 27.4844C21.3542 27.4844 21.9635 27.7083 22.4219 28.1562C22.8906 28.6042 23.125 29.1771 23.125 29.875C23.125 30.5625 22.8906 31.1302 22.4219 31.5781C21.9635 32.026 21.3542 32.25 20.5938 32.25C19.8438 32.25 19.2344 32.026 18.7656 31.5781C18.3073 31.1302 18.0781 30.5625 18.0781 29.875C18.0781 29.1875 18.3073 28.6198 18.7656 28.1719C19.2344 27.7135 19.8438 27.4844 20.5938 27.4844Z" fill="white"/>
</svg>
